<?xml version="1.0" encoding="UTF-8" standalone="no"?>
<!-- Created with Keyshape -->
<svg xmlns="http://www.w3.org/2000/svg" width="52" height="52" viewBox="0 0 52 52">
    <title>logo-flattened copy 3</title>
    <style>
@keyframes Path_o { 0% { opacity: 0; } 33.3333% { opacity: 0; } 33.6667% { opacity: 1; } 100% { opacity: 1; } }
@keyframes Path_d { 0% { d: path('M24.6532,41.3698L25.7917,41.3698C25.8417,41.3698,25.8893,41.3914,25.9222,41.429L25.9224,41.4293C25.9596,41.4717,25.9738,41.5295,25.9606,41.5842C25.9271,41.723,25.8625,41.8412,25.7667,41.9389C25.6505,42.0575,25.5142,42.1413,25.3579,42.1904L25.0914,42.1904C24.9158,42.1411,24.7702,42.0572,24.6548,41.9389C24.5566,41.8381,24.4983,41.7152,24.4801,41.5703C24.4742,41.5232,24.4878,41.4758,24.5177,41.4391L24.5242,41.4311C24.5558,41.3923,24.6032,41.3698,24.6532,41.3698Z'); } 33.3333% { d: path('M24.6532,41.3698L25.7917,41.3698C25.8417,41.3698,25.8893,41.3914,25.9222,41.429L25.9224,41.4293C25.9596,41.4717,25.9738,41.5295,25.9606,41.5842C25.9271,41.723,25.8625,41.8412,25.7667,41.9389C25.6505,42.0575,25.5142,42.1413,25.3579,42.1904L25.0914,42.1904C24.9158,42.1411,24.7702,42.0572,24.6548,41.9389C24.5566,41.8381,24.4983,41.7152,24.4801,41.5703C24.4742,41.5232,24.4878,41.4758,24.5177,41.4391L24.5242,41.4311C24.5558,41.3923,24.6032,41.3698,24.6532,41.3698Z'); } 50% { d: path('M15.9108,29L35.5995,29C36.4641,29,37.2871,29.3738,37.8561,30.0239L37.8594,30.0291C38.5029,30.7623,38.7484,31.7619,38.5202,32.7079C37.941,35.1082,36.8237,37.1522,35.1671,38.8419C33.1574,40.8929,30.8003,42.3419,28.0975,43.1912L23.4886,43.1912C20.4519,42.3386,17.9338,40.8875,15.9383,38.8419C14.2398,37.0986,13.2317,34.9732,12.9171,32.4674C12.815,31.6529,13.0503,30.8332,13.5673,30.1984L13.6798,30.0602C14.2262,29.3891,15.0458,29,15.9108,29Z'); } 100% { d: path('M15.9108,29L35.5995,29C36.4641,29,37.2871,29.3738,37.8561,30.0239L37.8594,30.0291C38.5029,30.7623,38.7484,31.7619,38.5202,32.7079C37.941,35.1082,36.8237,37.1522,35.1671,38.8419C33.1574,40.8929,30.8003,42.3419,28.0975,43.1912L23.4886,43.1912C20.4519,42.3386,17.9338,40.8875,15.9383,38.8419C14.2398,37.0986,13.2317,34.9732,12.9171,32.4674C12.815,31.6529,13.0503,30.8332,13.5673,30.1984L13.6798,30.0602C14.2262,29.3891,15.0458,29,15.9108,29Z'); } }
@keyframes Path-2_do { 0% { stroke-dashoffset: 144.49px; } 33.3333% { stroke-dashoffset: 288.98px; } 100% { stroke-dashoffset: 288.98px; } }
@keyframes Rectangle_t { 0% { transform: translate(31.222514px,20px) scale(0.8,0.8) translate(-31.222514px,-20px); } 53.3333% { transform: translate(31.222514px,20px) scale(0.8,0.8) translate(-31.222514px,-20px); } 63.3333% { transform: translate(31.222514px,20px) scale(1.3,1.3) translate(-31.222514px,-20px); } 70% { transform: translate(31.222514px,20px) scale(1,1) translate(-31.222514px,-20px); } 100% { transform: translate(31.222514px,20px) scale(1,1) translate(-31.222514px,-20px); } }
@keyframes Rectangle_o { 0% { opacity: 0; } 53.3333% { opacity: 0; } 53.6667% { opacity: 1; } 100% { opacity: 1; } }
@keyframes Rectangle-Copy_t { 0% { transform: translate(19.222514px,20px) scale(0.8,0.8) translate(-19.222514px,-20px); } 50% { transform: translate(19.222514px,20px) scale(0.8,0.8) translate(-19.222514px,-20px); } 60% { transform: translate(19.222514px,20px) scale(1.3,1.3) translate(-19.222514px,-20px); } 66.6666% { transform: translate(19.222514px,20px) scale(1,1) translate(-19.222514px,-20px); } 100% { transform: translate(19.222514px,20px) scale(1,1) translate(-19.222514px,-20px); } }
@keyframes Rectangle-Copy_o { 0% { opacity: 0; } 50% { opacity: 0; } 50.3333% { opacity: 1; } 100% { opacity: 1; } }
    </style>
    <g id="logo-flattened-copy-3" stroke="none" stroke-width="1" fill="none" fill-rule="evenodd" transform="translate(25.9654,25.6488) translate(-25.9654,-25.6488)">
        <path id="Path" d="M24.6532,41.3698L25.7917,41.3698C25.8417,41.3698,25.8893,41.3914,25.9222,41.429L25.9224,41.4293C25.9596,41.4717,25.9738,41.5295,25.9606,41.5842C25.9271,41.723,25.8625,41.8412,25.7667,41.9389C25.6505,42.0575,25.5142,42.1413,25.3579,42.1904L25.0914,42.1904C24.9158,42.1411,24.7702,42.0572,24.6548,41.9389C24.5566,41.8381,24.4983,41.7152,24.4801,41.5703C24.4742,41.5232,24.4878,41.4758,24.5177,41.4391L24.5242,41.4311C24.5558,41.3923,24.6032,41.3698,24.6532,41.3698Z" fill="#194D3E" opacity="0" transform="translate(24.8481,34.0952) translate(-25.2319,-35.0952)" style="animation: 3s linear infinite both Path_o, 3s linear infinite both Path_d;"/>
        <path id="Path-2" d="M25.4527,41.3698C24.0786,44.3904,22.7747,46.3942,21.5411,47.3812C20.3074,48.3682,17.9865,48.8238,14.5782,48.748C10.0651,48.748,6.11124,45.725,4.92799,41.3698L3.33315,21.6193C3,17.7119,3.7111,16.3885,6.96536,13.9253L19.6493,4.568C23.2191,1.86602,28.1498,1.86602,31.7196,4.568L44.4035,13.9253C47.6577,16.3885,49,16.7736,48.6051,20.9266L47.999,29L46.4408,41.3698C45.2576,45.725,41.3038,48.748,36.7907,48.748L35.6172,48.748" stroke="#194D3E" stroke-width="5" stroke-linecap="round" stroke-dashoffset="144.49" stroke-dasharray="144.49" transform="translate(25.9654,25.6488) translate(-25.9654,-25.6488)" style="animation: 3s linear infinite both Path-2_do;"/>
        <path id="Rectangle" d="M31.2225,16.5C31.4987,16.5,31.7487,16.6119,31.9296,16.7929C32.1106,16.9739,32.2225,17.2239,32.2225,17.5L32.2225,17.5L32.2225,23.5L30.2225,23.5L30.2225,17.5C30.2225,17.2239,30.3344,16.9739,30.5154,16.7929C30.6964,16.6119,30.9464,16.5,31.2225,16.5Z" stroke="#194D3E" stroke-width="3" stroke-linecap="round" stroke-linejoin="round" opacity="0" transform="translate(31.2225,20) scale(0.8,0.8) translate(-31.2225,-20)" style="animation: 3s linear infinite both Rectangle_t, 3s linear infinite both Rectangle_o;"/>
        <path id="Rectangle-Copy" d="M19.2225,16.5C19.4987,16.5,19.7487,16.6119,19.9296,16.7929C20.1106,16.9739,20.2225,17.2239,20.2225,17.5L20.2225,17.5L20.2225,23.5L18.2225,23.5L18.2225,17.5C18.2225,17.2239,18.3344,16.9739,18.5154,16.7929C18.6964,16.6119,18.9464,16.5,19.2225,16.5Z" stroke="#194D3E" stroke-width="3" stroke-linecap="round" stroke-linejoin="round" stroke-opacity="1" opacity="0" transform="translate(19.2225,20) scale(0.8,0.8) translate(-19.2225,-20)" style="animation: 3s linear infinite both Rectangle-Copy_t, 3s linear infinite both Rectangle-Copy_o;"/>
    </g>
</svg>
