<svg width="100" height="100" viewBox="0 0 2428 840" fill="none"  xmlns="http://www.w3.org/2000/svg">
<path d="M1535.4 841.001C1527.32 816.874 1519.68 792.732 1511.94 768.625C1504.63 745.883 1497.2 723.18 1489.83 700.459C1482.45 677.739 1475.07 655.022 1467.71 632.298C1460.05 608.657 1452.39 585.014 1444.76 561.365C1437.47 538.783 1430.24 516.18 1422.93 493.607C1415.22 469.817 1407.41 446.061 1399.7 422.271C1392.38 399.697 1385.16 377.092 1377.86 354.514C1370.51 331.785 1363.11 309.074 1355.75 286.351C1348.09 262.71 1340.44 239.067 1332.8 215.418C1325.51 192.837 1318.26 170.242 1310.96 147.664C1303.65 125.089 1296.29 102.532 1288.98 79.9587C1283.3 62.4186 1277.58 44.8882 1272.06 27.2997C1271.06 24.1218 1269.81 22.8571 1266.16 22.8882C1241 23.1033 1215.83 22.9761 1190.66 23.0367C1187.83 23.0435 1185.73 23.3554 1185.83 19.1574C1185.92 15.5186 1186.99 14.9231 1190.34 14.9258C1302.18 15.0171 1414.01 15.0111 1525.84 14.9486C1528.8 14.947 1530.15 15.273 1530.16 18.8434C1530.17 22.5068 1529 23.0955 1525.65 23.0804C1495.66 22.945 1465.66 23.0014 1435.24 23.0014C1438.89 34.9431 1442.39 46.6978 1446.08 58.3935C1454.9 86.3693 1463.88 114.296 1472.67 142.283C1479.58 164.313 1486.22 186.43 1493.13 208.46C1501.92 236.449 1510.9 264.375 1519.72 292.355C1526.7 314.526 1533.53 336.745 1540.47 358.931C1549.13 386.626 1557.84 414.305 1566.51 441.997C1573.02 462.809 1579.49 483.636 1586 504.449C1592.65 525.718 1599.29 546.99 1606.06 568.22C1606.58 569.844 1605.92 572.72 1608.4 572.862C1611.19 573.022 1610.42 569.932 1610.89 568.413C1620.7 537.213 1630.3 505.947 1640 474.713C1648.18 448.38 1656.49 422.087 1664.66 395.749C1671.64 373.238 1678.45 350.673 1685.42 328.158C1694.14 299.978 1703.01 271.843 1711.71 243.655C1718.61 221.285 1725.26 198.836 1732.19 176.474C1740.97 148.144 1750 119.895 1758.75 91.5577C1765.33 70.2585 1771.44 48.8134 1778.23 27.5821C1779.63 23.1888 1778.54 22.9483 1774.87 22.9574C1743.87 23.0346 1712.87 23.0025 1681.87 23.0003C1677.2 22.9999 1675.66 20.8346 1676.98 16.3536C1677.27 15.3511 1677.72 15.007 1678.64 15.0093C1679.64 15.0117 1680.64 15.0018 1681.64 15.0018C1742.47 15.0014 1803.3 15.0009 1864.14 15.0026C1868.8 15.0027 1870.36 17.1884 1868.99 21.6469C1868.22 24.1582 1866.22 22.9361 1864.85 22.9409C1841.02 23.0248 1817.19 23.115 1793.36 22.883C1789.64 22.8468 1788.2 23.7514 1787.12 27.3333C1777.96 57.7281 1768.52 88.0402 1759.25 118.402C1752 142.172 1744.91 165.994 1737.64 189.762C1727.9 221.655 1718.01 253.505 1708.26 285.398C1700.99 309.166 1693.91 332.991 1686.65 356.759C1676.9 388.652 1666.99 420.496 1657.27 452.396C1650.34 475.098 1643.71 497.886 1636.76 520.582C1628 549.252 1618.98 577.846 1610.2 606.513C1604.28 625.832 1598.69 645.252 1592.78 664.571C1582.96 696.611 1572.95 728.588 1563.13 760.627C1557.21 779.945 1551.54 799.336 1545.71 818.681C1543.54 825.876 1541.24 833.033 1539 840.604C1537.93 841.001 1536.87 841.001 1535.4 841.001Z" fill="black"/>
<path d="M427 827.001C289.503 827.001 152.506 827.001 15.5088 827.001C10.0989 827 8.65015 824.897 9.96275 819.492C10.556 817.05 12.2851 818.061 13.502 818.051C24.3345 817.965 35.1678 818.001 46.0009 818.001C68.5005 818.001 91.0008 817.9 113.499 818.1C117.249 818.133 118.091 817.209 118.09 813.489C117.991 551.495 117.991 289.5 118.091 27.506C118.092 23.7715 117.226 22.8862 113.492 22.9049C80.4938 23.0701 47.4941 22.9657 14.495 23.0583C11.4102 23.067 9.82733 22.9152 9.82116 18.9914C9.81494 15.0327 11.462 14.9465 14.5142 14.948C141.178 15.0096 267.842 15.0101 394.506 14.9453C397.592 14.9437 399.172 15.0894 399.179 19.0112C399.185 22.9719 397.535 23.0628 394.484 23.0553C359.485 22.9696 324.486 23.0689 289.487 22.9023C285.712 22.8843 284.91 23.8336 284.912 27.5263C285.009 289.521 285.009 551.515 284.907 813.509C284.906 817.271 285.814 818.121 289.521 818.096C315.853 817.917 342.201 818.534 368.512 817.779C381.962 817.393 395.403 815.456 408.792 813.244C428.432 809.998 447.43 804.779 466.055 797.999C491.302 788.809 514.6 776.038 536.382 760.271C551.584 749.268 564.926 736.295 577.603 722.674C588.863 710.576 598.543 697.123 607.015 682.867C618.712 663.186 627.836 642.38 634.188 620.389C638.269 606.26 641.232 591.913 643.106 577.284C645.333 559.903 646.207 542.491 645.892 525.015C645.821 521.086 647.4 520.896 650.494 520.904C653.564 520.912 655.114 521.06 655.104 525C654.954 584.332 655 643.664 655 702.996C655 742.828 654.942 782.661 655.095 822.493C655.109 826.225 654.231 827.1 650.495 827.094C576.163 826.969 501.832 827.001 427 827.001Z" fill="black"/>
<path d="M1110.99 15.0008C1114.99 15.0008 1118.51 15.2273 1121.99 14.9351C1125.26 14.6599 1126 15.7603 1126.15 18.9934C1126.33 22.9625 1124.56 23.0651 1121.49 23.057C1087.5 22.9676 1053.5 23.0966 1019.5 22.8864C1014.96 22.8583 1013.89 24.0066 1013.89 28.5138C1014.01 289.839 1014.01 551.164 1013.89 812.489C1013.89 816.999 1014.96 818.143 1019.5 818.115C1053.16 817.904 1086.83 818.069 1120.5 817.905C1124.23 817.887 1125.16 818.769 1125.16 822.503C1125.16 826.249 1124.21 827.095 1120.49 827.092C994.828 826.982 869.166 826.982 743.503 827.092C739.777 827.095 738.839 826.237 738.837 822.5C738.836 818.756 739.782 817.887 743.506 817.905C776.504 818.069 809.504 817.93 842.502 818.098C846.257 818.117 847.09 817.198 847.088 813.485C846.99 551.493 846.99 289.502 847.089 27.5099C847.091 23.7835 846.237 22.8855 842.495 22.9043C809.497 23.0706 776.498 22.9663 743.499 23.0576C740.422 23.0662 738.823 22.9291 738.82 18.9963C738.817 15.0468 740.448 14.9458 743.508 14.9473C865.837 15.01 988.167 15.0008 1110.99 15.0008Z" fill="black"/>
<path d="M1980.79 428C1991.65 430.506 2001.1 434.773 2008.42 442.914C2016.02 451.368 2019.96 461.377 2021 472.613C2023.22 496.491 2021.42 520.425 2022 544.326C2022.02 545.158 2021.97 545.993 2022.01 546.824C2022.15 549.948 2021.06 551.863 2017.58 552.034C2013.62 552.229 2013.99 549.61 2013.99 547.058C2014.01 526.235 2014.32 505.405 2013.87 484.592C2013.63 473.632 2012.41 462.63 2005.7 453.164C1998.78 443.4 1989.64 437.828 1977.67 435.849C1963.05 433.43 1950.03 436.263 1938.22 444.991C1926.31 453.795 1919.18 465.361 1919.05 480.445C1918.86 501.933 1919 523.423 1919 544.913C1919 546.079 1919.16 547.276 1918.96 548.405C1918.47 551.113 1916.71 552.124 1913.99 552.034C1911.1 551.938 1910.98 550.141 1910.98 547.97C1911.01 532.645 1911 517.319 1911 501.993C1911 479.005 1911.06 456.016 1910.93 433.028C1910.91 430.099 1911.54 428.269 1914.62 428.02C1918.08 427.74 1918.78 430.499 1918.9 432.834C1919.2 438.315 1918.97 443.824 1919.03 449.321C1919.03 450.196 1918.46 451.484 1919.8 451.835C1920.95 452.137 1921.39 451.039 1921.96 450.248C1935.11 432.06 1953.51 425.86 1975.12 426.992C1976.92 427.087 1978.43 428.593 1980.79 428Z" fill="black"/>
<path d="M1781.1 540.009C1794.71 546.653 1808.33 547.426 1822.15 542.34C1839.43 535.988 1849.63 523.389 1853.71 505.634C1854.04 504.205 1853.99 502.671 1853.99 501.186C1854 479.199 1854 457.213 1854 435.226C1854 434.06 1853.87 432.875 1854.03 431.732C1854.38 429.293 1855.8 427.792 1858.36 428.043C1860.61 428.263 1862.07 429.146 1862.06 432.011C1861.97 470.654 1861.99 509.297 1862.03 547.94C1862.03 550.48 1861.55 551.953 1858.52 552.082C1855.28 552.22 1854.06 550.726 1854.02 547.868C1853.95 542.539 1854.04 537.208 1853.96 531.879C1853.95 530.897 1854.7 529.458 1852.94 529.028C1851.34 528.641 1851.23 529.965 1850.59 530.869C1841.88 543.101 1829.72 550.652 1815.23 552.62C1797.35 555.05 1779.77 552.779 1766.02 539.332C1757.63 531.118 1753.03 520.677 1751.98 508.788C1749.77 483.576 1751.63 458.317 1750.99 433.089C1750.91 430.2 1751.86 428.15 1755 428.036C1758.51 427.908 1759.07 430.056 1759.06 433.15C1758.95 455.302 1758.68 477.462 1759.12 499.606C1759.38 512.283 1762.71 524.277 1772.17 533.567C1774.69 536.038 1777.85 537.855 1781.1 540.009Z" fill="black"/>
<path d="M2189.4 543.167C2192.17 548.471 2191.34 549.992 2186.06 549.994C2150.08 550.009 2114.09 549.919 2078.1 550.107C2073.61 550.13 2072.93 548.454 2072.93 544.556C2073.03 486.578 2073 428.601 2073.01 370.623C2073.01 367.863 2072.22 364.811 2076.92 364.921C2081.66 365.032 2080.97 368.27 2080.97 371.071C2081.01 426.05 2081 481.029 2081 536.007C2081 543.002 2081 543.001 2088.01 543.002C2121.67 543.008 2155.32 543.016 2189.4 543.167Z" fill="black"/>
<path d="M2241 460.998C2241 489.818 2241 518.137 2241.01 546.456C2241.01 549.287 2241.63 552.221 2237 552.084C2232.65 551.954 2233.01 549.12 2233.01 546.353C2232.99 511.537 2232.91 476.72 2233.12 441.906C2233.14 437.572 2231.9 436.709 2227.89 436.902C2220.75 437.245 2213.57 436.982 2206.41 437.008C2204.16 437.016 2202.09 437.157 2201.94 433.881C2201.79 430.553 2203.83 430.045 2206.27 430.024C2214.1 429.957 2221.93 429.887 2229.75 430.061C2232.4 430.12 2233.09 429.333 2233.06 426.733C2232.92 414.907 2233.04 403.079 2232.97 391.252C2232.95 388.403 2233.72 386.411 2236.84 385.998C2240.24 385.548 2241.09 387.233 2241.05 390.361C2240.92 402.021 2241.21 413.688 2240.89 425.34C2240.77 429.466 2242.16 430.185 2245.86 430.081C2254.84 429.827 2263.84 430.003 2272.84 429.995C2274.97 429.993 2277.34 429.993 2277.91 432.503C2278.58 435.42 2277.53 437.124 2273.98 437.06C2264.16 436.882 2254.33 437.105 2244.5 436.932C2241.67 436.882 2240.85 437.686 2240.94 440.51C2241.14 447.167 2241 453.835 2241 460.998Z" fill="black"/>
<path fill-rule="evenodd" clip-rule="evenodd" d="M2410.99 545.845C2410.96 548.047 2410.93 550.257 2413.23 551.975C2417.76 552.621 2419.1 551.083 2419.09 546.787C2418.96 487.959 2418.99 429.131 2419.03 370.303L2419.03 370.046C2419.03 367.102 2419.04 364.792 2414.76 364.886C2410.89 364.97 2410.94 367.1 2410.99 369.468C2410.99 369.734 2411 370.003 2411 370.273C2411 397.438 2411 424.602 2411 451.766V456.801C2410.63 456.828 2410.38 456.859 2410.2 456.88C2409.94 456.91 2409.84 456.922 2409.8 456.879C2409.5 456.558 2409.22 456.209 2408.97 455.84C2404.07 448.435 2398.42 441.788 2390.8 436.961C2376.73 428.05 2361.6 425.301 2345.17 427.924C2327.8 430.699 2314.08 439.085 2303.99 453.363C2292.89 469.072 2290.62 486.816 2294.21 505.084C2297.74 523.045 2308.52 536.758 2324.22 545.815C2337.02 553.205 2351.59 554.39 2366.04 552.795C2373.41 551.982 2380.53 549.34 2387.25 545.521C2395.93 540.596 2402.32 533.647 2408.02 525.796C2408.12 525.657 2408.22 525.51 2408.32 525.363C2408.78 524.661 2409.24 523.959 2410.15 524.15C2411.23 524.373 2411.12 525.221 2411.03 525.997C2411 526.217 2410.97 526.431 2410.98 526.624C2411.01 531.694 2411.01 536.765 2411 541.835C2411 542.931 2411 544.027 2411 545.123C2411 545.363 2411 545.604 2410.99 545.845ZM2302.41 503.4C2306.9 523.592 2319.83 537.406 2340.46 543.783C2341.18 543.895 2341.9 544.009 2342.62 544.122C2349.87 545.264 2356.71 546.341 2364.03 545.205C2388.68 541.385 2408.44 522.321 2410.8 495.637C2412.5 476.369 2406.1 459.71 2390.6 446.972C2375.93 434.921 2358.94 431.774 2341.57 436.497C2309.65 445.174 2295.93 474.198 2302.41 503.4Z" fill="black"/>
</svg>
