<svg width="108" height="26" viewBox="0 0 108 26" fill="none" xmlns="http://www.w3.org/2000/svg">
<path d="M8.68553 19.5356C6.33195 19.5356 4.40159 18.7717 2.89447 17.244C1.38735 15.6956 0.633789 13.8684 0.633789 11.7626C0.633789 9.42966 1.39767 7.57157 2.92544 6.18832C4.45321 4.78442 6.3113 4.07215 8.49972 4.05151C10.3372 4.03086 11.8959 4.4541 13.1759 5.32121C14.456 6.16767 15.096 7.27221 15.096 8.63481C15.096 9.15095 14.9102 9.5845 14.5385 9.93548C14.1876 10.2864 13.6198 10.4516 12.8353 10.431C12.1333 10.3897 11.5243 10.111 11.0082 9.59482C10.5127 9.07869 10.1514 8.52126 9.92426 7.92254C9.69716 7.32382 9.38748 6.78704 8.99522 6.31219C8.60295 5.8167 8.15907 5.56895 7.66358 5.56895C7.02357 5.5896 6.49711 5.93025 6.0842 6.5909C5.69194 7.25156 5.4958 8.06706 5.4958 9.0374C5.4958 11.0607 5.95 12.6813 6.85841 13.8994C7.78745 15.1175 9.01586 15.7265 10.5436 15.7265C11.9269 15.7265 13.0727 15.1278 13.9811 13.9304C14.1876 13.6826 14.4353 13.6001 14.7243 13.6826C15.0134 13.7446 15.1579 13.9407 15.1579 14.271C15.1166 15.7162 14.5282 16.9549 13.3927 17.9872C12.2572 19.0195 10.6881 19.5356 8.68553 19.5356Z" fill="white"/>
<path d="M24.5871 19.5356C22.1922 19.5356 20.1586 18.8027 18.4863 17.3369C16.8347 15.8504 16.0089 13.9923 16.0089 11.7626C16.0089 9.53289 16.8347 7.69544 18.4863 6.25025C20.138 4.78442 22.0993 4.05151 24.3703 4.05151C26.7239 4.05151 28.7265 4.78442 30.3781 6.25025C32.0298 7.71608 32.8556 9.57418 32.8556 11.8245C32.8556 14.0543 32.0504 15.902 30.4401 17.3679C28.8297 18.813 26.8787 19.5356 24.5871 19.5356ZM25.2374 18.0182C26.5587 18.0182 27.2194 16.7485 27.2194 14.2091C27.2194 13.28 27.0852 12.1755 26.8168 10.8955C26.5691 9.61547 26.1355 8.40771 25.5161 7.27221C24.9174 6.1367 24.2464 5.56895 23.5032 5.56895C22.7806 5.56895 22.2645 5.88896 21.9548 6.52897C21.6451 7.16898 21.4903 8.13932 21.4903 9.43998C21.4903 10.1213 21.5728 10.9265 21.738 11.8555C21.9032 12.7846 22.1303 13.7239 22.4193 14.6736C22.7083 15.6027 23.1006 16.3975 23.5961 17.0582C24.1122 17.6982 24.6593 18.0182 25.2374 18.0182Z" fill="white"/>
<path d="M40.1857 19.5356C38.6167 19.5356 37.3779 19.0401 36.4695 18.0492C35.5818 17.0582 35.1379 15.644 35.1379 13.8065V6.46703H33.9611C33.7547 6.46703 33.5792 6.40509 33.4346 6.28122C33.3108 6.1367 33.2488 5.96122 33.2488 5.75476V5.07346C33.2488 4.59861 33.4863 4.36119 33.9611 4.36119H34.5495C35.4992 4.36119 36.3147 4.08248 36.996 3.52505C37.6773 2.94697 38.1212 2.18309 38.3276 1.2334C38.4309 0.696614 38.7096 0.428223 39.1638 0.428223H39.876C40.4335 0.428223 40.7122 0.696614 40.7122 1.2334V4.36119H43.9019C44.1084 4.36119 44.2735 4.43345 44.3974 4.57797C44.5419 4.70184 44.6142 4.86701 44.6142 5.07346V5.75476C44.6142 5.96122 44.5419 6.1367 44.3974 6.28122C44.2735 6.40509 44.1084 6.46703 43.9019 6.46703H40.7122V13.8994C40.7122 14.4155 40.8464 14.8285 41.1148 15.1381C41.3832 15.4272 41.7135 15.5717 42.1058 15.5717C42.9935 15.5717 43.6748 15.1898 44.1497 14.4259C44.2942 14.2401 44.4593 14.1368 44.6452 14.1162C44.831 14.0749 44.9858 14.1059 45.1097 14.2091C45.2542 14.3123 45.3265 14.4568 45.3265 14.6426C45.3265 15.9433 44.8619 17.0891 43.9329 18.0801C43.0245 19.0505 41.7754 19.5356 40.1857 19.5356Z" fill="white"/>
<path d="M52.2629 19.5356C50.6939 19.5356 49.4552 19.0401 48.5467 18.0492C47.659 17.0582 47.2151 15.644 47.2151 13.8065V6.46703H46.0383C45.8319 6.46703 45.6564 6.40509 45.5119 6.28122C45.388 6.1367 45.3261 5.96122 45.3261 5.75476V5.07346C45.3261 4.59861 45.5635 4.36119 46.0383 4.36119H46.6267C47.5764 4.36119 48.3919 4.08248 49.0732 3.52505C49.7545 2.94697 50.1984 2.18309 50.4048 1.2334C50.5081 0.696614 50.7868 0.428223 51.241 0.428223H51.9533C52.5107 0.428223 52.7894 0.696614 52.7894 1.2334V4.36119H55.9791C56.1856 4.36119 56.3507 4.43345 56.4746 4.57797C56.6191 4.70184 56.6914 4.86701 56.6914 5.07346V5.75476C56.6914 5.96122 56.6191 6.1367 56.4746 6.28122C56.3507 6.40509 56.1856 6.46703 55.9791 6.46703H52.7894V13.8994C52.7894 14.4155 52.9236 14.8285 53.192 15.1381C53.4604 15.4272 53.7907 15.5717 54.183 15.5717C55.0707 15.5717 55.752 15.1898 56.2269 14.4259C56.3714 14.2401 56.5366 14.1368 56.7224 14.1162C56.9082 14.0749 57.063 14.1059 57.1869 14.2091C57.3314 14.3123 57.4037 14.4568 57.4037 14.6426C57.4037 15.9433 56.9391 17.0891 56.0101 18.0801C55.1017 19.0505 53.8526 19.5356 52.2629 19.5356Z" fill="white"/>
<path d="M74.8103 5.8167C74.8103 5.98186 74.6968 6.17799 74.4697 6.40509C74.2426 6.6322 74.0155 6.93155 73.7884 7.30317C73.5613 7.67479 73.4477 8.10835 73.4477 8.60384V15.8504C73.4477 16.3665 73.6542 16.8827 74.0671 17.3988C74.48 17.8943 74.6864 18.2659 74.6864 18.5137V18.6376C74.6864 19.0298 74.4593 19.2259 74.0051 19.2259H69.5767C69.3496 19.2259 69.1535 19.1537 68.9883 19.0092C68.8438 18.8647 68.7715 18.6788 68.7715 18.4517V18.173C67.8218 19.0814 66.5624 19.5356 64.9934 19.5356C62.9908 19.5356 61.2669 18.8543 59.8217 17.4917C58.3971 16.1085 57.6849 14.2091 57.6849 11.7936C57.6849 9.54321 58.4075 7.69544 59.8527 6.25025C61.2978 4.78442 63.0217 4.05151 65.0244 4.05151C66.5521 4.05151 67.8012 4.48506 68.7715 5.35218V5.16636C68.7715 4.83604 68.9057 4.58829 69.1741 4.42313C69.4425 4.25796 69.8038 4.20635 70.258 4.26829L74.0671 4.82571C74.5626 4.88765 74.8103 5.17669 74.8103 5.69283V5.8167ZM66.2321 18.0182C66.7895 18.0388 67.2541 17.8117 67.6257 17.3369C68.018 16.862 68.2141 16.222 68.2141 15.4169V9.43998C68.2141 8.32513 67.9354 7.4064 67.3779 6.68381C66.8205 5.94057 66.1702 5.56895 65.4269 5.56895C63.8992 5.56895 63.0837 6.83865 62.9804 9.37805C62.9392 10.3484 63.0217 11.4736 63.2282 12.7536C63.4553 14.0336 63.8269 15.231 64.3431 16.3459C64.8798 17.4401 65.5095 17.9975 66.2321 18.0182Z" fill="white"/>
<path d="M92.3454 4.82571C92.8409 4.88765 93.0887 5.17669 93.0887 5.69283V5.8167C93.0887 5.98186 92.9751 6.17799 92.748 6.40509C92.5209 6.6322 92.2938 6.93155 92.0667 7.30317C91.8396 7.67479 91.7261 8.10835 91.7261 8.60384V17.244C91.7261 19.866 90.9932 21.8789 89.5273 23.2828C88.0615 24.7073 86.2137 25.4196 83.984 25.4196C81.7337 25.4196 79.8859 25.017 78.4407 24.2118C77.0162 23.4273 76.3039 22.4466 76.3039 21.2699C76.3039 20.7331 76.4897 20.2582 76.8613 19.8453C77.2329 19.4324 77.7594 19.2259 78.4407 19.2259C78.9981 19.2259 79.473 19.3808 79.8652 19.6905C80.2782 20.0208 80.6085 20.4131 80.8562 20.8673C81.1246 21.3215 81.3827 21.7757 81.6304 22.2299C81.8988 22.7047 82.2291 23.097 82.6214 23.4067C83.0137 23.737 83.4782 23.9125 84.015 23.9331C84.7376 23.9538 85.326 23.5512 85.7802 22.7254C86.255 21.9202 86.4924 20.6402 86.4924 18.8853V18.2969C85.584 18.9163 84.5002 19.2259 83.2408 19.2259C81.2588 19.2259 79.5452 18.555 78.1001 17.213C76.6755 15.8711 75.9632 14.0646 75.9632 11.7936C75.9632 9.54321 76.6755 7.69544 78.1001 6.25025C79.5452 4.78442 81.2691 4.05151 83.2718 4.05151C84.7995 4.05151 86.0589 4.48506 87.0499 5.35218V5.16636C87.0499 4.83604 87.1841 4.58829 87.4525 4.42313C87.7209 4.25796 88.0821 4.20635 88.5363 4.26829L92.3454 4.82571ZM84.4795 17.7085C85.0369 17.7292 85.5118 17.5021 85.9041 17.0272C86.2963 16.5524 86.4924 15.9123 86.4924 15.1072V9.43998C86.4924 8.449 86.2034 7.56124 85.6253 6.77671C85.0473 5.97154 84.3969 5.56895 83.6743 5.56895C82.1672 5.56895 81.362 6.83865 81.2588 9.37805C81.2175 10.3071 81.3001 11.391 81.5066 12.6297C81.713 13.8684 82.0846 15.0246 82.6214 16.0982C83.1582 17.1511 83.7776 17.6879 84.4795 17.7085Z" fill="white"/>
<path d="M106.852 14.333C107.079 14.1059 107.327 14.0439 107.595 14.1472C107.884 14.2297 108.019 14.4362 107.998 14.7665C107.977 15.2414 107.833 15.7369 107.564 16.253C107.317 16.7691 106.955 17.2853 106.481 17.8014C106.006 18.2969 105.345 18.7098 104.499 19.0401C103.673 19.3705 102.733 19.5356 101.681 19.5356C99.3682 19.5356 97.4792 18.813 96.0133 17.3679C94.5681 15.9227 93.8456 14.0336 93.8456 11.7007C93.8456 9.4503 94.5888 7.62318 96.0753 6.21929C97.5617 4.79475 99.3785 4.07215 101.526 4.05151C103.363 4.03086 104.85 4.43345 105.985 5.25927C107.121 6.08509 107.688 7.1793 107.688 8.5419C107.688 9.61547 107.224 10.5652 106.295 11.391C105.386 12.2168 104.199 12.7433 102.733 12.9704C101.701 13.1562 100.669 13.2284 99.6366 13.1871C100.504 14.8594 101.804 15.6956 103.539 15.6956C105.066 15.6956 106.171 15.2414 106.852 14.333ZM100.875 5.69283C100.235 5.69283 99.7192 6.01283 99.3269 6.65284C98.9553 7.29285 98.7695 8.12899 98.7695 9.16127C98.7695 10.0077 98.8624 10.8026 99.0482 11.5458C99.6263 11.5665 100.142 11.5458 100.597 11.4839C102.001 11.2361 102.702 10.1213 102.702 8.13932C102.682 7.45802 102.496 6.87994 102.145 6.40509C101.815 5.93025 101.391 5.69283 100.875 5.69283Z" fill="white"/>
</svg>
