<?xml version="1.0" encoding="UTF-8"?>
<svg viewBox="0 0 197 52" version="1.1" xmlns="http://www.w3.org/2000/svg" xmlns:xlink="http://www.w3.org/1999/xlink">
    <title>logo-green</title>
    <g id="logo-green" stroke="none" stroke-width="1" fill="none" fill-rule="evenodd">
        <g id="Group-3" transform="translate(3.000000, -1.000000)">
            <path d="M65.4910803,40.4 C68.077747,40.4 70.1044136,39.7333333 71.5710803,38.4 C73.037747,37.0666667 73.797747,35.4666667 73.8510803,33.6 C73.8510803,33.1733333 73.6644136,32.9133333 73.2910803,32.82 C72.917747,32.7266667 72.597747,32.84 72.3310803,33.16 C71.157747,34.7066667 69.677747,35.48 67.8910803,35.48 C65.917747,35.48 64.337747,34.6933333 63.1510803,33.12 C61.9644136,31.5466667 61.3710803,29.4533333 61.3710803,26.84 C61.3710803,25.5866667 61.6310803,24.5333333 62.1510803,23.68 C62.6710803,22.8266667 63.3444136,22.3866667 64.1710803,22.36 C64.8110803,22.36 65.3844136,22.6733333 65.8910803,23.3 C66.397747,23.9266667 66.797747,24.6266667 67.0910803,25.4 C67.3844136,26.1733333 67.857747,26.8933333 68.5110803,27.56 C69.1644136,28.2266667 69.9444136,28.5866667 70.8510803,28.64 C71.8644136,28.6666667 72.6044136,28.4533333 73.0710803,28 C73.537747,27.5466667 73.7710803,26.9866667 73.7710803,26.32 C73.7710803,24.56 72.9444136,23.1266667 71.2910803,22.02 C69.637747,20.9133333 67.6244136,20.3733333 65.2510803,20.4 C62.4244136,20.4266667 60.0244136,21.34 58.0510803,23.14 C56.077747,24.94 55.0910803,27.3466667 55.0910803,30.36 C55.0910803,33.08 56.0644136,35.4333333 58.0110803,37.42 C59.957747,39.4066667 62.4510803,40.4 65.4910803,40.4 Z M86.037747,40.4 C88.997747,40.4 91.517747,39.46 93.597747,37.58 C95.677747,35.7 96.717747,33.32 96.717747,30.44 C96.717747,27.5333333 95.6510803,25.1333333 93.517747,23.24 C91.3844136,21.3466667 88.797747,20.4 85.757747,20.4 C82.8244136,20.4 80.2910803,21.34 78.157747,23.22 C76.0244136,25.1 74.957747,27.48 74.957747,30.36 C74.957747,33.24 76.0310803,35.6333333 78.177747,37.54 C80.3244136,39.4466667 82.9444136,40.4 86.037747,40.4 Z M86.877747,38.44 C86.1310803,38.44 85.4310803,38.02 84.777747,37.18 C84.1244136,36.34 83.6110803,35.3133333 83.237747,34.1 C82.8644136,32.8866667 82.5710803,31.68 82.357747,30.48 C82.1444136,29.28 82.037747,28.24 82.037747,27.36 C82.037747,25.68 82.237747,24.4266667 82.637747,23.6 C83.037747,22.7733333 83.7044136,22.36 84.637747,22.36 C85.597747,22.36 86.4710803,23.0933333 87.257747,24.56 C88.0444136,26.0266667 88.6044136,27.5866667 88.937747,29.24 C89.2710803,30.8933333 89.437747,32.32 89.437747,33.52 C89.437747,36.8 88.5844136,38.44 86.877747,38.44 Z M106.184414,40.4 C108.237747,40.4 109.857747,39.7666667 111.044414,38.5 C112.23108,37.2333333 112.824414,35.76 112.824414,34.08 C112.824414,33.84 112.737747,33.6533333 112.564414,33.52 C112.39108,33.3866667 112.184414,33.34 111.944414,33.38 C111.704414,33.42 111.49108,33.56 111.304414,33.8 C110.69108,34.7866667 109.81108,35.28 108.664414,35.28 C108.157747,35.28 107.73108,35.0866667 107.384414,34.7 C107.037747,34.3133333 106.864414,33.7866667 106.864414,33.12 L106.864414,33.12 L106.864414,23.52 L110.984414,23.52 C111.25108,23.52 111.47108,23.4333333 111.644414,23.26 C111.817747,23.0866667 111.904414,22.8666667 111.904414,22.6 L111.904414,22.6 L111.904414,21.72 C111.904414,21.4533333 111.817747,21.2333333 111.644414,21.06 C111.47108,20.8866667 111.25108,20.8 110.984414,20.8 L110.984414,20.8 L106.864414,20.8 L106.864414,16.76 C106.864414,16.0666667 106.504414,15.72 105.784414,15.72 L105.784414,15.72 L104.864414,15.72 C104.277747,15.72 103.917747,16.0666667 103.784414,16.76 C103.517747,17.9866667 102.944414,18.9666667 102.064414,19.7 C101.184414,20.4333333 100.13108,20.8 98.9044136,20.8 L98.9044136,20.8 L98.1444136,20.8 C97.5310803,20.8 97.2244136,21.1066667 97.2244136,21.72 L97.2244136,21.72 L97.2244136,22.6 C97.2244136,22.8666667 97.3110803,23.0866667 97.4844136,23.26 C97.657747,23.4333333 97.877747,23.52 98.1444136,23.52 L98.1444136,23.52 L99.6644136,23.52 L99.6644136,33 C99.6644136,35.3733333 100.244414,37.2 101.404414,38.48 C102.564414,39.76 104.157747,40.4 106.184414,40.4 Z M121.77108,40.4 C123.824414,40.4 125.444414,39.7666667 126.63108,38.5 C127.817747,37.2333333 128.41108,35.76 128.41108,34.08 C128.41108,33.84 128.324414,33.6533333 128.15108,33.52 C127.977747,33.3866667 127.77108,33.34 127.53108,33.38 C127.29108,33.42 127.077747,33.56 126.89108,33.8 C126.277747,34.7866667 125.397747,35.28 124.25108,35.28 C123.744414,35.28 123.317747,35.0866667 122.97108,34.7 C122.624414,34.3133333 122.45108,33.7866667 122.45108,33.12 L122.45108,33.12 L122.45108,23.52 L126.57108,23.52 C126.837747,23.52 127.057747,23.4333333 127.23108,23.26 C127.404414,23.0866667 127.49108,22.8666667 127.49108,22.6 L127.49108,22.6 L127.49108,21.72 C127.49108,21.4533333 127.404414,21.2333333 127.23108,21.06 C127.057747,20.8866667 126.837747,20.8 126.57108,20.8 L126.57108,20.8 L122.45108,20.8 L122.45108,16.76 C122.45108,16.0666667 122.09108,15.72 121.37108,15.72 L121.37108,15.72 L120.45108,15.72 C119.864414,15.72 119.504414,16.0666667 119.37108,16.76 C119.104414,17.9866667 118.53108,18.9666667 117.65108,19.7 C116.77108,20.4333333 115.717747,20.8 114.49108,20.8 L114.49108,20.8 L113.73108,20.8 C113.117747,20.8 112.81108,21.1066667 112.81108,21.72 L112.81108,21.72 L112.81108,22.6 C112.81108,22.8666667 112.897747,23.0866667 113.07108,23.26 C113.244414,23.4333333 113.464414,23.52 113.73108,23.52 L113.73108,23.52 L115.25108,23.52 L115.25108,33 C115.25108,35.3733333 115.83108,37.2 116.99108,38.48 C118.15108,39.76 119.744414,40.4 121.77108,40.4 Z M138.197747,40.4 C140.224414,40.4 141.85108,39.8133333 143.077747,38.64 L143.077747,38.64 L143.077747,39 C143.077747,39.2933333 143.177747,39.5333333 143.377747,39.72 C143.577747,39.9066667 143.824414,40 144.117747,40 L144.117747,40 L149.837747,40 C150.424414,40 150.717747,39.7466667 150.717747,39.24 L150.717747,39.24 L150.717747,39.08 C150.717747,38.76 150.45108,38.2733333 149.917747,37.62 C149.384414,36.9666667 149.117747,36.3066667 149.117747,35.64 L149.117747,35.64 L149.117747,26.28 C149.117747,25.64 149.264414,25.08 149.557747,24.6 C149.85108,24.12 150.144414,23.7333333 150.437747,23.44 C150.73108,23.1466667 150.877747,22.8933333 150.877747,22.68 L150.877747,22.68 L150.877747,22.52 C150.877747,21.8533333 150.557747,21.48 149.917747,21.4 L149.917747,21.4 L144.997747,20.68 C144.41108,20.6 143.944414,20.6666667 143.597747,20.88 C143.25108,21.0933333 143.077747,21.4133333 143.077747,21.84 L143.077747,21.84 L143.077747,22.08 C141.824414,20.96 140.21108,20.4 138.237747,20.4 C135.65108,20.4 133.424414,21.34 131.557747,23.22 C129.69108,25.1 128.757747,27.4933333 128.757747,30.4 C128.757747,33.52 129.684414,35.9666667 131.537747,37.74 C133.39108,39.5133333 135.61108,40.4 138.197747,40.4 Z M139.975386,38.44 L139.797747,38.44 C138.864414,38.4133333 138.057747,37.6866667 137.377747,36.26 C136.697747,34.8333333 136.217747,33.2933333 135.937747,31.64 C135.657747,29.9866667 135.544414,28.5333333 135.597747,27.28 C135.73108,24 136.784414,22.36 138.757747,22.36 C139.717747,22.36 140.557747,22.8333333 141.277747,23.78 C141.997747,24.7266667 142.357747,25.92 142.357747,27.36 L142.357747,27.36 L142.357747,35.08 C142.357747,36.12 142.11108,36.9466667 141.617747,37.56 C141.124414,38.1733333 140.517747,38.4666667 139.797747,38.44 L139.975386,38.44 Z M162.744414,48 C165.624414,48 168.01108,47.0866667 169.904414,45.26 C171.797747,43.4333333 172.744414,40.8266667 172.744414,37.44 L172.744414,37.44 L172.744414,26.28 C172.744414,25.64 172.89108,25.08 173.184414,24.6 C173.477747,24.12 173.77108,23.7333333 174.064414,23.44 C174.357747,23.1466667 174.504414,22.8933333 174.504414,22.68 L174.504414,22.68 L174.504414,22.52 C174.504414,21.8533333 174.184414,21.48 173.544414,21.4 L173.544414,21.4 L168.624414,20.68 C168.037747,20.6 167.57108,20.6666667 167.224414,20.88 C166.877747,21.0933333 166.704414,21.4133333 166.704414,21.84 L166.704414,21.84 L166.704414,22.08 C165.424414,20.96 163.797747,20.4 161.824414,20.4 C159.237747,20.4 157.017747,21.34 155.164414,23.22 C153.31108,25.1 152.384414,27.4933333 152.384414,30.4 C152.384414,33.3333333 153.31108,35.6666667 155.164414,37.4 C157.017747,39.1333333 159.224414,40 161.784414,40 C163.41108,40 164.81108,39.6 165.984414,38.8 L165.984414,38.8 L165.984414,39.56 C165.984414,41.8266667 165.684414,43.4866667 165.084414,44.54 C164.484414,45.5933333 163.717747,46.1066667 162.784414,46.08 C162.09108,46.0533333 161.49108,45.8333333 160.984414,45.42 C160.477747,45.0066667 160.057747,44.5 159.724414,43.9 C159.39108,43.3 159.057747,42.7066667 158.724414,42.12 C158.39108,41.5333333 157.964414,41.0333333 157.444414,40.62 C156.924414,40.2066667 156.304414,40 155.584414,40 C154.704414,40 154.024414,40.2666667 153.544414,40.8 C153.064414,41.3333333 152.824414,41.9466667 152.824414,42.64 C152.824414,44.16 153.75108,45.4333333 155.604414,46.46 C157.457747,47.4866667 159.837747,48 162.744414,48 Z M163.562191,38.04 L163.384414,38.04 C162.477747,38.0133333 161.677747,37.3133333 160.984414,35.94 C160.29108,34.5666667 159.81108,33.08 159.544414,31.48 C159.277747,29.88 159.17108,28.48 159.224414,27.28 C159.357747,24 160.397747,22.36 162.344414,22.36 C163.277747,22.36 164.117747,22.8733333 164.864414,23.9 C165.61108,24.9266667 165.984414,26.08 165.984414,27.36 L165.984414,27.36 L165.984414,34.68 C165.984414,35.72 165.73108,36.5466667 165.224414,37.16 C164.717747,37.7733333 164.104414,38.0666667 163.384414,38.04 L163.562191,38.04 Z M185.61108,40.4 C186.97108,40.4 188.19108,40.1866667 189.27108,39.76 C190.35108,39.3333333 191.197747,38.7933333 191.81108,38.14 C192.424414,37.4866667 192.897747,36.8266667 193.23108,36.16 C193.564414,35.4933333 193.744414,34.8533333 193.77108,34.24 C193.797747,33.8133333 193.63108,33.54 193.27108,33.42 C192.91108,33.3 192.584414,33.3866667 192.29108,33.68 C191.41108,34.8533333 189.984414,35.44 188.01108,35.44 C185.77108,35.44 184.09108,34.36 182.97108,32.2 C184.304414,32.2533333 185.637747,32.16 186.97108,31.92 C188.864414,31.6266667 190.404414,30.9466667 191.59108,29.88 C192.777747,28.8133333 193.37108,27.5866667 193.37108,26.2 C193.37108,24.44 192.637747,23.0266667 191.17108,21.96 C189.704414,20.8933333 187.784414,20.3733333 185.41108,20.4 C182.637747,20.4266667 180.29108,21.3533333 178.37108,23.18 C176.45108,25.0066667 175.49108,27.3733333 175.49108,30.28 C175.49108,33.2933333 176.43108,35.7333333 178.31108,37.6 C180.19108,39.4666667 182.624414,40.4 185.61108,40.4 Z M184.21108,30 C183.624414,30.08 182.957747,30.1066667 182.21108,30.08 C181.97108,29.12 181.85108,28.0933333 181.85108,27 C181.85108,25.6666667 182.097747,24.5866667 182.59108,23.76 C183.084414,22.9333333 183.744414,22.52 184.57108,22.52 C185.237747,22.52 185.79108,22.8266667 186.23108,23.44 C186.67108,24.0533333 186.904414,24.8 186.93108,25.68 C186.93108,28.24 186.024414,29.68 184.21108,30 Z" id="cottage" fill="#194D3E" fill-rule="nonzero"></path>
            <g id="Group-2" transform="translate(0.000000, 3.541515)" stroke="#194D3E">
                <path d="M23.2465231,38.4713739 C21.3431852,41.7299553 19.7746965,43.8527271 18.541057,44.8396894 C17.3074175,45.8266518 14.9864559,46.2822393 11.5781723,46.206452 C7.06505933,46.206452 3.11124297,43.183507 1.92798716,38.8282694 L0.33314809,19.0777952 C-9.1038288e-15,15.1704041 0.711095565,13.8469657 3.9653601,11.3838161 L16.6492659,2.02648185 C20.219063,-0.67549395 25.1497642,-0.67549395 28.7195614,2.02648185 L41.4034671,11.3838161 C44.6577317,13.8469657 46,14.2321156 45.6051475,18.3850943 L44.999027,26.4584847 L43.4408401,38.8282694 C42.2575843,43.183507 38.3037679,46.206452 33.7906549,46.206452 L32.6172044,46.206452" id="Path" stroke-width="5" stroke-linecap="round"></path>
                <g id="Group" transform="translate(9.184414, 12.458485)" fill="#194D3E">
                    <path d="M19.0381001,0.5 C19.5903848,0.5 20.0903848,0.723857625 20.4523137,1.08578644 C20.8142425,1.44771525 21.0381001,1.94771525 21.0381001,2.5 L21.0381001,2.5 L21.0381001,9 L17.5381001,9.5 L17.0381001,2.5 C17.0381001,1.94771525 17.2619577,1.44771525 17.6238865,1.08578644 C17.9858153,0.723857625 18.4858153,0.5 19.0381001,0.5 L19.0381001,0.5 Z" id="Rectangle"></path>
                    <path d="M7.03810009,0.5 C7.59038484,0.5 8.09038484,0.723857625 8.45231365,1.08578644 C8.81424247,1.44771525 9.03810009,1.94771525 9.03810009,2.5 L9.03810009,2.5 L9.03810009,9 L5.53810009,9.5 L5.03810009,2.5 C5.03810009,1.94771525 5.26195772,1.44771525 5.62388653,1.08578644 C5.98581534,0.723857625 6.48581534,0.5 7.03810009,0.5 Z" id="Rectangle-Copy"></path>
                    <path d="M3.20998008,13 L22.8968059,13 C23.7614996,13 24.5841425,13.3731025 25.1537922,14.0236364 L25.158574,14.0290973 C25.8005031,14.7621692 26.0464075,15.7613444 25.8180241,16.708608 C25.2395176,19.1080734 24.12207,21.152198 22.4656813,22.8409817 C20.4552803,24.8907013 18.0984204,26.3405188 15.3951017,27.190434 L10.7872906,27.190434 C7.74991576,26.3373472 5.23355902,24.8875298 3.23822036,22.8409817 C1.53888075,21.0980293 0.531707619,18.9731005 0.21670095,16.4661954 C0.114518416,15.6531112 0.349408236,14.833621 0.866785705,14.1981151 L0.97864435,14.0607168 C1.52504626,13.3895596 2.34452815,13 3.20998008,13 Z" id="Path"></path>
                </g>
            </g>
        </g>
    </g>
</svg>