<svg viewBox="0 0 51 52" fill="none" xmlns="http://www.w3.org/2000/svg">
<path fill-rule="evenodd" clip-rule="evenodd" d="M29.4526 6.51986C26.7752 4.49338 23.0772 4.49338 20.3999 6.51986L20.3876 6.52914L7.7039 15.8863C6.11945 17.0867 5.56148 17.7273 5.29812 18.2741C5.05488 18.7791 4.90933 19.5289 5.06591 21.3654L5.06686 21.3766L6.6417 40.8797C7.59598 44.0346 10.5071 46.2065 13.82 46.2065H13.8478L13.8734 46.207L13.8749 46.2071L13.8783 46.2071L13.9089 46.2076C13.9382 46.2079 13.9849 46.2084 14.047 46.2084C14.1714 46.2086 14.3565 46.2075 14.5864 46.2018C15.0494 46.1905 15.6778 46.1613 16.3494 46.0916C17.0299 46.021 17.7016 45.9141 18.2691 45.7625C18.8816 45.5989 19.157 45.4388 19.2211 45.3876C19.8002 44.9242 20.7788 43.6586 21.7542 42.2064C22.2036 41.5373 22.6002 40.9089 22.8848 40.4469C23.0268 40.2166 23.1398 40.0292 23.2166 39.9009C23.255 39.8368 23.2842 39.7875 23.3033 39.7551L23.3244 39.7193L23.329 39.7114L23.3296 39.7105C24.026 38.5182 25.557 38.1163 26.7492 38.8126C27.9415 39.509 28.3434 41.0401 27.647 42.2323L25.4883 40.9714C27.647 42.2323 27.647 42.2323 27.647 42.2323L27.6435 42.2384L27.6358 42.2516L27.6083 42.2982C27.5847 42.3381 27.5508 42.3953 27.5075 42.4677C27.4209 42.6124 27.2964 42.8186 27.1418 43.0696C26.8333 43.5703 26.4005 44.2564 25.9048 44.9943C24.9901 46.3562 23.616 48.2747 22.3446 49.2918C21.4835 49.9808 20.4259 50.3617 19.5594 50.5931C18.6479 50.8366 17.6945 50.9789 16.8655 51.0649C16.0278 51.1518 15.2625 51.1867 14.709 51.2003C14.4307 51.2072 14.2019 51.2087 14.0395 51.2084C13.9582 51.2083 13.8932 51.2078 13.8468 51.2072L13.7963 51.2064C8.16474 51.1959 3.23424 47.4201 1.75724 41.9837L1.69653 41.7603L0.083985 21.7902L0.0834981 21.7845C-0.0925039 19.7158 -0.04838 17.8521 0.793424 16.1044C1.61523 14.3982 3.03778 13.1473 4.69837 11.8904L4.71063 11.8812L17.3952 2.52334C21.8521 -0.841103 28.0003 -0.841112 32.4572 2.52331L45.1418 11.8812L45.154 11.8904C45.4504 12.1147 45.8002 12.3717 46.144 12.6242C46.5609 12.9303 46.9688 13.2299 47.2616 13.4568C47.8906 13.9443 48.5636 14.5167 49.114 15.2501C50.3509 16.898 50.5556 18.78 50.3381 21.0962L49.7291 29.2085L48.1411 41.8146L48.0952 41.9837C46.6161 47.4278 41.6738 51.2065 36.0325 51.2065H34.859C33.4783 51.2065 32.359 50.0872 32.359 48.7065C32.359 47.3257 33.4783 46.2065 34.859 46.2065H36.0325C39.3629 46.2065 42.2873 44.0115 43.2257 40.8295L44.7526 28.7085L45.3558 20.6732L45.3582 20.6485C45.5317 18.8234 45.2596 18.4441 45.1151 18.2515C44.9725 18.0615 44.7243 17.8162 44.1988 17.409C43.8843 17.1652 43.6082 16.9639 43.2859 16.7288C42.9753 16.5022 42.6216 16.2442 42.1489 15.8866L29.4648 6.52914L29.4526 6.51986Z" fill="#064D47"/>
<path d="M27.9643 17.4585C27.9643 16.0778 29.0836 14.9585 30.4643 14.9585C31.845 14.9585 32.9643 16.0778 32.9643 17.4585V24.8303C32.9643 24.9011 32.9069 24.9585 32.8361 24.9585H28.0925C28.0217 24.9585 27.9643 24.9011 27.9643 24.8303V17.4585Z" fill="#064D47"/>
<path fill-rule="evenodd" clip-rule="evenodd" d="M31.9643 23.9585V17.4585C31.9643 16.6301 31.2927 15.9585 30.4643 15.9585C29.6359 15.9585 28.9643 16.6301 28.9643 17.4585V23.9585H31.9643ZM30.4643 14.9585C29.0836 14.9585 27.9643 16.0778 27.9643 17.4585V24.8303C27.9643 24.9011 28.0217 24.9585 28.0925 24.9585H32.8361C32.9069 24.9585 32.9643 24.9011 32.9643 24.8303V17.4585C32.9643 16.0778 31.845 14.9585 30.4643 14.9585Z" fill="#064D47"/>
<path d="M15.9643 17.4585C15.9643 16.0778 17.0836 14.9585 18.4643 14.9585C19.845 14.9585 20.9643 16.0778 20.9643 17.4585V24.8303C20.9643 24.9011 20.9069 24.9585 20.8361 24.9585H16.0925C16.0217 24.9585 15.9643 24.9011 15.9643 24.8303V17.4585Z" fill="#064D47"/>
<path fill-rule="evenodd" clip-rule="evenodd" d="M19.9643 23.9585V17.4585C19.9643 16.6301 19.2927 15.9585 18.4643 15.9585C17.6359 15.9585 16.9643 16.6301 16.9643 17.4585V23.9585H19.9643ZM18.4643 14.9585C17.0836 14.9585 15.9643 16.0778 15.9643 17.4585V24.8303C15.9643 24.9011 16.0217 24.9585 16.0925 24.9585H20.8361C20.9069 24.9585 20.9643 24.9011 20.9643 24.8303V17.4585C20.9643 16.0778 19.845 14.9585 18.4643 14.9585Z" fill="#064D47"/>
<path fill-rule="evenodd" clip-rule="evenodd" d="M12.368 29.0644C12.9377 28.3647 13.7922 27.9585 14.6945 27.9585H34.323C35.1877 27.9585 36.0104 28.3316 36.58 28.9821L36.6411 29.0519C37.213 29.705 37.4773 30.5745 37.2609 31.4151C36.8474 33.0215 35.8952 35.757 33.8919 37.7995C30.8763 40.874 26.8213 42.1489 26.8213 42.1489H22.2135C22.2135 42.1489 17.6574 40.8693 14.6644 37.7995C12.5779 35.6593 11.8827 32.7514 11.653 31.1863C11.5486 30.4751 11.791 29.7733 12.2448 29.2158L12.368 29.0644Z" fill="#064D47"/>
<path fill-rule="evenodd" clip-rule="evenodd" d="M11.9803 28.7488C12.6449 27.9324 13.6418 27.4585 14.6945 27.4585H34.323C35.3318 27.4585 36.2916 27.8938 36.9562 28.6527L37.0173 28.7225C37.6808 29.4803 38.0088 30.5156 37.7451 31.5398C37.3236 33.1772 36.3435 36.014 34.2489 38.1496C32.6898 39.7391 30.8709 40.8557 29.4513 41.5734C28.7397 41.9331 28.124 42.1948 27.6846 42.3672C27.4648 42.4534 27.2888 42.5173 27.1666 42.5601C27.1055 42.5814 27.0579 42.5975 27.0249 42.6085L26.9866 42.621L26.976 42.6244L26.9729 42.6254L26.9719 42.6257C26.9719 42.6257 26.9713 42.6259 26.8213 42.1489L26.9719 42.6257L26.8981 42.6489H22.1446L22.0783 42.6303L22.2135 42.1489C22.0783 42.6303 22.0783 42.6303 22.0783 42.6303L22.0766 42.6298L22.0733 42.6289L22.0617 42.6255L22.0193 42.6131C21.9828 42.6023 21.9298 42.5863 21.862 42.5649C21.7263 42.5223 21.5309 42.4584 21.2878 42.3723C20.802 42.2001 20.124 41.9384 19.3505 41.5788C17.8096 40.8622 15.8621 39.7441 14.3064 38.1485C12.1092 35.8948 11.3931 32.859 11.1583 31.2589C11.0302 30.3856 11.3308 29.5465 11.8571 28.9001L11.9803 28.7488ZM22.2853 41.6489H26.7411C26.7664 41.6404 26.7982 41.6295 26.8363 41.6162C26.9477 41.5772 27.112 41.5175 27.3195 41.4362C27.7346 41.2734 28.3211 41.0243 29.0002 40.6809C30.362 39.9925 32.0783 38.9344 33.5349 37.4494C35.4469 35.5 36.3711 32.8658 36.7767 31.2905C36.9459 30.6333 36.7451 29.9296 36.2649 29.3813L36.2038 29.3115C35.7291 28.7694 35.0436 28.4585 34.323 28.4585H14.6945C13.9426 28.4585 13.2305 28.797 12.7558 29.3801L12.6326 29.5315C12.2511 30 12.0671 30.5645 12.1477 31.1137C12.3723 32.6437 13.0466 35.4239 15.0224 37.4504C16.4598 38.9247 18.2868 39.9813 19.7722 40.672C20.5119 41.016 21.1599 41.266 21.6219 41.4297C21.8527 41.5115 22.0366 41.5716 22.1618 41.6109C22.2131 41.6271 22.2546 41.6397 22.2853 41.6489Z" fill="#064D47"/>
</svg>
