<svg width="100%" height="100%" viewBox="0 0 51 52" fill="none" xmlns="http://www.w3.org/2000/svg">
<path d="M28.1466 42.7323C28.843 41.5401 28.441 40.009 27.2488 39.3126C26.0565 38.6163 24.5255 39.0182 23.8291 40.2105L28.1466 42.7323ZM14.3195 49.2065L14.3751 46.7071L14.3473 46.7065H14.3195V49.2065ZM4.66932 41.8283L2.17743 42.0295L2.19607 42.2603L2.25678 42.4837L4.66932 41.8283ZM3.07448 22.0778L5.5664 21.8766L5.56545 21.8654L3.07448 22.0778ZM6.7067 14.3838L5.22254 12.372L5.21017 12.3812L5.19791 12.3904L6.7067 14.3838ZM19.3906 5.02648L20.8748 7.03827L20.8871 7.02914L20.8994 7.01986L19.3906 5.02648ZM31.4609 5.02648L29.9521 7.01986L29.9644 7.02914L29.9767 7.03827L31.4609 5.02648ZM44.1448 14.3838L45.6536 12.3904L45.6413 12.3812L45.629 12.372L44.1448 14.3838ZM48.3465 21.3851L45.8577 21.1485L45.8554 21.1732L45.8535 21.1979L48.3465 21.3851ZM47.7404 29.4585L50.2208 29.7709L50.2286 29.7085L50.2333 29.6456L47.7404 29.4585ZM46.1822 41.8283L48.5947 42.4837L48.6407 42.3146L48.6626 42.1407L46.1822 41.8283ZM35.3585 46.7065C33.9778 46.7065 32.8585 47.8257 32.8585 49.2065C32.8585 50.5872 33.9778 51.7065 35.3585 51.7065V46.7065ZM25.9879 41.4714C23.8291 40.2105 23.8292 40.2103 23.8293 40.2102C23.8293 40.2102 23.8294 40.2101 23.8294 40.21C23.8294 40.21 23.8294 40.21 23.8294 40.2101C23.8293 40.2102 23.829 40.2107 23.8286 40.2114C23.8277 40.2129 23.8261 40.2156 23.8239 40.2193C23.8195 40.2268 23.8125 40.2388 23.8029 40.2551C23.7837 40.2875 23.7545 40.3368 23.7161 40.4009C23.6394 40.5292 23.5263 40.7166 23.3844 40.9469C23.0997 41.4089 22.7031 42.0373 22.2537 42.7064C21.2784 44.1586 20.2998 45.4242 19.7206 45.8876L22.8442 49.7918C24.1155 48.7747 25.4896 46.8562 26.4044 45.4943C26.9 44.7564 27.3328 44.0703 27.6413 43.5696C27.796 43.3186 27.9204 43.1124 28.007 42.9677C28.0503 42.8953 28.0842 42.8381 28.1078 42.7982C28.1196 42.7783 28.1288 42.7626 28.1353 42.7516C28.1385 42.746 28.1411 42.7416 28.143 42.7384C28.144 42.7368 28.1447 42.7355 28.1453 42.7345C28.1456 42.7339 28.1459 42.7335 28.1461 42.7331C28.1462 42.733 28.1463 42.7327 28.1464 42.7327C28.1465 42.7325 28.1466 42.7323 25.9879 41.4714ZM19.7206 45.8876C19.6565 45.9388 19.3811 46.0989 18.7686 46.2625C18.2011 46.4141 17.5294 46.521 16.849 46.5916C16.1773 46.6613 15.5489 46.6905 15.0859 46.7018C14.856 46.7075 14.671 46.7086 14.5466 46.7084C14.4845 46.7084 14.4378 46.7079 14.4085 46.7076C14.3938 46.7074 14.3835 46.7072 14.3779 46.7071C14.3751 46.7071 14.3734 46.707 14.3729 46.707C14.3727 46.707 14.3727 46.707 14.3731 46.707C14.3733 46.707 14.3735 46.707 14.3739 46.707C14.374 46.707 14.3743 46.7071 14.3744 46.7071C14.3747 46.7071 14.3751 46.7071 14.3195 49.2065C14.2639 51.7058 14.2643 51.7058 14.2647 51.7059C14.2649 51.7059 14.2653 51.7059 14.2656 51.7059C14.2663 51.7059 14.267 51.7059 14.2678 51.7059C14.2694 51.706 14.2713 51.706 14.2735 51.706C14.278 51.7061 14.2837 51.7062 14.2906 51.7064C14.3044 51.7066 14.323 51.7069 14.3463 51.7072C14.3928 51.7078 14.4577 51.7083 14.539 51.7084C14.7014 51.7087 14.9302 51.7072 15.2086 51.7003C15.762 51.6867 16.5274 51.6518 17.3651 51.5649C18.194 51.4789 19.1474 51.3366 20.0589 51.0931C20.9255 50.8617 21.9831 50.4808 22.8442 49.7918L19.7206 45.8876ZM14.3195 46.7065C10.9347 46.7065 7.96931 44.4392 7.08187 41.1728L2.25678 42.4837C3.73585 47.9278 8.67812 51.7065 14.3195 51.7065V46.7065ZM7.16121 41.6271L5.56637 21.8766L0.582596 22.279L2.17743 42.0295L7.16121 41.6271ZM5.56545 21.8654C5.40887 20.0289 5.55441 19.2791 5.79766 18.7741C6.06169 18.2259 6.62181 17.5834 8.21548 16.3772L5.19791 12.3904C3.53732 13.6473 2.11476 14.8982 1.29296 16.6044C0.450382 18.3537 0.406953 20.2192 0.583523 22.2902L5.56545 21.8654ZM8.19086 16.3956L20.8748 7.03827L17.9064 3.0147L5.22254 12.372L8.19086 16.3956ZM20.8994 7.01986C23.5767 4.99338 27.2748 4.99338 29.9521 7.01986L32.9697 3.0331C28.5074 -0.344368 22.3441 -0.344368 17.8818 3.0331L20.8994 7.01986ZM29.9767 7.03827L42.6606 16.3956L45.629 12.372L32.9451 3.0147L29.9767 7.03827ZM42.636 16.3772C43.6075 17.1125 44.0779 17.4282 44.6984 17.909C45.2239 18.3162 45.472 18.5615 45.6146 18.7515C45.7592 18.9441 46.0312 19.3234 45.8577 21.1485L50.8353 21.6217C51.0566 19.2938 50.8549 17.404 49.6135 15.7501C49.0631 15.0167 48.3902 14.4443 47.7611 13.9568C47.2269 13.5429 46.3092 12.8867 45.6536 12.3904L42.636 16.3772ZM45.8535 21.1979L45.2474 29.2713L50.2333 29.6456L50.8395 21.5723L45.8535 21.1979ZM45.26 29.146L43.7018 41.5158L48.6626 42.1407L50.2208 29.7709L45.26 29.146ZM43.7696 41.1728C42.8822 44.4392 39.9168 46.7065 36.532 46.7065V51.7065C42.1734 51.7065 47.1157 47.9278 48.5947 42.4837L43.7696 41.1728ZM36.532 46.7065H35.3585V51.7065H36.532V46.7065Z" fill="white"/>
<path d="M28.9648 17.959C28.9648 16.8544 29.8603 15.959 30.9648 15.959C32.0694 15.959 32.9648 16.8544 32.9648 17.959V24.959H28.9648V17.959Z" fill="white" stroke="white"/>
<path d="M16.9648 17.959C16.9648 16.8544 17.8603 15.959 18.9648 15.959C20.0694 15.959 20.9648 16.8544 20.9648 17.959V24.959H16.9648V17.959Z" fill="white" stroke="white"/>
<path fill-rule="evenodd" clip-rule="evenodd" d="M12.8677 29.5649C13.4374 28.8652 14.2919 28.459 15.1942 28.459H34.8227C35.6874 28.459 36.5101 28.8321 37.0797 29.4826L37.1408 29.5524C37.7127 30.2055 37.977 31.075 37.7606 31.9156C37.3471 33.522 36.3949 36.2575 34.3916 38.3C31.376 41.3745 27.321 42.6494 27.321 42.6494H22.7132C22.7132 42.6494 18.1571 41.3698 15.1641 38.3C13.0776 36.1599 12.3824 33.2519 12.1527 31.6868C12.0484 30.9756 12.2907 30.2738 12.7445 29.7163L12.8677 29.5649Z" fill="white"/>
<path d="M27.321 42.6494V43.1494H27.3978L27.471 43.1264L27.321 42.6494ZM22.7132 42.6494L22.578 43.1308L22.6443 43.1494H22.7132V42.6494ZM12.7445 29.7163L13.1323 30.032L12.7445 29.7163ZM37.7606 31.9156L37.2764 31.791L37.7606 31.9156ZM37.0797 29.4826L36.7036 29.812L37.0797 29.4826ZM15.1942 28.959H34.8227V27.959H15.1942V28.959ZM36.7036 29.812L36.7646 29.8818L37.517 29.223L37.4559 29.1532L36.7036 29.812ZM37.2764 31.791C36.8709 33.3663 35.9466 36.0005 34.0346 37.9499L34.7486 38.6501C36.8432 36.5145 37.8233 33.6777 38.2448 32.0403L37.2764 31.791ZM34.0346 37.9499C32.578 39.4349 30.8617 40.493 29.4999 41.1814C28.8208 41.5247 28.2343 41.7739 27.8192 41.9367C27.6117 42.0181 27.4474 42.0777 27.336 42.1167C27.2803 42.1362 27.2379 42.1505 27.21 42.1597C27.196 42.1644 27.1857 42.1677 27.1792 42.1698C27.1759 42.1709 27.1736 42.1716 27.1722 42.1721C27.1715 42.1723 27.1711 42.1724 27.1709 42.1725C27.1708 42.1725 27.1708 42.1725 27.1708 42.1725C27.1708 42.1725 27.1709 42.1725 27.1709 42.1725C27.171 42.1725 27.1711 42.1724 27.321 42.6494C27.471 43.1264 27.4711 43.1264 27.4713 43.1263C27.4713 43.1263 27.4715 43.1262 27.4716 43.1262C27.4719 43.1261 27.4722 43.126 27.4726 43.1259C27.4734 43.1256 27.4744 43.1253 27.4757 43.1249C27.4783 43.1241 27.4818 43.1229 27.4863 43.1215C27.4953 43.1186 27.5081 43.1144 27.5246 43.109C27.5576 43.098 27.6052 43.0819 27.6663 43.0606C27.7885 43.0178 27.9645 42.9539 28.1843 42.8677C28.6237 42.6953 29.2395 42.4336 29.951 42.0739C31.3706 41.3562 33.1896 40.2396 34.7486 38.6501L34.0346 37.9499ZM27.321 42.1494H22.7132V43.1494H27.321V42.1494ZM22.7132 42.6494C22.8484 42.168 22.8485 42.1681 22.8486 42.1681C22.8486 42.1681 22.8486 42.1681 22.8486 42.1681C22.8486 42.1681 22.8486 42.1681 22.8484 42.1681C22.8482 42.168 22.8476 42.1678 22.8468 42.1676C22.8452 42.1671 22.8425 42.1664 22.8387 42.1653C22.8312 42.1631 22.8194 42.1597 22.8036 42.155C22.7719 42.1456 22.7241 42.1311 22.6615 42.1114C22.5363 42.0721 22.3524 42.012 22.1216 41.9302C21.6596 41.7665 21.0116 41.5165 20.2719 41.1725C18.7865 40.4818 16.9595 39.4252 15.5221 37.9509L14.8061 38.649C16.3618 40.2446 18.3093 41.3627 19.8502 42.0793C20.6237 42.4389 21.3017 42.7006 21.7876 42.8728C22.0306 42.9589 22.226 43.0228 22.3617 43.0654C22.4295 43.0868 22.4825 43.1028 22.519 43.1136C22.5373 43.1191 22.5515 43.1232 22.5614 43.126C22.5663 43.1275 22.5702 43.1286 22.573 43.1294C22.5744 43.1298 22.5755 43.1301 22.5763 43.1303C22.5767 43.1304 22.5771 43.1305 22.5774 43.1306C22.5775 43.1307 22.5777 43.1307 22.5777 43.1307C22.5779 43.1308 22.578 43.1308 22.7132 42.6494ZM15.5221 37.9509C13.5463 35.9244 12.872 33.1442 12.6474 31.6142L11.658 31.7594C11.8929 33.3595 12.6089 36.3954 14.8061 38.649L15.5221 37.9509ZM13.1323 30.032L13.2555 29.8806L12.48 29.2493L12.3568 29.4006L13.1323 30.032ZM12.6474 31.6142C12.5668 31.065 12.7508 30.5005 13.1323 30.032L12.3568 29.4006C11.8305 30.047 11.5299 30.8861 11.658 31.7594L12.6474 31.6142ZM36.7646 29.8818C37.2448 30.4301 37.4456 31.1338 37.2764 31.791L38.2448 32.0403C38.5085 31.0161 38.1805 29.9808 37.517 29.223L36.7646 29.8818ZM34.8227 28.959C35.5433 28.959 36.2288 29.2699 36.7036 29.812L37.4559 29.1532C36.7913 28.3943 35.8315 27.959 34.8227 27.959V28.959ZM15.1942 27.959C14.1415 27.959 13.1446 28.4329 12.48 29.2493L13.2555 29.8806C13.7302 29.2975 14.4423 28.959 15.1942 28.959V27.959Z" fill="white"/>
</svg>
