<svg width="100" height="100" viewBox="0 0 100 100" fill="none" xmlns="http://www.w3.org/2000/svg">
<path d="M15.625 50C15.625 26.1006 32.8453 7.04551 55.8594 4.25859C53.9441 4.02656 51.9891 3.90625 50 3.90625C24.1117 3.90625 3.90625 24.1117 3.90625 50C3.90625 75.8883 24.1117 96.0938 50 96.0938C51.9891 96.0938 53.9441 95.9734 55.8594 95.7414C32.8453 92.9545 15.625 73.8994 15.625 50Z" fill="#CEE1F2"/>
<path d="M50 100C21.9627 100 0 78.0373 0 50C0 21.9627 21.9627 0 50 0C78.0375 0 100 21.9627 100 50C100 78.0373 78.0375 100 50 100ZM50 7.8125C26.3434 7.8125 7.8125 26.3434 7.8125 50C7.8125 73.6566 26.3434 92.1875 50 92.1875C73.6564 92.1875 92.1875 73.6566 92.1875 50C92.1875 26.3434 73.6564 7.8125 50 7.8125Z" fill="#064D47"/>
<path d="M50 53.9062C39.2305 53.9062 30.4688 45.1445 30.4688 34.375C30.4688 23.6055 39.2305 14.8438 50 14.8438C60.7697 14.8438 69.5312 23.6055 69.5312 34.375C69.5312 45.1445 60.7697 53.9062 50 53.9062ZM50 22.6562C43.5383 22.6562 38.2812 27.9133 38.2812 34.375C38.2812 40.8367 43.5383 46.0938 50 46.0938C56.4617 46.0938 61.7188 40.8367 61.7188 34.375C61.7188 27.9133 56.4617 22.6562 50 22.6562Z" fill="#0D9E91"/>
<path d="M26.8051 76.0611C24.806 75.2498 23.8431 72.9716 24.6545 70.9726C26.6771 65.9888 30.0978 61.7412 34.5471 58.6889C39.1074 55.56 44.451 53.9062 50 53.9062C55.5489 53.9062 60.8926 55.56 65.453 58.6889C69.902 61.7412 73.3229 65.9888 75.3456 70.9726C76.1567 72.9716 75.194 75.2498 73.195 76.0611C71.1961 76.8728 68.9178 75.9095 68.1063 73.9107C65.1006 66.5043 57.9936 61.7187 50 61.7187C42.0065 61.7187 34.8992 66.5043 31.8935 73.9105C31.0801 75.9154 28.799 76.8699 26.8051 76.0611V76.0611Z" fill="#064D47"/>
</svg>
