<svg width="100%" height="100%" viewBox="0 0 40 40" fill="none" xmlns="http://www.w3.org/2000/svg">
<path d="M24.375 29.0625C24.375 24.6941 27.3627 21.0236 31.4062 19.9829C30.6571 19.7901 29.8718 19.6875 29.0625 19.6875C23.8848 19.6875 19.6875 23.8848 19.6875 29.0625C19.6875 34.2402 23.8848 38.4375 29.0625 38.4375C29.8718 38.4375 30.6571 38.3349 31.4062 38.1421C27.3627 37.1014 24.375 33.4309 24.375 29.0625Z" fill="#CEE1F2"/>
<path d="M32.1875 27.5H30.625V25.9375C30.625 25.0745 29.9255 24.375 29.0625 24.375C28.1995 24.375 27.5 25.0745 27.5 25.9375V27.5H25.9375C25.0745 27.5 24.375 28.1995 24.375 29.0625C24.375 29.9255 25.0745 30.625 25.9375 30.625H27.5V32.1875C27.5 33.0505 28.1995 33.75 29.0625 33.75C29.9255 33.75 30.625 33.0505 30.625 32.1875V30.625H32.1875C33.0505 30.625 33.75 29.9255 33.75 29.0625C33.75 28.1995 33.0505 27.5 32.1875 27.5Z" fill="#18A57B"/>
<path d="M5.9375 7.8125C5.9375 12.1203 9.44219 15.625 13.75 15.625C18.0578 15.625 21.5625 12.1203 21.5625 7.8125C21.5625 3.50469 18.0578 0 13.75 0C9.44219 0 5.9375 3.50469 5.9375 7.8125ZM18.4375 7.8125C18.4375 10.3972 16.3347 12.5 13.75 12.5C11.1653 12.5 9.0625 10.3972 9.0625 7.8125C9.0625 5.22781 11.1653 3.125 13.75 3.125C16.3347 3.125 18.4375 5.22781 18.4375 7.8125Z" fill="#194D3E"/>
<path d="M4.6875 33.75H13.7515C14.6145 33.75 15.314 33.0505 15.314 32.1875C15.314 31.3245 14.6145 30.625 13.7515 30.625H4.6875C3.82594 30.625 3.125 29.9241 3.125 29.0625C3.125 24.7547 6.62969 21.25 10.9375 21.25H16.5625C17.4255 21.25 18.125 20.5505 18.125 19.6875C18.125 18.8245 17.4255 18.125 16.5625 18.125H10.9375C4.90656 18.125 0 23.0316 0 29.0625C0 31.6472 2.10281 33.75 4.6875 33.75Z" fill="#194D3E"/>
<path d="M29.0625 18.125C23.0316 18.125 18.125 23.0316 18.125 29.0625C18.125 35.0934 23.0316 40 29.0625 40C35.0934 40 40 35.0934 40 29.0625C40 23.0316 35.0934 18.125 29.0625 18.125ZM29.0625 36.875C24.7547 36.875 21.25 33.3703 21.25 29.0625C21.25 24.7547 24.7547 21.25 29.0625 21.25C33.3703 21.25 36.875 24.7547 36.875 29.0625C36.875 33.3703 33.3703 36.875 29.0625 36.875Z" fill="#194D3E"/>
</svg>
