<svg width="512" height="512" viewBox="0 0 512 512" fill="none" xmlns="http://www.w3.org/2000/svg">
<g clip-path="url(#clip0_3106_6453)">
<path d="M177.646 63.8388L142.574 58.8745C124.117 56.2624 106.916 68.7681 103.695 87.1397L97.5754 122.051C95.7341 132.557 89.1503 141.624 79.7336 146.623L48.4444 163.235C31.9781 171.977 25.4084 192.212 33.5945 208.97L49.1502 240.813C53.8316 250.395 53.8316 261.603 49.1502 271.186L33.5945 303.029C25.4084 319.786 31.9791 340.021 48.4444 348.763L79.7336 365.376C89.1493 370.375 95.7331 379.443 97.5754 389.948L103.695 424.859C106.916 443.231 124.117 455.736 142.574 453.124L177.646 448.16C179.828 447.851 182.013 447.766 184.176 447.872L186.024 428.481C173.284 430.284 161.41 421.652 159.187 408.97L146.644 348.459C145.373 341.208 140.828 334.948 134.329 331.497L112.731 320.03C101.365 313.995 96.8297 300.028 102.481 288.461L113.218 266.481C116.449 259.866 116.449 252.13 113.218 245.515L102.481 223.535C96.8297 211.968 101.365 198 112.731 191.965L134.329 180.498C140.828 177.048 145.373 170.789 146.644 163.536L158.705 102.567C160.929 89.8858 172.801 81.2538 185.542 83.0571L187.897 63.7408C184.54 64.2766 181.089 64.3256 177.646 63.8388V63.8388Z" fill="#CEE1F2"/>
<path d="M256 512C242.35 512 228.701 506.853 218.066 496.557L192.607 471.913C189.358 468.766 184.929 467.325 180.447 467.958L145.376 472.922C142.747 473.294 140.134 473.475 137.557 473.475C111.409 473.476 88.6564 454.859 84.003 428.313L77.8832 393.402C77.1004 388.937 74.3584 385.159 70.3588 383.035L39.0696 366.424C12.9346 352.548 2.64017 320.848 15.6307 294.255L31.1863 262.412C33.1766 258.338 33.1766 253.664 31.1863 249.591L15.6307 217.747C2.64017 191.154 12.9356 159.454 39.0696 145.579L70.3598 128.966C74.3584 126.843 77.1014 123.065 77.8832 118.6L84.003 83.6889C89.1153 54.527 116.076 34.9328 145.376 39.0793L180.448 44.0436C184.925 44.6784 189.358 43.2359 192.607 40.089L218.066 15.4445C239.337 -5.14737 272.663 -5.14637 293.933 15.4445L319.391 40.089C322.642 43.2359 327.072 44.6794 331.551 44.0436L366.622 39.0793C395.926 34.9348 422.883 54.527 427.996 83.6889L434.116 118.6C434.899 123.064 437.641 126.843 441.639 128.966L472.929 145.578C499.064 159.454 509.359 191.155 496.367 217.747L480.813 249.59C478.822 253.664 478.822 258.338 480.813 262.411L496.368 294.255C509.36 320.847 499.065 352.547 472.93 366.423L441.639 383.035C437.641 385.159 434.898 388.936 434.116 393.402L427.996 428.313C422.884 457.475 395.922 477.07 366.622 472.922L331.551 467.958C327.075 467.324 322.642 468.766 319.392 471.913L293.933 496.557C283.298 506.852 269.649 512 256 512V512ZM182.614 427.816C196.668 427.816 210.125 433.216 220.421 443.183L245.878 467.827C251.555 473.321 260.447 473.322 266.123 467.827L291.58 443.184C303.76 431.393 320.371 425.989 337.156 428.367L372.227 433.331C380.044 434.433 387.245 429.201 388.612 421.409L394.732 386.498C397.659 369.8 407.922 355.666 422.891 347.719L454.18 331.106C461.166 327.398 463.916 318.921 460.441 311.807L444.885 279.963C437.446 264.735 437.446 247.266 444.885 232.039L460.44 200.196C463.916 193.082 461.165 184.604 454.179 180.895L422.89 164.284C407.921 156.337 397.658 142.202 394.731 125.504L388.611 90.5935C387.245 82.8012 380.047 77.563 372.226 78.6717L337.156 83.6359C320.371 86.0071 303.76 80.61 291.579 68.8191L266.122 44.1746C260.445 38.6795 251.553 38.6795 245.876 44.1746L220.419 68.8181C208.238 80.609 191.626 86.0111 174.844 83.6349L139.772 78.6707C131.948 77.566 124.754 82.8002 123.388 90.5925L117.269 125.503C114.342 142.202 104.078 156.336 89.1103 164.283L57.8201 180.895C50.8345 184.604 48.0835 193.081 51.5583 200.195L67.1139 232.038C74.5533 247.265 74.5533 264.734 67.1139 279.963L51.5583 311.806C48.0835 318.92 50.8335 327.397 57.8201 331.106L89.1093 347.718C104.078 355.666 114.342 369.8 117.269 386.497L123.388 421.408C124.754 429.199 131.948 434.443 139.772 433.33L174.844 428.366C177.443 427.998 180.039 427.816 182.614 427.816V427.816Z" fill="#064D47"/>
<path d="M256.999 298.986C245.957 298.986 237.006 290.035 237.006 278.992V157.035C237.006 145.992 245.957 137.042 256.999 137.042C268.041 137.042 276.992 145.992 276.992 157.035V278.992C276.992 290.034 268.041 298.986 256.999 298.986ZM256.999 377.958C270.801 377.958 281.991 366.769 281.991 352.967C281.991 339.165 270.801 327.975 256.999 327.975C243.197 327.975 232.008 339.165 232.008 352.967C232.008 366.769 243.197 377.958 256.999 377.958Z" fill="#0D9E91"/>
</g>
<defs>
<clipPath id="clip0_3106_6453">
<rect width="512" height="512" fill="white"/>
</clipPath>
</defs>
</svg>
