<svg width="100%" height="100%" viewBox="0 0 40 40" fill="none" xmlns="http://www.w3.org/2000/svg">
<path d="M6.2475 37.2566V12.8816C6.2475 12.0187 6.59734 11.2374 7.16281 10.6719C7.27969 10.555 7.32344 10.5113 7.32852 10.5062L13.4128 4.42188C13.6984 4.13633 14.039 3.90609 14.4172 3.74781L13.1472 2.47781C12.5816 1.91227 11.8004 1.5625 10.9375 1.5625C10.0746 1.5625 9.29336 1.91227 8.72781 2.47781L2.64352 8.56211C2.63852 8.56711 2.59469 8.61094 2.47781 8.72781C1.91234 9.29336 1.5625 10.0746 1.5625 10.9375V35.3125C1.5625 37.0384 2.96164 38.4375 4.6875 38.4375H6.47906C6.33016 38.073 6.2475 37.6745 6.2475 37.2566Z" fill="#CEE1F2"/>
<path d="M29.0625 27.8125C26.4778 27.8125 24.375 29.9153 24.375 32.5C24.375 33.363 25.0745 34.0625 25.9375 34.0625C26.8005 34.0625 27.5 33.363 27.5 32.5C27.5 31.6384 28.2009 30.9375 29.0625 30.9375C29.9241 30.9375 30.625 31.6384 30.625 32.5C30.625 33.363 31.3245 34.0625 32.1875 34.0625C33.0505 34.0625 33.75 33.363 33.75 32.5C33.75 29.9153 31.6472 27.8125 29.0625 27.8125Z" fill="#0D9E91"/>
<path d="M4.6875 40H17.1875C19.7722 40 21.875 37.8972 21.875 35.3125V10.9375C21.875 9.68547 21.3874 8.50836 20.502 7.62297L14.252 1.37297C13.3666 0.487578 12.1895 0 10.9375 0C9.68547 0 8.50836 0.487578 7.62297 1.37297L1.37297 7.62297C0.487578 8.50836 0 9.68547 0 10.9375V35.3125C0 37.8972 2.10281 40 4.6875 40ZM3.125 10.9375C3.125 10.5202 3.28758 10.1278 3.58266 9.83266L3.74883 9.66656L9.83266 3.58266C10.1278 3.28758 10.5202 3.125 10.9375 3.125C11.3548 3.125 11.7472 3.28758 12.0423 3.58266L18.2923 9.83266C18.5875 10.1278 18.75 10.5202 18.75 10.9375V35.3125C18.75 36.1741 18.0491 36.875 17.1875 36.875H4.6875C3.82594 36.875 3.125 36.1741 3.125 35.3125V10.9375Z" fill="#064D47"/>
<path d="M7.8125 15.3125C8.67547 15.3125 9.375 14.613 9.375 13.75V10.625C9.375 9.76203 8.67547 9.0625 7.8125 9.0625C6.94953 9.0625 6.25 9.76203 6.25 10.625V13.75C6.25 14.613 6.94953 15.3125 7.8125 15.3125Z" fill="#064D47"/>
<path d="M14.0625 15.3125C14.9255 15.3125 15.625 14.613 15.625 13.75V10.625C15.625 9.76203 14.9255 9.0625 14.0625 9.0625C13.1995 9.0625 12.5 9.76203 12.5 10.625V13.75C12.5 14.613 13.1995 15.3125 14.0625 15.3125Z" fill="#064D47"/>
<path d="M7.8125 24.6875C8.67547 24.6875 9.375 23.988 9.375 23.125V20C9.375 19.137 8.67547 18.4375 7.8125 18.4375C6.94953 18.4375 6.25 19.137 6.25 20V23.125C6.25 23.988 6.94953 24.6875 7.8125 24.6875Z" fill="#064D47"/>
<path d="M14.0625 24.6875C14.9255 24.6875 15.625 23.988 15.625 23.125V20C15.625 19.137 14.9255 18.4375 14.0625 18.4375C13.1995 18.4375 12.5 19.137 12.5 20V23.125C12.5 23.988 13.1995 24.6875 14.0625 24.6875Z" fill="#064D47"/>
<path d="M7.8125 34.0625C8.67547 34.0625 9.375 33.363 9.375 32.5C9.375 31.6384 10.0759 30.9375 10.9375 30.9375C11.7991 30.9375 12.5 31.6384 12.5 32.5C12.5 33.363 13.1995 34.0625 14.0625 34.0625C14.9255 34.0625 15.625 33.363 15.625 32.5C15.625 29.9153 13.5222 27.8125 10.9375 27.8125C8.35281 27.8125 6.25 29.9153 6.25 32.5C6.25 33.363 6.94953 34.0625 7.8125 34.0625Z" fill="#064D47"/>
<path d="M32.3772 1.37297C31.4919 0.487578 30.3147 0 29.0627 0C27.8107 0 26.6336 0.487578 25.7481 1.37297L22.94 4.18102C22.3299 4.79125 22.3299 5.78055 22.94 6.3907C23.5503 7.00094 24.5396 7.00094 25.1498 6.3907L27.9578 3.58266C28.253 3.28758 28.6453 3.125 29.0627 3.125C29.48 3.125 29.8723 3.2875 30.1675 3.58266L36.4175 9.83266C36.7126 10.1278 36.8752 10.5202 36.8752 10.9375V35.3125C36.8752 36.1741 36.1742 36.875 35.3127 36.875H25.4022C24.5393 36.875 23.8397 37.5745 23.8397 38.4375C23.8397 39.3005 24.5393 40 25.4022 40H35.3127C37.8974 40 40.0002 37.8972 40.0002 35.3125V10.9375C40.0002 9.68547 39.5126 8.50828 38.6272 7.62297L32.3772 1.37297Z" fill="#064D47"/>
<path d="M25.9375 15.3125C26.8005 15.3125 27.5 14.613 27.5 13.75V10.625C27.5 9.76203 26.8005 9.0625 25.9375 9.0625C25.0745 9.0625 24.375 9.76203 24.375 10.625V13.75C24.375 14.613 25.0745 15.3125 25.9375 15.3125Z" fill="#064D47"/>
<path d="M32.1875 15.3125C33.0505 15.3125 33.75 14.613 33.75 13.75V10.625C33.75 9.76203 33.0505 9.0625 32.1875 9.0625C31.3245 9.0625 30.625 9.76203 30.625 10.625V13.75C30.625 14.613 31.3245 15.3125 32.1875 15.3125Z" fill="#064D47"/>
<path d="M24.375 23.125C24.375 23.988 25.0745 24.6875 25.9375 24.6875C26.8005 24.6875 27.5 23.988 27.5 23.125V20C27.5 19.137 26.8005 18.4375 25.9375 18.4375C25.0745 18.4375 24.375 19.137 24.375 20V23.125Z" fill="#064D47"/>
<path d="M30.625 23.125C30.625 23.988 31.3245 24.6875 32.1875 24.6875C33.0505 24.6875 33.75 23.988 33.75 23.125V20C33.75 19.137 33.0505 18.4375 32.1875 18.4375C31.3245 18.4375 30.625 19.137 30.625 20V23.125Z" fill="#064D47"/>
</svg>
