<svg width="512" height="512" viewBox="0 0 512 512" fill="none" xmlns="http://www.w3.org/2000/svg">
<path d="M80 88.623L45.151 102.847C30.413 108.743 20 123.154 20 140C20 162.09 37.908 180 60 180H120C97.908 180 80 162.09 80 140V88.623Z" fill="#CEE1F2"/>
<path d="M80 452C80 429.908 97.908 412 120 412H60C37.908 412 20 429.908 20 452C20 474.09 37.908 492 60 492H120C97.908 492 80 474.09 80 452Z" fill="#CEE1F2"/>
<path d="M256 120C267.046 120 276 111.046 276 100C276 88.9543 267.046 80 256 80C244.954 80 236 88.9543 236 100C236 111.046 244.954 120 256 120Z" fill="#064D47"/>
<path d="M60 200H452C485.084 200 512 173.084 512 140C512 115.345 497.226 93.494 474.355 84.308C474.355 84.308 278.319 4.294 278.276 4.276C271.182 1.439 263.687 0 256 0C248.314 0 240.819 1.439 233.725 4.277C233.681 4.294 37.646 84.309 37.646 84.309C14.774 93.494 0 115.345 0 140C0 173.084 26.916 200 60 200V200ZM52.58 121.416C52.624 121.399 248.63 41.396 248.63 41.396C253.298 39.543 258.703 39.543 263.371 41.396C263.371 41.396 459.377 121.398 459.421 121.416C467.062 124.473 472 131.767 472 140C472 151.028 463.028 160 452 160H60C48.972 160 40 151.028 40 140C40 131.768 44.938 124.473 52.58 121.416Z" fill="#064D47"/>
<path d="M452 392H60C26.916 392 0 418.916 0 452C0 485.084 26.916 512 60 512H452C485.084 512 512 485.084 512 452C512 418.916 485.084 392 452 392ZM452 472H60C48.972 472 40 463.028 40 452C40 440.972 48.972 432 60 432H452C463.028 432 472 440.972 472 452C472 463.028 463.028 472 452 472Z" fill="#064D47"/>
<path d="M412 352C423.046 352 432 343.046 432 332V260C432 248.954 423.046 240 412 240C400.954 240 392 248.954 392 260V332C392 343.046 400.954 352 412 352Z" fill="#0D9E91"/>
<path d="M332 352C343.046 352 352 343.046 352 332V260C352 248.954 343.046 240 332 240C320.954 240 312 248.954 312 260V332C312 343.046 320.954 352 332 352Z" fill="#0D9E91"/>
<path d="M100 352C111.046 352 120 343.046 120 332V260C120 248.954 111.046 240 100 240C88.954 240 80 248.954 80 260V332C80 343.046 88.954 352 100 352Z" fill="#0D9E91"/>
<path d="M180 352C191.046 352 200 343.046 200 332V260C200 248.954 191.046 240 180 240C168.954 240 160 248.954 160 260V332C160 343.046 168.954 352 180 352Z" fill="#0D9E91"/>
</g>
<defs>
<clipPath id="clip0_2900_6407">
<rect width="512" height="512" fill="white"/>
</clipPath>
</defs>
</svg>
