<svg width="24" height="24" viewBox="0 0 24 24" fill="none" xmlns="http://www.w3.org/2000/svg">
<g opacity="0.85">
<path d="M23.0625 24H4.6875C2.10277 24 0 21.8972 0 19.3125V0.9375C0 0.419719 0.419719 0 0.9375 0C1.45528 0 1.875 0.419719 1.875 0.9375V19.3125C1.875 20.8633 3.13669 22.125 4.6875 22.125H23.0625C23.5803 22.125 24 22.5447 24 23.0625C24 23.5803 23.5803 24 23.0625 24Z" fill="white"/>
<path d="M6.5625 20.25C5.01169 20.25 3.75 18.9883 3.75 17.4375V9.9375C3.75 8.38669 5.01169 7.125 6.5625 7.125C8.11331 7.125 9.375 8.38669 9.375 9.9375V17.4375C9.375 18.9883 8.11331 20.25 6.5625 20.25ZM6.5625 9C6.04556 9 5.625 9.42056 5.625 9.9375V17.4375C5.625 17.9544 6.04556 18.375 6.5625 18.375C7.07944 18.375 7.5 17.9544 7.5 17.4375V9.9375C7.5 9.42056 7.07944 9 6.5625 9Z" fill="#0D9E91"/>
<path d="M13.875 20.25C12.3242 20.25 11.0625 18.9883 11.0625 17.4375V4.3125C11.0625 2.76169 12.3242 1.5 13.875 1.5C15.4258 1.5 16.6875 2.76169 16.6875 4.3125V17.4375C16.6875 18.9883 15.4258 20.25 13.875 20.25ZM13.875 3.375C13.3581 3.375 12.9375 3.79556 12.9375 4.3125V17.4375C12.9375 17.9544 13.3581 18.375 13.875 18.375C14.3919 18.375 14.8125 17.9544 14.8125 17.4375V4.3125C14.8125 3.79556 14.3919 3.375 13.875 3.375Z" fill="#0D9E91"/>
<path d="M21.1875 20.25C19.6367 20.25 18.375 18.9883 18.375 17.4375V13.6875C18.375 12.1367 19.6367 10.875 21.1875 10.875C22.7383 10.875 24 12.1367 24 13.6875V17.4375C24 18.9883 22.7383 20.25 21.1875 20.25ZM21.1875 12.75C20.6706 12.75 20.25 13.1706 20.25 13.6875V17.4375C20.25 17.9544 20.6706 18.375 21.1875 18.375C21.7044 18.375 22.125 17.9544 22.125 17.4375V13.6875C22.125 13.1706 21.7044 12.75 21.1875 12.75Z" fill="#0D9E91"/>
</g>
</svg>
