<svg width="100%" height="100%" viewBox="0 0 44 44" fill="none" xmlns="http://www.w3.org/2000/svg">
<path d="M36.4835 41.8839C31.1125 43.619 25.3853 39.542 25.4376 33.8496C25.4104 28.9244 29.7348 24.9896 34.6328 25.4628L35.3707 26.2554C28.5287 29.5285 29.2468 39.6125 36.4835 41.8839ZM6.87503 33.6778C6.87503 27.5762 11.1529 9.18559 12.461 5.40434C12.9196 4.07841 13.8661 2.95074 15.1529 2.30131C12.056 0.777295 8.30889 2.30002 7.30471 5.40443C5.99657 9.18559 1.71878 27.5762 1.71878 33.6778C1.63103 39.8112 7.32018 43.5441 12.6728 41.8839C9.30654 40.8499 6.87503 37.8183 6.87503 33.6778Z" fill="#CEE1F2"/>
<path d="M20.2812 7.72466V18.8106C20.1905 21.091 16.9337 21.0893 16.8438 18.8106V14.5997C16.8438 12.3859 15.119 10.5053 12.9172 10.3184C11.9713 10.2382 11.2697 9.40629 11.3499 8.46046C11.4303 7.51463 12.2621 6.81235 13.2079 6.8933C14.5203 7.00468 15.7666 7.447 16.8438 8.16801V7.72466C16.8014 3.09873 10.4212 1.76602 8.92908 5.9663C7.55442 9.93962 3.4375 27.994 3.4375 33.6778C3.4375 37.6614 6.25659 40.5528 10.1406 40.5528C13.8368 40.5528 16.8438 37.5457 16.8438 33.8497C16.8648 29.9348 13.4171 26.7965 9.52308 27.1745C8.57794 27.2601 7.74159 26.564 7.65548 25.6187C7.56938 24.6734 8.26598 23.8373 9.2113 23.7511C9.51809 23.7232 9.83082 23.709 10.1406 23.709C15.7321 23.709 20.2812 28.2581 20.2812 33.8497C20.316 42.813 9.29199 47.3212 2.97825 41.1316C1.05772 39.2365 0 36.5893 0 33.6778C0 27.2765 4.40825 8.51967 5.68038 4.84241C8.62091 -3.13843 20.2411 -0.580248 20.2812 7.72466ZM38.3196 4.84241C35.3745 -3.14342 23.7585 -0.575178 23.7188 7.72466V18.8106C23.8095 21.091 27.0663 21.0893 27.1562 18.8106V14.5997C27.1562 12.3859 28.881 10.5053 31.0828 10.3184C33.3472 10.035 33.0706 6.79069 30.7921 6.8933C29.4797 7.00468 28.2334 7.447 27.1562 8.16801V7.72466C27.1986 3.09873 33.5788 1.76602 35.0709 5.9663C36.4456 9.93962 40.5625 27.994 40.5625 33.6778C40.5625 37.6614 37.7434 40.5528 33.8594 40.5528C30.1632 40.5528 27.1562 37.5457 27.1562 33.8497C27.1352 29.9348 30.5829 26.7965 34.4769 27.1745C35.4206 27.2602 36.2583 26.564 36.3445 25.6187C36.4306 24.6734 35.734 23.8373 34.7887 23.7511C34.4819 23.7232 34.1692 23.709 33.8594 23.709C28.2679 23.709 23.7188 28.2581 23.7188 33.8497C23.684 42.8133 34.7081 47.321 41.0218 41.1316C42.9423 39.2365 44 36.5893 44 33.6778C44 27.2765 39.5918 8.51967 38.3196 4.84241Z" fill="#064D47"/>
<path d="M24.1488 24.8262C24.1488 26.0128 23.1869 26.9747 22.0004 26.9747C19.1505 26.8615 19.1513 22.7905 22.0004 22.6778C23.1869 22.6778 24.1488 23.6397 24.1488 24.8262Z" fill="#0D9E91"/>
</svg>
