<svg width="100%" height="100%" viewBox="0 0 44 44" fill="none" xmlns="http://www.w3.org/2000/svg">
<g clip-path="url(#clip0_1479_2331)">
<path d="M6.87454 33.6482V21.2733C6.87454 16.5271 10.7762 12.6796 15.5224 12.6796H10.538C5.79182 12.6796 1.94434 16.5271 1.94434 21.2733V33.6482C1.94434 38.3944 5.79182 42.2419 10.538 42.2419H15.5224C10.7762 42.2419 6.87454 38.3944 6.87454 33.6482Z" fill="#CEE1F2"/>
<path d="M21.7421 43.9999H10.3124C4.62616 43.9999 0 39.3737 0 33.6875V21.3125C0 15.6263 4.62616 11.0001 10.3124 11.0001H33.6873C39.3736 11.0001 43.9997 15.6263 43.9997 21.3125V22.4297C43.9997 23.379 43.2303 24.1485 42.281 24.1485C41.3317 24.1485 40.5623 23.379 40.5623 22.4297V21.3125C40.5623 17.5217 37.4782 14.4376 33.6873 14.4376H10.3124C6.52159 14.4376 3.43748 17.5217 3.43748 21.3125V33.6875C3.43748 37.4783 6.52159 40.5624 10.3124 40.5624H21.7421C22.6913 40.5624 23.4608 41.3319 23.4608 42.2812C23.4608 43.2304 22.6913 43.9999 21.7421 43.9999ZM22.7733 30.6797C22.7733 29.7304 22.0038 28.9609 21.0546 28.9609H17.789C14.5193 28.9609 11.8593 26.3009 11.8593 23.0313C11.8593 22.082 11.0898 21.3125 10.1406 21.3125C9.19131 21.3125 8.42183 22.082 8.42183 23.0313C8.42183 28.1963 12.6239 32.3984 17.789 32.3984H21.0546C22.0038 32.3984 22.7733 31.6289 22.7733 30.6797ZM21.9999 20.1094C20.8133 20.1094 19.8514 21.0713 19.8514 22.2578C19.8514 23.4444 20.8133 24.4063 21.9999 24.4063C23.1864 24.4063 24.1483 23.4444 24.1483 22.2578C24.1483 21.0713 23.1864 20.1094 21.9999 20.1094Z" fill="#064D47"/>
<path d="M24.2343 3.43766H19.7656C18.3915 3.43766 17.2734 4.55562 17.2734 5.92984C17.2734 6.8791 16.5039 7.64858 15.5547 7.64858C14.6054 7.64858 13.8359 6.8791 13.8359 5.92984C13.8359 2.66019 16.4959 0.000183105 19.7656 0.000183105H24.2343C27.504 0.000183105 30.164 2.66019 30.164 5.92984C30.164 6.8791 29.3945 7.64858 28.4452 7.64858C27.496 7.64858 26.7265 6.8791 26.7265 5.92984C26.7265 4.55562 25.6085 3.43766 24.2343 3.43766ZM43.7549 38.9545C43.4327 39.4916 42.8633 39.7892 42.2795 39.7892C41.9784 39.7892 41.6736 39.7101 41.3968 39.544L40.2307 38.8443C39.2959 39.7811 38.1084 40.4644 36.7811 40.7859V42.2811C36.7811 43.2304 36.0117 43.9998 35.0624 43.9998C34.1131 43.9998 33.3437 43.2304 33.3437 42.2811V40.7859C31.986 40.4571 30.7758 39.7485 29.8316 38.7787L28.5561 39.544C28.2792 39.7101 27.9743 39.7892 27.6734 39.7892C27.0896 39.7892 26.5203 39.4916 26.198 38.9545C25.7096 38.1406 25.9736 37.0848 26.7875 36.5965L28.0769 35.8229C27.8699 35.147 27.7577 34.4302 27.7577 33.6875C27.7577 32.9448 27.8699 32.2279 28.0769 31.5521L26.7875 30.7785C25.9735 30.2901 25.7096 29.2344 26.1981 28.4204C26.6865 27.6064 27.7424 27.3427 28.5561 27.8309L29.8316 28.5962C30.7759 27.6264 31.986 26.9178 33.3437 26.589V25.0938C33.3437 24.1445 34.1131 23.3751 35.0624 23.3751C36.0117 23.3751 36.7811 24.1445 36.7811 25.0938V26.589C38.1085 26.9104 39.296 27.5938 40.2307 28.5306L41.3968 27.8309C42.2105 27.3425 43.2665 27.6063 43.7548 28.4204C44.2433 29.2344 43.9793 30.2901 43.1654 30.7785L42.0204 31.4655C42.2448 32.1666 42.3671 32.9129 42.3671 33.6875C42.3671 34.462 42.2448 35.2084 42.0204 35.9095L43.1654 36.5965C43.9794 37.0848 44.2433 38.1406 43.7549 38.9545ZM38.9296 33.6875C38.9296 31.5551 37.1948 29.8203 35.0624 29.8203C32.93 29.8203 31.1952 31.5551 31.1952 33.6875C31.1952 35.8198 32.93 37.5547 35.0624 37.5547C37.1948 37.5547 38.9296 35.8198 38.9296 33.6875Z" fill="#0D9E91"/>
</g>
</svg>
