<svg width="50" height="50" viewBox="0 0 50 50" fill="none" xmlns="http://www.w3.org/2000/svg">
<g clip-path="url(#clip0_3146_6785)">
<path d="M13.867 17.9696C13.867 9.57448 19.938 3.41353 27.9291 2.18105C26.9775 2.03427 25.9986 1.95752 24.9995 1.95508C15.6108 1.97793 8.00781 8.57481 8.00781 17.9697C8.00781 29.6393 20.0192 38.2817 20.0192 38.2817H28.4174C28.4174 38.2816 13.867 29.6392 13.867 17.9696V17.9696Z" fill="#CEE1F2"/>
<path d="M31.7408 45.6193L30.7642 48.6465C30.504 49.4532 29.7531 50 28.9055 50H20.9956C20.1479 50 19.3971 49.4532 19.1368 48.6465L18.1603 45.6193C17.8292 44.5927 18.3929 43.4921 19.4194 43.1609C20.4462 42.8297 21.5466 43.3935 21.8778 44.4201L22.4177 46.0939H27.4833L28.0232 44.4201C28.3544 43.3935 29.4552 42.83 30.4815 43.1609C31.5083 43.4921 32.072 44.5927 31.7408 45.6193ZM43.9441 17.9697C44.2863 26.3126 36.7806 35.8229 31.0167 39.8713C30.6855 40.1076 30.2889 40.2347 29.882 40.2347H20.019C19.6097 40.2347 19.2107 40.106 18.8783 39.8669C13.1219 35.7956 5.7051 26.2486 6.05489 17.9696C5.88449 7.665 14.8408 -0.122273 24.9994 0.00145389C35.1579 -0.12198 44.1147 7.66471 43.9441 17.9697V17.9697ZM40.038 17.9697C40.038 9.96815 33.5764 3.93044 24.9994 3.90759C16.4224 3.93044 9.96074 9.96815 9.96074 17.9697C9.96074 27.2135 18.5422 34.6242 20.6831 36.3285H29.2225C31.3684 34.6353 40.038 27.2193 40.038 17.9697ZM24.9994 0.00145389C25.0133 0.00116093 24.9855 0.00116093 24.9994 0.00145389V0.00145389Z" fill="#064D47"/>
<path d="M35.5301 15.3934C35.4788 14.2785 34.8153 13.2856 33.7988 12.8022C32.7623 12.3096 31.5481 12.4258 30.6301 13.1053C28.3327 14.8938 25.8236 15.8103 24.3476 18.1774C23.6272 19.3505 23.2089 20.7787 22.9962 22.8843C20.4548 22.2012 18.3039 20.2381 18.0324 17.2289C18.363 17.4572 18.6801 17.6703 18.9579 17.8502C19.8631 18.4367 21.0725 18.1783 21.659 17.273C22.2455 16.3677 21.987 15.1584 21.0817 14.5719C20.4933 14.1907 19.6681 13.6149 18.9796 13.1052C18.0615 12.4256 16.8475 12.3094 15.8108 12.8021C14.7942 13.2854 14.1308 14.2783 14.0795 15.3932C13.6432 21.5241 17.6352 25.8403 22.8485 26.8778V28.5153C22.9445 31.1039 26.6595 31.102 26.7546 28.5153V26.8793C31.9745 25.842 35.9654 21.5272 35.5301 15.3934V15.3934ZM29.9516 20.9449C29.0381 21.9119 27.8947 22.469 26.923 22.7888C27.2436 20.0425 28.023 19.5373 30.2744 18.0771C30.6786 17.8149 31.111 17.5345 31.5784 17.218C31.4036 18.7349 30.8591 19.9842 29.9516 20.9449Z" fill="#0D9E91"/>
</g>
<defs>
<clipPath id="clip0_3146_6785">
<rect width="50" height="50" fill="white"/>
</clipPath>
</defs>
</svg>
