<svg width="50" height="50" viewBox="0 0 50 50" fill="none" xmlns="http://www.w3.org/2000/svg">
<path d="M25.3906 9.375C20.0059 9.375 15.625 13.7559 15.625 19.1406V23.0469C15.625 24.126 14.751 25 13.6719 25C10.4414 25 7.8125 27.6289 7.8125 30.8594V34.7656C7.8125 35.3047 8.03223 35.793 8.38574 36.1475C8.29688 36.333 8.21777 36.5234 8.14844 36.7188H3.90625C2.8291 36.7188 1.95312 35.8428 1.95312 34.7656V30.8594C1.95312 30.8086 1.95313 30.7568 1.95508 30.7061C2.03613 27.5459 4.63281 25 7.8125 25C8.8916 25 9.76562 24.126 9.76562 23.0469C9.7666 18.8701 9.76338 19.1115 9.76855 18.8887C9.90234 13.6201 14.2305 9.375 19.5312 9.375H25.3906Z" fill="#CEE1F2"/>
<path d="M42.1875 21.2899V19.1406C42.1875 11.602 36.0543 5.46875 28.5156 5.46875H21.4844C13.9457 5.46875 7.8125 11.602 7.8125 19.1406V21.2899C3.36064 22.1974 0 26.1434 0 30.8594V34.7656C0 37.9965 2.62852 40.625 5.85938 40.625H8.14844C8.95469 42.8982 11.1257 44.5312 13.6719 44.5312C16.9027 44.5312 19.5312 41.9027 19.5312 38.6719C19.5312 35.441 16.9027 32.8125 13.6719 32.8125C11.1257 32.8125 8.95479 34.4455 8.14844 36.7188H5.85938C4.78242 36.7188 3.90625 35.8426 3.90625 34.7656V30.8594C3.90625 27.6285 6.53477 25 9.76562 25C10.8443 25 11.7188 24.1256 11.7188 23.0469V19.1406C11.7188 13.7559 16.0996 9.375 21.4844 9.375H28.5156C33.9004 9.375 38.2812 13.7559 38.2812 19.1406V23.0469C38.2812 24.1256 39.1557 25 40.2344 25C43.4652 25 46.0938 27.6285 46.0938 30.8594V34.7656C46.0938 35.8426 45.2176 36.7188 44.1406 36.7188H41.8516C41.0453 34.4455 38.8743 32.8125 36.3281 32.8125C33.0973 32.8125 30.4688 35.441 30.4688 38.6719C30.4688 41.9027 33.0973 44.5312 36.3281 44.5312C38.8743 44.5312 41.0452 42.8982 41.8516 40.625H44.1406C47.3715 40.625 50 37.9965 50 34.7656V30.8594C50 26.1434 46.6394 22.1974 42.1875 21.2899V21.2899ZM13.6719 36.7188C14.7488 36.7188 15.625 37.5949 15.625 38.6719C15.625 39.7488 14.7488 40.625 13.6719 40.625C12.5949 40.625 11.7188 39.7488 11.7188 38.6719C11.7188 37.5949 12.5949 36.7188 13.6719 36.7188ZM36.3281 40.625C35.2512 40.625 34.375 39.7488 34.375 38.6719C34.375 37.5949 35.2512 36.7188 36.3281 36.7188C37.4051 36.7188 38.2812 37.5949 38.2812 38.6719C38.2812 39.7488 37.4051 40.625 36.3281 40.625Z" fill="#064D47"/>
<path d="M25 13.2812C23.9213 13.2812 23.0469 14.1557 23.0469 15.2344V21.0938H17.5781C16.4994 21.0938 15.625 21.9682 15.625 23.0469C15.625 24.1256 16.4994 25 17.5781 25H32.4219C33.5006 25 34.375 24.1256 34.375 23.0469C34.375 21.9682 33.5006 21.0938 32.4219 21.0938H26.9531V15.2344C26.9531 14.1557 26.0787 13.2812 25 13.2812Z" fill="#064D47"/>
<path d="M26.1703 40.625C27.249 40.625 28.1234 39.7506 28.1234 38.6719C28.1234 37.5932 27.249 36.7188 26.1703 36.7188H23.8281C22.7494 36.7188 21.875 37.5932 21.875 38.6719C21.875 39.7506 22.7494 40.625 23.8281 40.625H26.1703Z" fill="#0D9E91"/>
</svg>
