<svg width="24" height="24" viewBox="0 0 24 24" fill="none" xmlns="http://www.w3.org/2000/svg">
<g opacity="0.85">
<path d="M19.3125 20.4375H4.6875C2.10281 20.4375 0 18.3347 0 15.75V8.25C0 5.66531 2.10281 3.5625 4.6875 3.5625H19.3125C21.8972 3.5625 24 5.66531 24 8.25V15.75C24 18.3347 21.8972 20.4375 19.3125 20.4375ZM4.6875 5.4375C3.13669 5.4375 1.875 6.69919 1.875 8.25V15.75C1.875 17.3008 3.13669 18.5625 4.6875 18.5625H19.3125C20.8633 18.5625 22.125 17.3008 22.125 15.75V8.25C22.125 6.69919 20.8633 5.4375 19.3125 5.4375H4.6875Z" fill="white"/>
<path d="M19.3125 9.1875H4.6875C4.16972 9.1875 3.75 8.76778 3.75 8.25C3.75 7.73222 4.16972 7.3125 4.6875 7.3125H19.3125C19.8303 7.3125 20.25 7.73222 20.25 8.25C20.25 8.76778 19.8303 9.1875 19.3125 9.1875Z" fill="#0D9E91"/>
<path d="M8.25 16.6875H4.6875C4.16972 16.6875 3.75 16.2678 3.75 15.75C3.75 15.2322 4.16972 14.8125 4.6875 14.8125H8.25C8.76778 14.8125 9.1875 15.2322 9.1875 15.75C9.1875 16.2678 8.76778 16.6875 8.25 16.6875Z" fill="white"/>
</g>
</svg>
