<svg width="60" height="60" viewBox="0 0 60 60" fill="none" xmlns="http://www.w3.org/2000/svg">
<path d="M44.0625 34.6875C44.0625 30.7535 46.4868 27.3877 49.9219 25.9965C48.8359 25.5568 47.65 25.3125 46.4062 25.3125C41.2286 25.3125 37.0312 29.5098 37.0312 34.6875C37.0312 39.8652 41.2286 44.0625 46.4062 44.0625C47.65 44.0625 48.8359 43.8182 49.9219 43.3785C46.4868 41.9873 44.0625 38.6215 44.0625 34.6875Z" fill="#CEE1F2"/>
<path fill-rule="evenodd" clip-rule="evenodd" d="M46.4062 27.6562C42.523 27.6562 39.375 30.8042 39.375 34.6875C39.375 38.5708 42.523 41.7188 46.4062 41.7188C50.2895 41.7188 53.4375 38.5708 53.4375 34.6875C53.4375 30.8042 50.2895 27.6562 46.4062 27.6562ZM34.6875 34.6875C34.6875 28.2154 39.9342 22.9688 46.4062 22.9688C52.8783 22.9688 58.125 28.2154 58.125 34.6875C58.125 41.1596 52.8783 46.4062 46.4062 46.4062C39.9342 46.4062 34.6875 41.1596 34.6875 34.6875Z" fill="#064D47"/>
<path fill-rule="evenodd" clip-rule="evenodd" d="M41.7188 40.4648C43.0132 40.4648 44.0625 41.5142 44.0625 42.8086V51.9983L44.749 51.3118C45.6643 50.3965 47.1482 50.3965 48.0635 51.3118L48.75 51.9983V42.8086C48.75 41.5142 49.7993 40.4648 51.0938 40.4648C52.3882 40.4648 53.4375 41.5142 53.4375 42.8086V57.6566C53.4375 58.6046 52.8665 59.4592 51.9907 59.8219C51.1149 60.1847 50.1068 59.9842 49.4365 59.3139L46.4062 56.2837L43.376 59.3139C42.7057 59.9842 41.6976 60.1847 40.8218 59.8219C39.946 59.4592 39.375 58.6046 39.375 57.6566V42.8086C39.375 41.5142 40.4243 40.4648 41.7188 40.4648Z" fill="#064D47"/>
<path fill-rule="evenodd" clip-rule="evenodd" d="M11.25 30C11.25 28.7056 12.2993 27.6562 13.5938 27.6562H27.6562C28.9507 27.6562 30 28.7056 30 30C30 31.2944 28.9507 32.3438 27.6562 32.3438H13.5938C12.2993 32.3438 11.25 31.2944 11.25 30Z" fill="#0D9E91"/>
<path fill-rule="evenodd" clip-rule="evenodd" d="M11.25 39.375C11.25 38.0806 12.2993 37.0312 13.5938 37.0312H27.6562C28.9507 37.0312 30 38.0806 30 39.375C30 40.6694 28.9507 41.7188 27.6562 41.7188H13.5938C12.2993 41.7188 11.25 40.6694 11.25 39.375Z" fill="#0D9E91"/>
<path fill-rule="evenodd" clip-rule="evenodd" d="M11.25 48.75C11.25 47.4556 12.2993 46.4062 13.5938 46.4062H27.6562C28.9507 46.4062 30 47.4556 30 48.75C30 50.0444 28.9507 51.0938 27.6562 51.0938H13.5938C12.2993 51.0938 11.25 50.0444 11.25 48.75Z" fill="#0D9E91"/>
<path fill-rule="evenodd" clip-rule="evenodd" d="M27.6562 4.6875C26.3619 4.6875 25.3125 5.73688 25.3125 7.03125V16.4062C25.3125 20.2895 22.1645 23.4375 18.2812 23.4375H8.90625C7.61188 23.4375 6.5625 24.4869 6.5625 25.7812V52.9688C6.5625 54.2631 7.61188 55.3125 8.90625 55.3125H32.3438C33.6382 55.3125 34.6875 56.3618 34.6875 57.6562C34.6875 58.9507 33.6382 60 32.3438 60H8.90625C5.02304 60 1.875 56.852 1.875 52.9688V25.7812C1.875 21.898 5.02304 18.75 8.90625 18.75H18.2812C19.5756 18.75 20.625 17.7006 20.625 16.4062V7.03125C20.625 3.14804 23.773 0 27.6562 0H41.7188C45.602 0 48.75 3.14804 48.75 7.03125V15.9375C48.75 17.2319 47.7007 18.2812 46.4062 18.2812C45.1118 18.2812 44.0625 17.2319 44.0625 15.9375V7.03125C44.0625 5.73688 43.0131 4.6875 41.7188 4.6875H27.6562Z" fill="#064D47"/>
<path fill-rule="evenodd" clip-rule="evenodd" d="M25.9991 2.05952C26.9144 2.97481 26.9144 4.45879 25.9991 5.37408L7.24908 24.1241C6.33379 25.0394 4.84981 25.0394 3.93452 24.1241C3.01922 23.2088 3.01922 21.7248 3.93452 20.8095L22.6845 2.05952C23.5998 1.14422 25.0838 1.14422 25.9991 2.05952Z" fill="#064D47"/>
<path fill-rule="evenodd" clip-rule="evenodd" d="M30 16.4062C30 15.1118 31.0493 14.0625 32.3438 14.0625H37.0312C38.3257 14.0625 39.375 15.1118 39.375 16.4062C39.375 17.7007 38.3257 18.75 37.0312 18.75H32.3438C31.0493 18.75 30 17.7007 30 16.4062Z" fill="#064D47"/>
</svg>
