<svg width="40" height="40" viewBox="0 0 40 40" fill="none" xmlns="http://www.w3.org/2000/svg">
<path d="M21.7813 34.7744C16.8997 29.8929 16.8997 21.9783 21.7813 17.0968C23.6232 15.2549 25.8968 14.1085 28.2764 13.6565C24.3492 12.9106 20.1335 14.0571 17.0938 17.0968C12.2122 21.9783 12.2122 29.8929 17.0938 34.7744C20.1344 37.8151 24.3518 38.9615 28.28 38.2141C25.8992 37.7626 23.624 36.6172 21.7813 34.7744Z" fill="#CEE1F2"/>
<path d="M19.6826 27.498C20.5456 27.498 21.2451 26.7985 21.2451 25.9355C21.2451 25.0726 20.5456 24.373 19.6826 24.373C18.8197 24.373 18.1201 25.0726 18.1201 25.9355C18.1201 26.7985 18.8197 27.498 19.6826 27.498Z" fill="#0D9E91"/>
<path d="M25.9326 27.498C26.7956 27.498 27.4951 26.7985 27.4951 25.9355C27.4951 25.0726 26.7956 24.373 25.9326 24.373C25.0697 24.373 24.3701 25.0726 24.3701 25.9355C24.3701 26.7985 25.0697 27.498 25.9326 27.498Z" fill="#0D9E91"/>
<path d="M32.1826 27.498C33.0456 27.498 33.7451 26.7985 33.7451 25.9355C33.7451 25.0726 33.0456 24.373 32.1826 24.373C31.3197 24.373 30.6201 25.0726 30.6201 25.9355C30.6201 26.7985 31.3197 27.498 32.1826 27.498Z" fill="#0D9E91"/>
<path d="M0.587522 22.2359C0.188069 25.0299 2.34541 27.588 5.23635 27.588C5.78619 27.588 5.98158 27.516 8.06752 27.2308C8.92182 27.1087 9.51541 26.3173 9.3933 25.463C9.27127 24.6087 8.47908 24.0149 7.62557 24.1372L5.45073 24.4479C4.41635 24.5957 3.53307 23.7132 3.68104 22.678L4.16283 19.3057C4.20401 19.0177 4.16393 18.7239 4.04713 18.4575C0.850335 11.1637 6.24518 3.125 14.0645 3.125C18.1166 3.125 21.6805 5.32688 23.5754 8.65516C24.0023 9.40508 24.9564 9.66672 25.7063 9.23984C26.4563 8.81289 26.718 7.85883 26.291 7.10891C23.8641 2.84641 19.2998 0 14.0645 0C7.14002 0 1.40768 4.985 0.226116 11.5666C-0.243181 14.1809 0.0276003 16.8412 1.0083 19.2905L0.587522 22.2359Z" fill="#064D47"/>
<path d="M25.9329 11.873C22.1766 11.873 18.6452 13.3358 15.9892 15.9919C10.5062 21.4748 10.5062 30.3962 15.9892 35.8793C18.7039 38.594 22.2877 40.0001 25.9455 40.0001C27.7277 40.0001 29.4933 39.6614 31.1608 38.9937L34.1062 39.4145C37.195 39.8563 39.8542 37.2029 39.4118 34.1091L38.9909 31.1635C39.9717 28.7143 40.2425 26.054 39.7732 23.4397C38.5928 16.8649 32.8638 11.873 25.9329 11.873ZM35.8364 31.1788L36.3182 34.5512C36.4661 35.5856 35.5832 36.4688 34.5484 36.3209L31.1761 35.8391C30.8882 35.798 30.5943 35.838 30.3278 35.9548C28.8979 36.5816 27.3972 36.8866 25.9121 36.8866C23.0794 36.8864 20.3052 35.7759 18.1989 33.6695C13.9343 29.405 13.9343 22.4661 18.1989 18.2016C20.2646 16.1358 23.0114 14.998 25.9329 14.998C33.7372 14.998 39.1562 23.0205 35.9521 30.3305C35.8354 30.597 35.7952 30.8908 35.8364 31.1788Z" fill="#064D47"/>
</svg>
