<svg width="100%" height="100%" viewBox="0 0 32 32" fill="none" xmlns="http://www.w3.org/2000/svg">
<path d="M31.0009 21.3472C31.4447 20.1201 30.8061 18.7669 29.5747 18.3246C28.3434 17.8824 26.9848 18.5185 26.5408 19.7455C22.0782 31.4489 4.89971 28.481 4.68543 15.941C4.57757 7.92972 13.3421 2.22645 20.6433 5.80624C21.8328 6.35119 23.2403 5.83233 23.7873 4.64738C24.3344 3.46242 23.8137 2.05995 22.6244 1.515C20.4307 0.509644 18.1834 0 15.9448 0C-5.2834 0.876055 -5.27356 31.011 15.9448 31.8823C22.6705 31.8823 28.721 27.6486 31.0009 21.3472Z" fill="#194D3E"/>
<path d="M17.7261 20.7826C16.105 20.7826 14.5829 20.146 13.44 18.9902L10.1004 15.584C9.18571 14.6509 9.20337 13.1558 10.1399 12.2443C11.0766 11.3331 12.5772 11.3506 13.4919 12.2836L16.8242 15.6826C17.0618 15.923 17.3847 16.0593 17.726 16.0593C18.0673 16.0593 18.3902 15.923 18.6351 15.6754L27.8902 6.36756C28.8112 5.44097 30.3121 5.43388 31.2423 6.35186C32.1724 7.26983 32.1794 8.76511 31.258 9.6917L22.0075 18.9948C20.8695 20.146 19.3472 20.7826 17.7261 20.7826V20.7826Z" fill="#18A57B"/>
</svg>
