<svg width="270" height="271" viewBox="0 0 270 271" fill="none" xmlns="http://www.w3.org/2000/svg">
<path d="M135 270.963C60.561 270.963 0 210.402 0 135.963C0 61.5239 60.561 0.962891 135 0.962891C209.439 0.962891 270 61.5239 270 135.963C270 210.402 209.439 270.963 135 270.963ZM135 40.9629C82.617 40.9629 40 83.5799 40 135.963C40 188.346 82.617 230.963 135 230.963C187.383 230.963 230 188.346 230 135.963C230 83.5789 187.383 40.9629 135 40.9629Z" fill="#064D47"/>
<path d="M168.987 155.963H135C123.954 155.963 115 147.009 115 135.963V94.9629C115 83.9169 123.954 74.9629 135 74.9629C146.046 74.9629 155 83.9169 155 94.9629V115.963H168.987C180.033 115.963 188.987 124.917 188.987 135.963C188.987 147.009 180.033 155.963 168.987 155.963Z" fill="#3DB1A7"/>
</svg>
