<svg width="20" height="20" viewBox="0 0 20 20" fill="none" xmlns="http://www.w3.org/2000/svg">
<path d="M19.373 16.3462L13.0268 9.99996L19.373 3.65374C20.2088 2.81795 20.2089 1.46282 19.3731 0.626922C18.5371 -0.208974 17.182 -0.208867 16.3463 0.626922L10 6.97314L3.65368 0.626922C2.818 -0.208974 1.46266 -0.208974 0.626867 0.626922C-0.208921 1.46282 -0.20892 2.81795 0.626975 3.65374L6.97319 9.99996L0.626975 16.3462C-0.20892 17.1821 -0.209028 18.5372 0.626867 19.373C1.46298 20.209 2.81811 20.2087 3.65368 19.373L10 13.0268L16.3463 19.373C17.1819 20.2088 18.5372 20.2089 19.3731 19.373C20.209 18.5371 20.2089 17.182 19.373 16.3462Z" fill="#064D47"/>
</svg>
