<svg width="80" height="80" viewBox="0 0 80 80" fill="none" xmlns="http://www.w3.org/2000/svg">
<g>
<path d="M10.082 74.6651L23.3403 34.8904C23.6374 33.9993 24.1405 33.1618 24.8499 32.4524C27.2906 30.0117 31.248 30.0117 33.6888 32.4524L27.0597 25.8234C24.6189 23.3826 20.6616 23.3826 18.2208 25.8234C17.5114 26.5328 17.0083 27.3704 16.7113 28.2614L3.45282 68.0359C2.72782 70.2109 3.23095 72.7053 4.96236 74.4367C6.28314 75.7574 8.04751 76.361 9.77564 76.2524C9.80954 75.7151 9.91001 75.181 10.082 74.6651V74.6651Z" fill="#CEE1F2"/>
<path d="M58.0924 12.565C55.9885 14.6689 56.7263 17.7103 57.2652 19.931C57.4067 20.5138 57.6287 21.4288 57.6704 21.9272C56.8937 23.1369 57.0343 24.765 58.0924 25.8231C59.3129 27.0436 61.2915 27.0435 62.5118 25.8231C64.6157 23.7192 63.8777 20.6778 63.339 18.4572C63.2802 18.215 63.2076 17.9153 63.1396 17.6122C63.4427 17.68 63.7424 17.7527 63.9846 17.8116C66.2054 18.3505 69.2467 19.0883 71.3506 16.9844C73.4545 14.8805 72.7165 11.8391 72.1777 9.61846C72.1717 9.5933 72.1654 9.56768 72.159 9.54143C72.8773 9.8733 73.6604 10.2066 74.467 10.396C76.9138 10.9702 78.4102 9.92487 79.0846 9.25049C80.3049 8.03018 80.3051 6.05143 79.0846 4.83112C78.1317 3.87815 76.7163 3.6694 75.5607 4.20471C75.1981 4.06581 74.7037 3.83284 74.3399 3.66143C73.4963 3.26393 72.5402 2.81346 71.5488 2.58081C69.102 2.00659 67.6056 3.0519 66.9312 3.72627C64.8273 5.83018 65.5651 8.87159 66.104 11.0922C66.1627 11.3344 66.2354 11.6341 66.3034 11.9372C66.0002 11.8694 65.7006 11.7967 65.4584 11.7378C63.2377 11.1989 60.1963 10.461 58.0924 12.565V12.565Z" fill="#0D9E91"/>
<path d="M57.9951 6.85107C59.721 6.85107 61.1201 5.45196 61.1201 3.72607C61.1201 2.00018 59.721 0.601074 57.9951 0.601074C56.2692 0.601074 54.8701 2.00018 54.8701 3.72607C54.8701 5.45196 56.2692 6.85107 57.9951 6.85107Z" fill="#064D47"/>
<path d="M75.6729 24.5287C77.3987 24.5287 78.7979 23.1296 78.7979 21.4037C78.7979 19.6778 77.3987 18.2787 75.6729 18.2787C73.947 18.2787 72.5479 19.6778 72.5479 21.4037C72.5479 23.1296 73.947 24.5287 75.6729 24.5287Z" fill="#064D47"/>
<path d="M49.1562 33.3677C50.8821 33.3677 52.2812 31.9686 52.2812 30.2427C52.2812 28.5168 50.8821 27.1177 49.1562 27.1177C47.4304 27.1177 46.0312 28.5168 46.0312 30.2427C46.0312 31.9686 47.4304 33.3677 49.1562 33.3677Z" fill="#064D47"/>
<path d="M16.0106 23.6134C14.9856 24.6384 14.2027 25.9037 13.7461 27.273L0.487828 67.0478V67.048C-0.642953 70.4409 0.224703 74.1189 2.75236 76.6466C5.28001 79.1742 8.95798 80.0419 12.3511 78.9111L52.1261 65.6528C53.495 65.1964 54.7605 64.4134 55.7853 63.3884C59.4406 59.7331 59.4406 53.7855 55.7853 50.1302L29.2689 23.6134C25.6136 19.9581 19.6659 19.9581 16.0106 23.6134V23.6134ZM51.3659 58.9689C51.0184 59.3164 50.6091 59.5703 50.1494 59.7236L10.3749 72.9817C9.24205 73.3594 8.01486 73.0702 7.17173 72.2272C6.32861 71.3842 6.03955 70.1569 6.4172 69.0241V69.0242L19.6753 29.2497C19.8288 28.7898 20.0827 28.3805 20.43 28.033C21.6484 26.8145 23.6309 26.8145 24.8494 28.033L51.3659 54.5495C52.5844 55.7678 52.5844 57.7505 51.3659 58.9689V58.9689Z" fill="#064D47"/>
<path d="M60.2044 36.8717L62.4141 39.0813L60.2044 41.291C58.9841 42.5113 58.9839 44.4901 60.2044 45.7104C61.4249 46.9309 63.4035 46.9307 64.6238 45.7104L66.8335 43.5007L69.0432 45.7104C70.2636 46.9309 72.2422 46.9307 73.4625 45.7104C74.6829 44.4901 74.683 42.5113 73.4625 41.291L71.2529 39.0813L73.4625 36.8717C74.6829 35.6513 74.683 33.6726 73.4625 32.4523C72.2421 31.2318 70.2635 31.232 69.0432 32.4523L66.8335 34.662L64.6238 32.4523C63.4033 31.2318 61.4247 31.232 60.2044 32.4523C58.9839 33.6726 58.9839 35.6513 60.2044 36.8717V36.8717Z" fill="#064D47"/>
<path d="M46.9469 5.9358C45.7264 4.71533 43.7478 4.71549 42.5275 5.9358L40.3178 8.14549L38.1081 5.9358C36.8876 4.71533 34.909 4.71549 33.6887 5.9358C32.4684 7.15611 32.4683 9.13486 33.6887 10.3552L35.8984 12.5649L33.6887 14.7745C32.4684 15.9949 32.4683 17.9736 33.6887 19.1939C34.9092 20.4142 36.8878 20.4142 38.1081 19.1939L40.3178 16.9842L42.5275 19.1939C43.7479 20.4144 45.7265 20.4142 46.9469 19.1939C48.1672 17.9736 48.1673 15.9949 46.9469 14.7745L44.7372 12.5649L46.9469 10.3552C48.1673 9.13486 48.1673 7.15627 46.9469 5.9358Z" fill="#064D47"/>
</g>
<defs>
<clipPath id="clip0_1479_3513">
<rect width="80" height="80" fill="white"/>
</clipPath>
</defs>
</svg>
