<svg width="100" height="100" viewBox="0 0 100 100" fill="none" xmlns="http://www.w3.org/2000/svg">
<path d="M55.5625 94.426C53.8865 95.548 52.2621 96.2031 50.0938 96.2031C44.2688 96.2031 39.5469 91.4811 39.5469 85.6562V49.6406C39.5469 43.8158 44.2688 39.0938 50.0938 39.0938C52.2621 39.0938 53.8865 39.7488 55.5625 40.8709C52.7363 42.7629 50.875 45.984 50.875 49.6406V85.6562C50.875 89.3127 52.7363 92.534 55.5625 94.426ZM86.4219 85.6562V31.4766C86.4219 27.8201 88.2832 24.599 91.1094 22.7068C89.4334 21.5848 87.809 20.9297 85.6406 20.9297C79.8156 20.9297 75.0938 25.6516 75.0938 31.4766V85.6562C75.0938 91.4811 79.8156 96.2031 85.6406 96.2031C87.809 96.2031 89.4334 95.548 91.1094 94.426C88.2832 92.534 86.4219 89.3127 86.4219 85.6562ZM15.3281 85.6562V17.5469C15.3281 13.8904 17.1895 10.6693 20.0156 8.77715C18.3396 7.65527 16.7152 7 14.5469 7C8.72207 7 4 11.7219 4 17.5469V85.6562C4 91.4811 8.72207 96.2031 14.5469 96.2031C16.7152 96.2031 18.3396 95.548 20.0156 94.426C17.1895 92.534 15.3281 89.3127 15.3281 85.6562Z" fill="#CEE1F2"/>
<path d="M14.4531 100C6.48359 100 0 93.5164 0 85.5469V15.4375C0 7.46797 6.48359 0.984375 14.4531 0.984375C22.4227 0.984375 28.9062 7.46797 28.9062 15.4375V85.5469C28.9062 93.5164 22.4227 100 14.4531 100ZM14.4531 8.79688C10.7914 8.79688 7.8125 11.7758 7.8125 15.4375V85.5469C7.8125 89.2086 10.7914 92.1875 14.4531 92.1875C18.1148 92.1875 21.0938 89.2086 21.0938 85.5469V15.4375C21.0938 11.776 18.1148 8.79688 14.4531 8.79688ZM50 100C42.0305 100 35.5469 93.5164 35.5469 85.5469V49.5312C35.5469 41.5617 42.0305 35.0781 50 35.0781C57.9695 35.0781 64.4531 41.5617 64.4531 49.5312V85.5469C64.4531 93.5164 57.9695 100 50 100ZM50 42.8906C46.3383 42.8906 43.3594 45.8695 43.3594 49.5312V85.5469C43.3594 89.2086 46.3383 92.1875 50 92.1875C53.6617 92.1875 56.6406 89.2086 56.6406 85.5469V49.5312C56.6406 45.8697 53.6617 42.8906 50 42.8906ZM85.5469 100C77.5773 100 71.0938 93.5164 71.0938 85.5469V31.3672C71.0938 23.3977 77.5773 16.9141 85.5469 16.9141C93.5164 16.9141 100 23.3977 100 31.3672V85.5469C100 93.5164 93.5164 100 85.5469 100ZM85.5469 24.7266C81.8852 24.7266 78.9062 27.7055 78.9062 31.3672V85.5469C78.9062 89.2086 81.8852 92.1875 85.5469 92.1875C89.2086 92.1875 92.1875 89.2086 92.1875 85.5469V31.3672C92.1875 27.7057 89.2086 24.7266 85.5469 24.7266Z" fill="#064D47"/>
</svg>
