<svg width="512" height="512" viewBox="0 0 512 512" fill="none" xmlns="http://www.w3.org/2000/svg">
<path d="M140 120H60C48.972 120 40 111.028 40 100C40 88.972 48.972 80 60 80H180C191.046 80 200 71.046 200 60C200 48.954 191.046 40 180 40H120V20C120 8.954 111.046 0 100 0C88.954 0 80 8.954 80 20V40H60C26.916 40 0 66.916 0 100C0 133.084 26.916 160 60 160H140C151.028 160 160 168.972 160 180C160 191.028 151.028 200 140 200H20C8.954 200 0 208.954 0 220C0 231.046 8.954 240 20 240H80V260C80 271.046 88.954 280 100 280C111.046 280 120 271.046 120 260V240H140C173.084 240 200 213.084 200 180C200 146.916 173.084 120 140 120Z" fill="#0D9E91"/>
<path d="M364.347 190.478C356.873 187.382 352 180.089 352 172V92C352 80.972 343.028 72 332 72H292C280.954 72 272 63.046 272 52C272 40.954 280.954 32 292 32H332C365.084 32 392 58.916 392 92V123.716L397.857 117.858C405.668 110.047 418.332 110.047 426.142 117.858C433.952 125.668 433.952 138.332 426.142 146.142L386.142 186.142C380.423 191.861 371.82 193.574 364.347 190.478V190.478Z" fill="#064D47"/>
<path d="M180 480H140C106.916 480 80 453.084 80 420V388.284L74.143 394.142C66.332 401.953 53.668 401.953 45.858 394.142C38.048 386.332 38.048 373.668 45.858 365.858L85.858 325.858C91.578 320.139 100.179 318.426 107.654 321.523C115.127 324.618 120 331.911 120 340V420C120 431.028 128.972 440 140 440H180C191.046 440 200 448.954 200 460C200 471.046 191.046 480 180 480Z" fill="#064D47"/>
<path d="M348.037 512C341.063 512 334.097 509.291 328.858 503.897C318.589 493.324 318.85 476.441 329.441 466.189L397.806 400.01H338.008C293.41 400.238 271.025 345.008 303.175 314.189L380.234 239.529C390.821 229.274 407.731 229.526 418.005 240.094C428.28 250.664 428.026 267.545 417.44 277.802L346.353 346.676H406.156C426.584 346.676 444.767 358.883 452.479 377.775C460.195 396.678 455.735 418.109 441.115 432.373L366.63 504.477C361.441 509.5 354.735 512 348.037 512V512Z" fill="#0D9E91"/>
</svg>
