<svg width="416" height="480" viewBox="0 0 416 480" fill="none" xmlns="http://www.w3.org/2000/svg">
<path d="M272 64H48C21.4903 64 0 85.4903 0 112V432C0 458.51 21.4903 480 48 480H272C298.51 480 320 458.51 320 432V112C320 85.4903 298.51 64 272 64Z" fill="#0D9E91"/>
<path d="M416 48V368C415.962 380.719 410.893 392.906 401.899 401.899C392.906 410.893 380.719 415.962 368 416H352V112C352 90.7827 343.571 70.4344 328.568 55.4315C313.566 40.4285 293.217 32 272 32H98.8799C102.181 22.6632 108.289 14.576 116.367 8.84701C124.445 3.11805 134.097 0.0278322 144 0H368C380.719 0.0379854 392.906 5.10731 401.899 14.1008C410.893 23.0944 415.962 35.2813 416 48Z" fill="#0D9E91"/>
</g>
<defs>
<clipPath id="clip0_2838_2319">
<rect width="416" height="480" fill="white"/>
</clipPath>
</defs>
</svg>
