<svg width="32" height="32" viewBox="0 0 32 32" fill="none" xmlns="http://www.w3.org/2000/svg">
<path d="M6.375 30.1813C5.83869 30.5404 5.31887 30.75 4.625 30.75C2.761 30.75 1.25 29.2389 1.25 27.375V5.25C1.25 3.38606 2.761 1.875 4.625 1.875C5.31887 1.875 5.83869 2.08462 6.375 2.44369C5.47062 3.04919 4.875 4.07994 4.875 5.25V27.375C4.875 28.5451 5.47062 29.5758 6.375 30.1813ZM16.25 27.375V13.3125C16.25 12.1424 16.8456 11.1117 17.75 10.5062C17.2137 10.1471 16.6939 9.9375 16 9.9375C14.136 9.9375 12.625 11.4485 12.625 13.3125V27.375C12.625 29.2389 14.136 30.75 16 30.75C16.6939 30.75 17.2137 30.5404 17.75 30.1813C16.8456 29.5758 16.25 28.5451 16.25 27.375ZM27.625 27.375V22.75C27.625 21.5799 28.2206 20.5492 29.125 19.9437C28.5887 19.5846 28.0689 19.375 27.375 19.375C25.5111 19.375 24 20.886 24 22.75V27.375C24 29.2389 25.5111 30.75 27.375 30.75C28.0689 30.75 28.5887 30.5404 29.125 30.1813C28.2206 29.5758 27.625 28.5451 27.625 27.375Z" fill="#CEE1F2"/>
<path d="M4.625 32C7.17525 32 9.25 29.9253 9.25 27.375V4.625C9.25 2.07475 7.17525 0 4.625 0C2.07475 0 0 2.07475 0 4.625V27.375C0 29.9253 2.07475 32 4.625 32ZM4.625 2.5C5.79675 2.5 6.75 3.45325 6.75 4.625V27.375C6.75 28.5467 5.79675 29.5 4.625 29.5C3.45325 29.5 2.5 28.5467 2.5 27.375V4.625C2.5 3.45325 3.45325 2.5 4.625 2.5ZM27.375 32C29.9253 32 32 29.9253 32 27.375V22.25C32 19.6997 29.9253 17.625 27.375 17.625C24.8247 17.625 22.75 19.6997 22.75 22.25V27.375C22.75 29.9253 24.8247 32 27.375 32ZM27.375 20.125C28.5468 20.125 29.5 21.0783 29.5 22.25V27.375C29.5 28.5467 28.5468 29.5 27.375 29.5C26.2032 29.5 25.25 28.5467 25.25 27.375V22.25C25.25 21.0783 26.2032 20.125 27.375 20.125ZM16 32C18.5503 32 20.625 29.9253 20.625 27.375V13.3125C20.625 10.7622 18.5503 8.6875 16 8.6875C13.4497 8.6875 11.375 10.7622 11.375 13.3125V27.375C11.375 29.9253 13.4497 32 16 32ZM16 11.1875C17.1718 11.1875 18.125 12.1407 18.125 13.3125V27.375C18.125 28.5467 17.1718 29.5 16 29.5C14.8283 29.5 13.875 28.5467 13.875 27.375V13.3125C13.875 12.1407 14.8283 11.1875 16 11.1875Z" fill="#064D47"/>
<path d="M31.1254 10.1458C31.1254 8.19294 29.3886 6.60419 27.2539 6.60419C26.3465 6.60419 25.6879 6.16606 25.6879 5.5625C25.6879 4.98812 26.1505 4.52081 26.7191 4.52081C27.2924 4.52081 28.0391 4.58331 29.2313 5.04694C29.8747 5.29719 30.5992 4.97831 30.8494 4.335C31.0995 3.69156 30.7808 2.96712 30.1374 2.71694C29.5169 2.47563 28.9757 2.31731 28.5004 2.21312V1.25C28.5004 0.559625 27.9407 0 27.2504 0C26.56 0 26.0004 0.559625 26.0004 1.25V2.09475C24.3967 2.42862 23.1879 3.85656 23.1879 5.5625C23.1879 7.58162 24.9359 9.10419 27.2539 9.10419C27.9973 9.10419 28.6254 9.58119 28.6254 10.1458C28.6254 10.7007 28.1094 11.1875 27.5212 11.1875C27.0622 11.1875 25.9107 11.0192 24.7745 10.5676C24.133 10.3126 23.4062 10.6259 23.1512 11.2674C22.8962 11.909 23.2096 12.6358 23.8511 12.8908C24.575 13.1786 25.3302 13.3838 26.0003 13.5139V14.25C26.0003 14.9404 26.5599 15.5 27.2503 15.5C27.9407 15.5 28.5003 14.9404 28.5003 14.25V13.5519C29.0719 13.3912 29.6 13.0906 30.0402 12.6664C30.74 11.9921 31.1254 11.0969 31.1254 10.1458Z" fill="#0D9E91"/>
</svg>
