<svg width="32" height="32" viewBox="0 0 32 32" fill="none" xmlns="http://www.w3.org/2000/svg">
<path d="M8.75 29.5H23.25C23.9404 29.5 24.5 28.9404 24.5 28.25C24.5 27.5596 23.9404 27 23.25 27H8.75C8.05963 27 7.5 27.5596 7.5 28.25C7.5 28.9404 8.05963 29.5 8.75 29.5Z" fill="#0D9E91"/>
<path d="M28.25 15H27V11.25C27 10.5596 26.4404 10 25.75 10C25.0596 10 24.5 10.5596 24.5 11.25V15H22.7726L24.3681 11.809C24.6768 11.1915 24.4265 10.4407 23.8091 10.1319C23.1916 9.82319 22.4408 10.0735 22.132 10.6909L19.9774 15H12.25V12.5H16C18.0677 12.5 19.75 10.8177 19.75 8.75V3.75C19.75 1.68225 18.0677 0 16 0H6C3.93225 0 2.25 1.68225 2.25 3.75V8.75C2.25 10.8177 3.93225 12.5 6 12.5H9.75V15H3.75C1.68225 15 0 16.6823 0 18.75C0 20.3796 1.04513 21.769 2.5 22.285V30.75C2.5 31.4404 3.05963 32 3.75 32C4.44037 32 5 31.4404 5 30.75V22.5H27V30.75C27 31.4404 27.5596 32 28.25 32C28.9404 32 29.5 31.4404 29.5 30.75V22.285C30.9549 21.769 32 20.3796 32 18.75C32 16.6823 30.3177 15 28.25 15ZM6 10C5.31075 10 4.75 9.43925 4.75 8.75V3.75C4.75 3.06075 5.31075 2.5 6 2.5H16C16.6893 2.5 17.25 3.06075 17.25 3.75V8.75C17.25 9.43925 16.6893 10 16 10H6ZM28.25 20H3.75C3.06075 20 2.5 19.4393 2.5 18.75C2.5 18.0607 3.06075 17.5 3.75 17.5H28.25C28.9393 17.5 29.5 18.0607 29.5 18.75C29.5 19.4393 28.9393 20 28.25 20Z" fill="white"/>
</svg>
