<svg width="33" height="39" viewBox="0 0 33 39" fill="none" xmlns="http://www.w3.org/2000/svg">
<path fill-rule="evenodd" clip-rule="evenodd" d="M1.41391 20.5858C2.19496 19.8048 3.46129 19.8048 4.24234 20.5858L17.4139 33.7574C18.195 34.5385 18.195 35.8048 17.4139 36.5858C16.6329 37.3669 15.3665 37.3669 14.5855 36.5858L1.41391 23.4143C0.632863 22.6332 0.632863 21.3669 1.41391 20.5858Z" fill="#0D9E91"/>
<path fill-rule="evenodd" clip-rule="evenodd" d="M31.4139 21.4142C32.195 22.1952 32.195 23.4615 31.4139 24.2426L18.2423 37.4142C17.4613 38.1952 16.195 38.1952 15.4139 37.4142C14.6329 36.6331 14.6329 35.3668 15.4139 34.5857L28.5855 21.4142C29.3665 20.6331 30.6329 20.6331 31.4139 21.4142Z" fill="#0D9E91"/>
<path fill-rule="evenodd" clip-rule="evenodd" d="M17 8.74227e-08C18.1046 3.91405e-08 19 0.895431 19 2L19 36C19 37.1046 18.1046 38 17 38C15.8954 38 15 37.1046 15 36L15 2C15 0.895431 15.8954 1.35705e-07 17 8.74227e-08Z" fill="#0D9E91"/>
</svg>
