<svg width="512" height="512" viewBox="0 0 512 512" fill="none" xmlns="http://www.w3.org/2000/svg">
<path d="M276 20H216C193.909 20 176 37.909 176 60V140H236V60C236 37.909 253.909 20 276 20Z" fill="#CEE1F2"/>
<path d="M456 312H416C404.954 312 396 303.046 396 292V252C396 240.954 404.954 232 416 232C427.046 232 436 240.954 436 252V272H456C467.046 272 476 280.954 476 292C476 303.046 467.046 312 456 312Z" fill="#0D9E91"/>
<path d="M492 472H429.541L356 288.148V160H456C467.046 160 476 151.046 476 140C476 128.954 467.046 120 456 120H436V100C436 88.954 427.046 80 416 80C404.954 80 396 88.954 396 100V120H356V60C356 26.916 329.084 0 296 0H216C182.916 0 156 26.916 156 60V120H116V100C116 88.954 107.046 80 96 80C84.954 80 76 88.954 76 100V120H56C44.954 120 36 128.954 36 140C36 151.046 44.954 160 56 160H156V272H116V252C116 240.954 107.046 232 96 232C84.954 232 76 240.954 76 252V272H56C44.954 272 36 280.954 36 292C36 303.046 44.954 312 56 312H146.459L82.459 472H20C8.954 472 0 480.954 0 492C0 503.046 8.954 512 20 512H492C503.046 512 512 503.046 512 492C512 480.954 503.046 472 492 472ZM196 60C196 48.972 204.972 40 216 40H296C307.028 40 316 48.972 316 60V120H196V60ZM196 160H316V272H196V160ZM189.54 312H322.46L370.942 433.207L292 374C270.804 358.102 241.196 358.102 220 374L141.058 433.207L189.54 312ZM244 406C251.065 400.7 260.935 400.7 268 406L356 472H156L244 406Z" fill="#064D47"/>
</g>
<defs>
<clipPath id="clip0_2712_2409">
<rect width="512" height="512" fill="white"/>
</clipPath>
</defs>
</svg>
