<svg width="100%" height="100%" viewBox="0 0 40 40" fill="none" xmlns="http://www.w3.org/2000/svg">
<g clip-path="url(#clip0_1479_2549)">
<path d="M17.401 26.926L16.0166 34.8407L14.1939 37.7105C13.1371 39.1841 10.8092 38.2277 11.0998 36.4394L13.2014 23.5149H14.4544C16.2715 23.5149 17.6651 25.1281 17.401 26.926ZM8.68181 24.5647C7.1001 23.5889 6.47757 21.4069 7.70786 19.6911L15.5479 7.1901L16.1991 3.55913C16.488 1.77129 14.1611 0.816485 13.1049 2.28946L2.21672 19.6911C0.581591 21.9714 2.21805 25.0771 5.03123 25.0771H8.55722C8.59503 24.9055 8.63619 24.7346 8.68181 24.5647Z" fill="#CEE1F2"/>
<path d="M12.8261 40C12.3998 40 11.965 39.9156 11.5419 39.7409C10.1061 39.148 9.30862 37.7205 9.55755 36.1888L11.1296 26.6392H5.03083C3.12739 26.6392 1.41133 25.5999 0.552368 23.9269C-0.287772 22.2907 -0.147488 20.3407 0.915731 18.8246L11.7801 1.46079C11.7976 1.43299 11.8158 1.40573 11.835 1.37909C12.741 0.115523 14.3163 -0.334775 15.7546 0.258541C17.1902 0.850529 17.9884 2.27711 17.741 3.80828L16.1412 13.4315H22.1868C24.0998 13.4315 25.8193 14.4658 26.6741 16.1309C27.5157 17.7701 27.3762 19.6553 26.3032 21.1849L15.5203 38.5351C15.5022 38.5643 15.4831 38.5929 15.4631 38.6209C14.8231 39.5131 13.8495 39.9999 12.8261 40ZM14.3955 3.17115C14.3955 3.17115 3.50497 20.5748 3.48583 20.6015C2.89205 21.4294 3.18027 22.2048 3.33172 22.4998C3.65806 23.1354 4.29324 23.5149 5.03075 23.5149H12.9699C13.4286 23.5149 13.864 23.7165 14.1608 24.0662C14.4577 24.4158 14.5858 24.8782 14.5113 25.3308L12.6409 36.6932C12.6308 36.7553 12.6225 36.8067 12.7344 36.8531C12.8283 36.8917 12.8695 36.8678 12.9015 36.8299L23.6744 19.4956C23.6925 19.4664 23.7117 19.4378 23.7317 19.4098C24.3175 18.5928 24.0408 17.8426 23.8947 17.5579C23.5725 16.9304 22.934 16.5558 22.1868 16.5558H14.2978C13.8386 16.5558 13.4028 16.3538 13.106 16.0037C12.8092 15.6534 12.6814 15.1904 12.7567 14.7374L14.6576 3.30284C14.6671 3.24457 14.6754 3.19302 14.5634 3.14685C14.4686 3.1078 14.4276 3.13256 14.3955 3.17115Z" fill="#064D47"/>
<path d="M30.4652 24.8429C30.1486 24.8429 29.8292 24.7469 29.5528 24.5477C28.853 24.0431 28.6948 23.0667 29.1994 22.3669L36.7775 11.8572C36.8152 11.8046 36.9359 11.6366 36.8281 11.4265C36.7891 11.3504 36.6656 11.1736 36.3612 11.1736H30.7008C30.2438 11.1736 29.8098 10.9735 29.513 10.6261C29.2162 10.2786 29.0864 9.81866 29.1577 9.36735L29.8873 4.75595L26.1148 10.0495C25.614 10.7522 24.6385 10.9157 23.9359 10.415C23.2333 9.91435 23.0697 8.93884 23.5704 8.23617L28.6621 1.09162C29.3698 0.105807 30.6424 -0.257165 31.7602 0.204147C32.8753 0.664599 33.5197 1.81686 33.3272 3.00646L32.5295 8.04934H36.3612C37.7464 8.04934 38.9904 8.79684 39.6079 10.0003C40.2117 11.1772 40.099 12.588 39.3135 13.6821L31.7335 24.1943C31.4283 24.6176 30.9502 24.8429 30.4652 24.8429Z" fill="#0D9E91"/>
</g>
</svg>
