<svg width="513" height="512" viewBox="0 0 513 512" fill="none" xmlns="http://www.w3.org/2000/svg">
<path d="M467.279 76H45.2793C20.4163 76 0.279297 96.262 0.279297 121V391C0.279297 415.885 20.5643 436 45.2793 436H467.279C491.934 436 512.279 415.97 512.279 391V121C512.279 96.306 492.222 76 467.279 76ZM460.977 106C451.783 115.145 293.562 272.533 288.099 277.967C279.599 286.467 268.299 291.147 256.279 291.147C244.259 291.147 232.959 286.466 224.431 277.939C220.757 274.284 64.2823 118.634 51.5813 106H460.977ZM30.2793 384.894V127.125L159.917 256.08L30.2793 384.894ZM51.6003 406L181.187 277.237L203.246 299.18C217.412 313.346 236.246 321.147 256.279 321.147C276.312 321.147 295.146 313.346 309.284 299.208L331.371 277.237L460.958 406H51.6003ZM482.279 384.894L352.641 256.08L482.279 127.125V384.894Z" fill="#0D9E91"/>
</g>
<defs>
<clipPath id="clip0_2838_2352">
<rect width="512" height="512" fill="white" transform="translate(0.279297)"/>
</clipPath>
</defs>
</svg>
