<svg width="100%" height="100%" viewBox="0 0 40 40" fill="none" xmlns="http://www.w3.org/2000/svg">
<path d="M6.25 26.25C6.25 24.5241 7.64914 23.125 9.375 23.125H4.6875C2.96164 23.125 1.5625 24.5241 1.5625 26.25C1.5625 29.7018 4.3607 32.5 7.8125 32.5C8.64164 32.5 9.43227 32.3371 10.1562 32.044C7.86617 31.1166 6.25 28.8727 6.25 26.25Z" fill="#CEE1F2"/>
<path d="M23.125 0H16.875C16.012 0 15.3125 0.699531 15.3125 1.5625C15.3125 2.42547 16.012 3.125 16.875 3.125H23.125C23.988 3.125 24.6875 2.42547 24.6875 1.5625C24.6875 0.699531 23.988 0 23.125 0Z" fill="#0D9E91"/>
<path d="M20 18.4375C19.137 18.4375 18.4375 19.137 18.4375 20V36.8751H13.75C12.887 36.8751 12.1875 37.5746 12.1875 38.4376C12.1875 39.3005 12.887 40.0001 13.75 40.0001H26.25C27.113 40.0001 27.8125 39.3005 27.8125 38.4376C27.8125 37.5746 27.113 36.8751 26.25 36.8751H21.5625V20C21.5625 19.137 20.863 18.4375 20 18.4375Z" fill="#064D47"/>
<path d="M10.9375 21.5625H4.6875C2.10281 21.5625 0 23.6653 0 26.25C0 30.5578 3.50461 34.0625 7.8125 34.0625C12.1204 34.0625 15.625 30.5578 15.625 26.25C15.625 23.6653 13.5222 21.5625 10.9375 21.5625ZM7.8125 30.9375C5.22781 30.9375 3.125 28.8347 3.125 26.25C3.125 25.3884 3.82594 24.6875 4.6875 24.6875H10.9375C11.7991 24.6875 12.5 25.3884 12.5 26.25C12.5 28.8347 10.3972 30.9375 7.8125 30.9375Z" fill="#064D47"/>
<path d="M35.3125 21.5625H29.0625C26.4778 21.5625 24.375 23.6653 24.375 26.25C24.375 30.5578 27.8796 34.0625 32.1875 34.0625C36.4954 34.0625 40 30.5578 40 26.25C40 23.6653 37.8972 21.5625 35.3125 21.5625ZM32.1875 30.9375C29.6028 30.9375 27.5 28.8347 27.5 26.25C27.5 25.3884 28.2009 24.6875 29.0625 24.6875H35.3125C36.1741 24.6875 36.875 25.3884 36.875 26.25C36.875 28.8347 34.7722 30.9375 32.1875 30.9375Z" fill="#064D47"/>
<path d="M38.4375 9.0625H24.4188C23.7738 7.24391 22.037 5.9375 20 5.9375C17.963 5.9375 16.2263 7.24391 15.5813 9.0625H1.5625C0.699531 9.0625 0 9.76203 0 10.625C0 11.488 0.699531 12.1875 1.5625 12.1875H6.25V16.875C6.25 17.738 6.94953 18.4375 7.8125 18.4375C8.67547 18.4375 9.375 17.738 9.375 16.875V12.1875H15.5813C16.2262 14.0061 17.963 15.3125 20 15.3125C22.037 15.3125 23.7737 14.0061 24.4188 12.1875H30.625V16.875C30.625 17.738 31.3245 18.4375 32.1875 18.4375C33.0505 18.4375 33.75 17.738 33.75 16.875V12.1875H38.4375C39.3005 12.1875 40 11.488 40 10.625C40 9.76203 39.3005 9.0625 38.4375 9.0625ZM20 12.1875C19.1384 12.1875 18.4375 11.4866 18.4375 10.625C18.4375 9.76344 19.1384 9.0625 20 9.0625C20.8616 9.0625 21.5625 9.76344 21.5625 10.625C21.5625 11.4866 20.8616 12.1875 20 12.1875Z" fill="#064D47"/>
</svg>
