<svg width="50" height="48" viewBox="0 0 50 48" fill="none" xmlns="http://www.w3.org/2000/svg">
<g clip-path="url(#clip0_1479_3191)">
<path d="M14.379 17.2694C14.379 9.2199 20.171 3.31259 27.7949 2.13085C26.887 1.99012 25.9531 1.91653 24.9999 1.91418C16.0427 1.93609 8.78906 8.26138 8.78906 17.2694C8.78906 28.4586 20.2485 36.7451 20.2485 36.7451H29.0039C29.0039 36.7451 14.379 27.85 14.379 17.2694Z" fill="#CEE1F2"/>
<path d="M28.9062 47.9811H20.9961C20.1484 47.9811 19.3976 47.4569 19.1373 46.6834L18.1607 43.7807C17.8296 42.7965 18.3934 41.7411 19.42 41.4236C20.4467 41.1058 21.5472 41.6466 21.8784 42.631L22.4184 44.2359H27.4841L28.024 42.631C28.3553 41.6467 29.4557 41.1066 30.4824 41.4236C31.5091 41.7411 32.0728 42.7965 31.7417 43.7807L30.7651 46.6834C30.5048 47.4569 29.7539 47.9811 28.9062 47.9811ZM30.8283 38.2447C30.9545 38.1542 33.9516 35.9877 36.9613 32.3713C41.0191 27.4955 43.1641 22.2733 43.1641 17.2695C43.1641 12.4513 41.26 8.04336 37.8026 4.8574C34.463 1.78015 29.9524 0.0726636 25.089 0.0414838C25.0749 0.0412029 25.0606 0.0410156 25.0466 0.0410156H24.9535C24.9394 0.0410156 24.9252 0.0412029 24.911 0.0414838C20.0476 0.0726636 15.537 1.78015 12.1974 4.8575C8.74004 8.04336 6.83594 12.4513 6.83594 17.2695C6.83594 22.2707 8.96299 27.4907 12.9873 32.3656C15.9732 35.9825 18.9473 38.1497 19.0725 38.2403C19.4113 38.4853 19.8241 38.6178 20.2485 38.6178H29.6583C30.0802 38.6178 30.4906 38.4869 30.8283 38.2447ZM10.7422 17.2695C10.7422 9.59739 16.8682 3.80825 25 3.78643C33.1318 3.80825 39.2578 9.59739 39.2578 17.2695C39.2578 26.1155 31.0706 33.2023 28.9727 34.8725H20.9389C18.8462 33.1918 10.7422 26.1098 10.7422 17.2695Z" fill="#064D47"/>
<path d="M23.2405 28.3183C22.8417 28.3183 22.4393 28.2016 22.0922 27.9592C21.2203 27.3503 21.0283 26.1789 21.6634 25.343L25.1649 20.7339H20.8984C20.1668 20.7339 19.4966 20.3419 19.1618 19.7181C18.827 19.0944 18.8839 18.3436 19.3092 17.7728L25.1686 9.90759C25.7956 9.06593 27.0154 8.87098 27.8931 9.47229C28.7708 10.0734 28.9741 11.243 28.3471 12.0846L24.6938 16.9886H29.0039C29.7388 16.9886 30.4114 17.3841 30.7446 18.0121C31.0779 18.6401 31.0152 19.3943 30.5826 19.9639L24.8209 27.5481C24.4387 28.0512 23.8437 28.3183 23.2405 28.3183ZM45.1172 11.7451C45.1172 13.0379 46.2103 14.086 47.5586 14.086C48.9069 14.086 50 13.0379 50 11.7451C50 10.4523 48.9069 9.40431 47.5586 9.40431C46.2103 9.40431 45.1172 10.4523 45.1172 11.7451ZM44.8242 22.3257C44.8242 23.6185 45.9173 24.6665 47.2656 24.6665C48.614 24.6665 49.707 23.6185 49.707 22.3257C49.707 21.0329 48.614 19.9848 47.2656 19.9848C45.9173 19.9848 44.8242 21.0329 44.8242 22.3257ZM0 11.7451C0 13.0379 1.09307 14.086 2.44141 14.086C3.78975 14.086 4.88281 13.0379 4.88281 11.7451C4.88281 10.4523 3.78975 9.40431 2.44141 9.40431C1.09307 9.40431 0 10.4523 0 11.7451ZM0.390625 22.3257C0.390625 23.6185 1.48369 24.6665 2.83203 24.6665C4.18037 24.6665 5.27344 23.6185 5.27344 22.3257C5.27344 21.0329 4.18037 19.9848 2.83203 19.9848C1.48369 19.9848 0.390625 21.0329 0.390625 22.3257ZM4.88281 2.38184C4.88281 3.67463 5.97588 4.72267 7.32422 4.72267C8.67256 4.72267 9.76562 3.67463 9.76562 2.38184C9.76562 1.08905 8.67256 0.0410156 7.32422 0.0410156C5.97588 0.0410156 4.88281 1.08905 4.88281 2.38184ZM40.4297 2.38184C40.4297 3.67463 41.5228 4.72267 42.8711 4.72267C44.2194 4.72267 45.3125 3.67463 45.3125 2.38184C45.3125 1.08905 44.2194 0.0410156 42.8711 0.0410156C41.5228 0.0410156 40.4297 1.08905 40.4297 2.38184Z" fill="#0D9E91"/>
</g>
</svg>
