<svg width="32" height="32" viewBox="0 0 32 32" fill="none" xmlns="http://www.w3.org/2000/svg">
<path d="M12.25 18.75C12.25 18.4735 12.2949 18.2075 12.3777 17.9589L17.3777 2.95887C17.4848 2.6375 17.6558 2.34537 17.875 2.09694C17.4169 1.57775 16.7469 1.25 16 1.25C14.8958 1.25 13.9587 1.96587 13.6277 2.95887L8.62769 17.9589C8.54487 18.2075 8.5 18.4735 8.5 18.75C8.5 20.1307 9.61931 21.25 11 21.25H14.75C13.3693 21.25 12.25 20.1307 12.25 18.75Z" fill="#CEE1F2"/>
<path d="M7.25 18.75C7.25 20.8177 8.93225 22.5 11 22.5H21C23.0677 22.5 24.75 20.8177 24.75 18.75C24.75 18.3448 24.6854 17.9457 24.5581 17.5636L19.5581 2.56363C19.0471 1.03025 17.6172 0 16 0C14.3828 0 12.9529 1.03025 12.4419 2.56356L7.44187 17.5637C7.31456 17.9457 7.25 18.3448 7.25 18.75ZM9.81356 18.3542L14.8136 3.35419C14.9839 2.84325 15.4607 2.5 16 2.5C16.5394 2.5 17.0161 2.84325 17.1864 3.35419L22.1864 18.3541C22.2286 18.4808 22.2501 18.6139 22.2501 18.75C22.2501 19.4392 21.6893 20 21.0001 20H11C10.3108 20 9.75 19.4392 9.75 18.75C9.75 18.6139 9.77137 18.4807 9.81356 18.3542V18.3542Z" fill="#064D47"/>
<path d="M23.25 0C23.0411 0 22.8314 0.0174375 22.6264 0.0518125C21.9455 0.166 21.4862 0.810562 21.6004 1.49137C21.7146 2.17219 22.3592 2.63169 23.04 2.51737C23.1087 2.50581 23.1793 2.5 23.25 2.5C23.7894 2.5 24.2661 2.84325 24.4364 3.35419L29.4364 18.3541C29.4786 18.4808 29.5001 18.6139 29.5001 18.75C29.5001 19.4392 28.9393 20 28.2501 20H27.8217C27.1314 20 26.5717 20.5596 26.5717 21.25C26.5717 21.9404 27.1314 22.5 27.8217 22.5H28.25C30.3177 22.5 32 20.8177 32 18.75C32 18.3448 31.9354 17.9457 31.8081 17.5636L26.8081 2.56363C26.297 1.03025 24.8672 0 23.25 0Z" fill="#064D47"/>
<path d="M3.75 22.5H4.17837C4.86875 22.5 5.42837 21.9404 5.42837 21.25C5.42837 20.5596 4.86875 20 4.17837 20H3.75C3.06075 20 2.5 19.4392 2.5 18.75C2.5 18.6139 2.52137 18.4807 2.56356 18.3542L7.56356 3.35419C7.73387 2.84325 8.21062 2.5 8.75 2.5C8.82062 2.5 8.89119 2.50581 8.95963 2.51731C9.64056 2.6315 10.2849 2.17206 10.3991 1.49125C10.5133 0.810375 10.0539 0.165938 9.37306 0.05175C9.16837 0.0174375 8.95875 0 8.75 0C7.13281 0 5.70294 1.03025 5.19187 2.56356L0.191875 17.5637C0.0645625 17.9457 0 18.3448 0 18.75C0 20.8177 1.68225 22.5 3.75 22.5V22.5Z" fill="#064D47"/>
<path d="M1.25 32H6.25C6.94037 32 7.5 31.4404 7.5 30.75V25.75C7.5 25.0596 6.94037 24.5 6.25 24.5C5.55963 24.5 5 25.0596 5 25.75V29.5H1.25C0.559625 29.5 0 30.0596 0 30.75C0 31.4404 0.559625 32 1.25 32Z" fill="#064D47"/>
<path d="M30.75 29.5H27.25V25.75C27.25 25.0596 26.6904 24.5 26 24.5C25.3096 24.5 24.75 25.0596 24.75 25.75V29.5H17.25V25.75C17.25 25.0596 16.6904 24.5 16 24.5C15.3096 24.5 14.75 25.0596 14.75 25.75V29.5H11C10.3096 29.5 9.75 30.0596 9.75 30.75C9.75 31.4404 10.3096 32 11 32H30.75C31.4404 32 32 31.4404 32 30.75C32 30.0596 31.4404 29.5 30.75 29.5Z" fill="#064D47"/>
<path d="M18.5 17.5C19.1904 17.5 19.75 16.9404 19.75 16.25C19.75 15.5596 19.1904 15 18.5 15C17.8096 15 17.25 15.5596 17.25 16.25C17.25 16.9404 17.8096 17.5 18.5 17.5Z" fill="#0D9E91"/>
<path d="M16 12.5C16.6904 12.5 17.25 11.9404 17.25 11.25C17.25 10.5596 16.6904 10 16 10C15.3096 10 14.75 10.5596 14.75 11.25C14.75 11.9404 15.3096 12.5 16 12.5Z" fill="#0D9E91"/>
</g>
<defs>
<clipPath id="clip0_1831_3304">
<rect width="32" height="32" fill="white"/>
</clipPath>
</defs>
</svg>
