<svg width="24" height="24" viewBox="0 0 24 24" fill="none" xmlns="http://www.w3.org/2000/svg">
<path d="M3.75 21.1875C3.75 16.0618 7.5 13.1881 7.5 8.0625C7.5 7.02694 8.33944 6.1875 9.375 6.1875H6.5625C5.52694 6.1875 4.6875 7.02694 4.6875 8.0625C4.6875 13.1881 0.9375 16.0618 0.9375 21.1875C0.9375 22.223 1.77694 23.0625 2.8125 23.0625H5.625C4.58944 23.0625 3.75 22.223 3.75 21.1875Z" fill="#CEE1F2"/>
<path d="M10.6337 24H2.8125C1.26169 24 0 22.7383 0 21.1875C0 18.4158 0.99825 16.2863 1.96369 14.227C2.8823 12.2674 3.75 10.4164 3.75 8.0625C3.75 6.51169 5.01169 5.25 6.5625 5.25H14.0625C15.6133 5.25 16.875 6.51169 16.875 8.0625C16.875 10.1428 17.5778 11.8627 18.2365 13.3116C18.4508 13.7829 18.2424 14.3388 17.7711 14.553C17.2997 14.7675 16.7439 14.559 16.5297 14.0876C15.7896 12.4599 15 10.5176 15 8.0625C15 7.54556 14.5794 7.125 14.0625 7.125H6.5625C6.04556 7.125 5.625 7.54556 5.625 8.0625C5.625 10.8341 4.62675 12.9636 3.66136 15.0229C2.7427 16.9825 1.875 18.8335 1.875 21.1875C1.875 21.7044 2.29556 22.125 2.8125 22.125H10.6337C11.1515 22.125 11.5712 22.5447 11.5712 23.0625C11.5712 23.5803 11.1515 24 10.6337 24Z" fill="#064D47"/>
<path d="M8.4375 3.75C7.91972 3.75 7.5 3.33028 7.5 2.8125C7.5 1.26169 8.76169 0 10.3125 0H12.1875C12.7053 0 13.125 0.419719 13.125 0.9375C13.125 1.45528 12.7053 1.875 12.1875 1.875H10.3125C9.79556 1.875 9.375 2.29556 9.375 2.8125C9.375 3.33028 8.95528 3.75 8.4375 3.75Z" fill="#064D47"/>
<path d="M21.5625 1.875H15.9375C15.4197 1.875 15 1.45528 15 0.9375C15 0.419719 15.4197 0 15.9375 0H21.5625C22.0803 0 22.5 0.419719 22.5 0.9375C22.5 1.45528 22.0803 1.875 21.5625 1.875Z" fill="#064D47"/>
<path d="M19.6875 5.25H17.8125C17.2947 5.25 16.875 4.83028 16.875 4.3125C16.875 3.79472 17.2947 3.375 17.8125 3.375H19.6875C20.2053 3.375 20.625 3.79472 20.625 4.3125C20.625 4.83028 20.2053 5.25 19.6875 5.25Z" fill="#064D47"/>
<path d="M21.1875 24H15.5625C14.0117 24 12.75 22.7383 12.75 21.1875C12.75 18.6028 14.8528 16.5 17.4375 16.5H19.3125C21.8972 16.5 24 18.6028 24 21.1875C24 22.7383 22.7383 24 21.1875 24ZM17.4375 18.375C15.8867 18.375 14.625 19.6367 14.625 21.1875C14.625 21.7044 15.0456 22.125 15.5625 22.125H21.1875C21.7044 22.125 22.125 21.7044 22.125 21.1875C22.125 19.6367 20.8633 18.375 19.3125 18.375H17.4375Z" fill="#064D47"/>
<path d="M10.2884 18.4688C10.1722 18.4688 10.0542 18.4425 9.94314 18.3869C9.5611 18.1959 9.40622 17.7313 9.59726 17.3493L10.5845 15.3749H8.74218C8.47411 15.3749 8.22517 15.2362 8.08425 15.0082C7.94333 14.7802 7.93053 14.4954 8.05041 14.2557L9.5973 11.1621C9.78834 10.78 10.2529 10.6252 10.635 10.8162C11.017 11.0072 11.1719 11.4718 10.9809 11.8538L9.99365 13.8282H11.8359C12.104 13.8282 12.353 13.967 12.4939 14.195C12.6348 14.423 12.6476 14.7077 12.5277 14.9474L10.9808 18.0411C10.8453 18.3121 10.5721 18.4687 10.2884 18.4688Z" fill="#0D9E91"/>
</svg>
