<svg width="512" height="512" viewBox="0 0 512 512" fill="none" xmlns="http://www.w3.org/2000/svg">
<path d="M203.029 135C203.029 83.877 236.391 40.554 282.529 25.593C271.347 21.968 259.419 20 247.029 20C183.516 20 132.029 71.487 132.029 135C132.029 198.513 183.516 250 247.029 250C259.419 250 271.347 248.032 282.529 244.407C236.391 229.446 203.029 186.123 203.029 135Z" fill="#CEE1F2"/>
<path d="M256.029 270C330.468 270 391.029 209.439 391.029 135C391.029 60.561 330.468 0 256.029 0C181.59 0 121.029 60.561 121.029 135C121.029 209.439 181.589 270 256.029 270ZM256.029 40C308.412 40 351.029 82.617 351.029 135C351.029 187.383 308.412 230 256.029 230C203.646 230 161.029 187.383 161.029 135C161.029 82.617 203.646 40 256.029 40Z" fill="#064D47"/>
<path d="M505.803 381.875C492.764 356.825 463.08 345.936 435.447 356.421C416.177 363.735 392.615 372.675 366.969 379.747C369.335 368.359 368.155 356.3 363.425 344.835C356.529 328.119 342.356 315.682 324.541 310.713C315.435 308.173 305.549 307.601 295.156 309.014C226.628 318.335 185.831 295.163 149.833 274.72C125.636 260.979 102.783 248 76.029 248C42.029 248 14.055 258.913 14.055 258.913C3.513 262.212 -2.357 273.432 0.942001 283.974C4.241 294.515 15.459 300.389 26.003 297.087C26.003 297.087 50.029 288 76.029 288C92.217 288 108.925 297.489 130.08 309.502C161.756 327.49 203.346 351.113 265.168 351.111C276.284 351.111 288.063 350.346 300.546 348.649C305.436 347.984 310.019 348.189 313.795 349.242C318.011 350.418 323.628 353.255 326.449 360.09C328.637 365.392 328.746 370.353 326.773 374.836C324.354 380.335 318.84 384.892 311.251 387.667C300.296 391.672 285.757 393.806 268.029 394C249.016 394.14 229.439 391.947 213.112 387.657C202.429 384.849 191.492 391.235 188.685 401.918C185.878 412.601 192.263 423.537 202.946 426.344C222.065 431.368 245.029 434.001 267.029 434.001C343.027 433.66 408.17 409.56 449.639 393.819C456.591 391.182 465.977 391.996 470.168 400.051C473.92 407.259 471.326 416.551 464.179 420.369C413.984 447.185 355.735 472 270.141 472C193.942 472 123.754 442.595 78.292 417.928C43.271 398.926 17.679 404.928 14.877 405.675L14.889 405.72C6.338 407.991 0.0280011 415.763 0.0280011 425.029C0.0280011 436.075 8.982 445.029 20.028 445.029C21.687 445.029 23.291 444.805 24.832 444.424C26.622 444.118 39.564 442.424 59.215 453.086C108.749 479.962 185.55 512 270.141 512C377.548 512 448.79 473.94 483.027 455.65C509.421 441.549 519.645 408.465 505.803 381.875V381.875Z" fill="#064D47"/>
<path d="M267.029 434C266.699 434.004 267.769 434 267.029 434V434Z" fill="#064D47"/>
<path d="M241.429 126.857C238.042 126.857 235.286 124.101 235.286 120.714C235.286 117.328 238.042 114.571 241.429 114.571H284.286C288.783 114.571 292.429 110.926 292.429 106.429C292.429 101.931 288.783 98.2857 284.286 98.2857H263.857V92.1429C263.857 87.6456 260.212 84 255.714 84C251.217 84 247.571 87.6456 247.571 92.1429V98.2857H241.429C229.061 98.2857 219 108.346 219 120.714C219 133.082 229.061 143.143 241.429 143.143H270C273.386 143.143 276.143 145.899 276.143 149.286C276.143 152.672 273.386 155.429 270 155.429H227.143C222.646 155.429 219 159.074 219 163.571C219 168.069 222.646 171.714 227.143 171.714H247.571V177.857C247.571 182.354 251.217 186 255.714 186C260.212 186 263.857 182.354 263.857 177.857V171.714H270C282.368 171.714 292.429 161.654 292.429 149.286C292.429 136.918 282.368 126.857 270 126.857H241.429Z" fill="#0D9E91" stroke="#0D9E91" stroke-width="2"/>
</g>
<defs>
<clipPath id="clip0_2712_2374">
<rect width="512" height="512" fill="white"/>
</clipPath>
</defs>
</svg>
