<svg width="40" height="40" viewBox="0 0 40 40" fill="none" xmlns="http://www.w3.org/2000/svg">
<path d="M7.8793 10.262L7.88626 6.5625H3.19934L3.19238 10.262C3.19238 12.5799 5.11402 14.4415 7.43194 14.4415C8.29699 14.4415 9.10079 14.182 9.76868 13.7365C8.63445 12.9882 7.8793 11.7148 7.8793 10.262Z" fill="#CEE1F2"/>
<path d="M29.9864 29.2052C29.1235 29.2052 28.4241 29.9047 28.4241 30.7675C28.4241 34.1273 25.6908 36.8605 22.3311 36.8605H15.0672C13.4396 36.8605 11.9094 36.2267 10.7585 35.0757C9.60775 33.9247 8.974 32.3945 8.97424 30.7668L8.97541 15.7928C11.4039 15.1184 13.1916 12.8951 13.1916 10.2619V7.95788C15.2623 7.88109 15.2607 4.90935 13.1916 4.83327H11.8636V1.55242C11.7869 -0.518256 8.81512 -0.516694 8.73903 1.55242V4.83327H6.005V1.55242C5.92821 -0.518256 2.95647 -0.516694 2.88039 1.55242V4.83327H1.55242C-0.518256 4.91006 -0.516694 7.8818 1.55242 7.95788H1.63484L1.63054 10.2619C1.63054 12.8852 3.41821 15.1018 5.8508 15.7851L5.84963 30.7665C5.84931 33.2287 6.80802 35.5438 8.54906 37.2849C10.2901 39.0262 12.605 39.9851 15.0672 39.9851H22.3311C27.4137 39.9851 31.5487 35.85 31.5487 30.7675C31.5487 29.9047 30.8493 29.2052 29.9864 29.2052ZM4.75515 10.2648L4.75945 7.95788H10.067V10.2619C9.9349 13.7504 4.88928 13.7057 4.75515 10.2648Z" fill="#064D47"/>
<path d="M29.9084 26.471C29.0455 26.471 28.346 25.7716 28.346 24.9087V23.1817C21.7405 22.1821 16.4126 17.0627 16.9618 9.08073C17.012 7.98469 17.6648 7.00919 18.6654 6.53511C19.6877 6.05079 20.8834 6.16726 21.7855 6.83929C24.6405 9.08917 27.8881 10.3378 29.6867 13.2246C30.6478 14.8055 31.1629 16.8163 31.3921 19.9842C34.439 19.288 36.7844 17.0477 36.8516 13.445C36.3936 13.7552 35.9485 14.0361 35.5634 14.2792C35.4363 14.3593 35.315 14.4359 35.2012 14.5085C34.4738 14.9728 33.5079 14.7592 33.0438 14.0317C32.5797 13.3043 32.7932 12.3384 33.5206 11.8743C33.6385 11.7991 33.7641 11.7198 33.8957 11.6368C34.4838 11.2656 35.1505 10.8448 35.7717 10.3821C36.5564 9.79783 37.5956 9.6962 38.484 10.1171C39.3564 10.5304 39.9256 11.3817 39.9694 12.3388C40.3857 18.2491 36.5175 22.2951 31.4707 23.1616V24.9086C31.4707 25.7716 30.7712 26.471 29.9084 26.471ZM20.074 9.46014C19.7588 15.3625 23.3609 19.0065 28.2588 19.986C27.8355 15.1777 27.1464 14.1051 23.2907 11.6742C22.3526 11.0575 21.2946 10.3618 20.074 9.46014Z" fill="#0D9E91"/>
</svg>
