<svg width="28" height="28" viewBox="0 0 28 28" fill="none" xmlns="http://www.w3.org/2000/svg">
<path d="M4.8248 22.7482C4.8248 22.1646 4.97716 21.6167 5.2442 21.1419L14.8692 3.64185C15.1143 3.2061 15.4562 2.83198 15.8655 2.54859C14.3024 1.46633 12.1007 1.93063 11.1381 3.64185L1.51315 21.1419C1.24611 21.6167 1.09375 22.1646 1.09375 22.7482C1.09375 24.5604 2.56282 26.0294 4.375 26.0294H8.10606C6.29388 26.0294 4.8248 24.5604 4.8248 22.7482V22.7482Z" fill="#CEE1F2"/>
<path d="M23.625 27.1232H4.375C1.96263 27.1232 0 25.1606 0 22.7482C0 21.9996 0.192609 21.2606 0.557156 20.6106L10.1798 3.11476C10.1815 3.11169 10.1832 3.10868 10.1849 3.10562C11.8562 0.134285 16.1431 0.133191 17.8152 3.10562C17.8169 3.10863 17.8186 3.11169 17.8202 3.11476L27.443 20.6106C27.8074 21.2605 28 21.9996 28 22.7482C28 25.1606 26.0374 27.1232 23.625 27.1232V27.1232ZM12.0938 4.17394L2.47155 21.669C2.46985 21.672 2.46816 21.6751 2.46646 21.6781C2.28397 22.0025 2.1875 22.3726 2.1875 22.7482C2.1875 23.9544 3.16881 24.9357 4.375 24.9357H23.625C24.8312 24.9357 25.8125 23.9544 25.8125 22.7482C25.8125 22.3725 25.716 22.0025 25.5335 21.6781C25.5318 21.6751 25.5301 21.672 25.5285 21.669L15.9064 4.17422C15.0691 2.69284 12.9321 2.69115 12.0938 4.17394V4.17394Z" fill="#064D47"/>
<path d="M14 17.2794C13.3959 17.2794 12.9062 16.7897 12.9062 16.1857V9.62317C12.9062 9.01909 13.3959 8.52942 14 8.52942C14.6041 8.52942 15.0938 9.01909 15.0938 9.62317V16.1857C15.0938 16.7897 14.6041 17.2794 14 17.2794Z" fill="#0D9E91"/>
<path d="M14 21.6544C14.6041 21.6544 15.0938 21.1647 15.0938 20.5607C15.0938 19.9566 14.6041 19.4669 14 19.4669C13.3959 19.4669 12.9062 19.9566 12.9062 20.5607C12.9062 21.1647 13.3959 21.6544 14 21.6544Z" fill="#0D9E91"/>
</svg>
