<svg width="100%" height="100%" viewBox="0 0 61 60" fill="none" xmlns="http://www.w3.org/2000/svg">
<path d="M31.7378 57.1227C1.16701 50.6578 2.52915 7.05091 33.5103 2.55883C17.1561 0.366153 2.22528 13.4587 2.35039 29.9833C2.291 45.8505 15.8736 58.6025 31.6996 57.5767C31.7122 57.4254 31.7255 57.2741 31.7378 57.1227Z" fill="#CEE1F2"/>
<path d="M50.612 29.9826C50.612 31.2766 49.5631 32.3255 48.2691 32.3255H22.2105C22.5275 38.2543 23.969 43.5071 25.0859 47.0913C25.4708 48.3267 24.7814 49.6402 23.546 50.0251C22.3442 50.4096 20.994 49.7319 20.6123 48.4853C19.4018 44.6001 17.8353 38.873 17.5188 32.3255H11.7206C8.61537 32.2103 8.61771 27.7538 11.7206 27.6397H17.5192C17.8377 21.0929 19.4137 15.3634 20.6316 11.4764C21.0186 10.2415 22.3333 9.55441 23.5678 9.94122C24.8026 10.3281 25.4899 11.6427 25.103 12.8774C23.9798 16.4621 22.5299 21.7149 22.211 27.6397H37.7846C37.558 22.9253 36.6496 18.072 35.0219 12.8774C34.203 9.88183 38.4557 8.54827 39.4933 11.4764C41.268 17.1401 42.2493 22.4522 42.4766 27.6397H48.269C49.563 27.6397 50.612 28.6886 50.612 29.9826ZM51.1999 8.77741C32.4442 -10.0392 -0.0396148 3.42047 0.00642233 29.9828C-0.356486 46.5823 14.7157 61.0157 31.2834 59.9439C32.5762 59.889 33.5798 58.7967 33.5251 57.5039C33.4703 56.2111 32.378 55.2098 31.0852 55.2622C-3.17529 55.2925 -4.23649 6.12482 29.9951 4.67963C43.9468 4.67963 55.2977 16.0305 55.2977 29.9825C55.2977 31.2764 56.3466 32.3253 57.6406 32.3253C58.9345 32.3253 59.9834 31.2764 59.9834 29.9825C59.9834 21.9724 56.864 14.4415 51.1999 8.77741Z" fill="#064D47"/>
<path d="M59.9616 40.6403C59.8972 39.2452 59.0656 38.0013 57.7915 37.3941C56.4874 36.7727 54.9587 36.9164 53.802 37.7688C52.4804 38.7428 51.3239 39.4785 50.3036 40.1274C45.79 42.7621 43.9499 45.3255 43.5083 51.0303C39.5212 50.1216 36.2889 47.2071 36.1119 42.4286C36.4404 42.6367 36.761 42.8321 37.0639 43.0168C37.3667 43.2014 37.6529 43.3757 37.894 43.5314C38.9814 44.2326 40.4314 43.9197 41.1326 42.8324C41.834 41.7451 41.5211 40.295 40.4337 39.5937C40.1423 39.4058 39.8314 39.2163 39.5024 39.0157C38.855 38.6211 38.1856 38.2131 37.5831 37.769C36.4264 36.9165 34.8977 36.7727 33.5934 37.3942C32.3194 38.0015 31.4878 39.2453 31.4234 40.6404C30.8357 49.0262 36.4189 54.6238 43.3452 55.7921V57.6292C43.4604 60.7344 47.9169 60.7321 48.0309 57.6292V55.7938C54.967 54.626 60.5485 49.0271 59.9616 40.6403ZM52.9485 48.2708C51.5195 49.7673 49.675 50.5429 48.2133 50.9433C48.5463 45.535 51.509 45.2008 55.2703 42.4748C55.1181 44.8684 54.3401 46.8132 52.9485 48.2708Z" fill="#0D9E91"/>
</svg>
