<svg width="512" height="512" viewBox="0 0 512 512" fill="none" xmlns="http://www.w3.org/2000/svg">
<path d="M80 300C80 277.744 98.177 259.733 120.496 260.003C142.409 260.269 156 241.914 156 220C156 165.719 178.259 117.751 216.999 88.823L216 65.041C146.991 82.802 96 145.446 96 220C96 241.914 82.409 260.269 60.496 260.003C38.177 259.733 20 277.744 20 300C20 322.091 37.908 340 60 340H120C97.908 340 80 322.091 80 300Z" fill="#CEE1F2"/>
<path d="M176 512H336C391.141 512 436 467.14 436 412C436 400.954 427.046 392 416 392C404.954 392 396 400.954 396 412C396 445.084 369.084 472 336 472H176C142.916 472 116 445.084 116 412C116 400.954 107.046 392 96 392C84.954 392 76 400.954 76 412C76 467.14 120.859 512 176 512Z" fill="#0D9E91"/>
<path d="M60 360H452C485.084 360 512 333.084 512 300C512 266.692 484.894 239.619 451.261 240.005C447.314 240.058 444.227 238.879 441.736 236.417C438.091 232.816 436 226.832 436 220C436 142.791 386.992 74.849 315.14 49.943C310.34 21.632 285.656 0 256 0C226.344 0 201.66 21.632 196.86 49.943C125.008 74.848 76 142.791 76 220C76 226.832 73.909 232.816 70.265 236.417C67.774 238.879 64.649 240.058 60.739 240.005C27.127 239.623 0 266.684 0 300C0 333.084 26.916 360 60 360V360ZM60.254 280.002C60.485 280.005 60.715 280.006 60.946 280.006C75.213 280.006 88.482 274.647 98.377 264.872C109.741 253.645 116 237.709 116 220C116 165.097 147.848 116.219 196 93.437V140C196 151.046 204.954 160 216 160C227.046 160 236 151.046 236 140V60C236 48.972 244.972 40 256 40C267.028 40 276 48.972 276 60V140C276 151.046 284.954 160 296 160C307.046 160 316 151.046 316 140V93.437C364.152 116.219 396 165.097 396 220C396 237.709 402.259 253.645 413.623 264.872C423.678 274.805 437.248 280.177 451.746 280.002C451.83 280.001 451.914 280.001 451.997 280.001C463.007 280.001 472 288.902 472 300.001C472 311.029 463.028 320.001 452 320.001H60C48.972 320.001 40 311.029 40 300.001C40 288.999 48.944 279.863 60.254 280.002V280.002Z" fill="#064D47"/>
</svg>
