<svg width="20" height="20" viewBox="0 0 20 20" fill="none" xmlns="http://www.w3.org/2000/svg">
<circle cx="10" cy="10" r="9" fill="#0D9E91" fill-opacity="0.1" stroke="#0D9E91" stroke-width="2"/>
<path d="M9.99984 15.5075C10.5601 15.5075 11.0143 15.0533 11.0143 14.493C11.0143 13.9327 10.5601 13.4785 9.99984 13.4785C9.43956 13.4785 8.98535 13.9327 8.98535 14.493C8.98535 15.0533 9.43956 15.5075 9.99984 15.5075Z" fill="#0D9E91"/>
<path d="M11.4158 10.0861C12.4198 9.55785 13.0435 8.52535 13.0435 7.3915C13.0435 5.71333 11.6782 4.34802 10 4.34802C8.32185 4.34802 6.95654 5.71333 6.95654 7.3915C6.95654 7.95181 7.41073 8.40599 7.97104 8.40599C8.53134 8.40599 8.98553 7.95181 8.98553 7.3915C8.98553 6.83211 9.44063 6.37701 10 6.37701C10.5594 6.37701 11.0145 6.83211 11.0145 7.3915C11.0145 7.76965 10.8063 8.11412 10.4711 8.29049C9.55476 8.77263 8.98553 9.77099 8.98553 10.8959C8.98553 11.4562 9.43972 11.9104 10 11.9104C10.5603 11.9104 11.0145 11.4562 11.0145 10.8959C11.0145 10.5378 11.1758 10.2123 11.4158 10.0861Z" fill="#0D9E91"/>
</svg>
