<svg width="24" height="24" viewBox="0 0 24 24" fill="none" xmlns="http://www.w3.org/2000/svg">
<path d="M22.5083 9.20183L12.5353 2.05075C12.217 1.82832 11.7872 1.82583 11.4652 2.05075L1.49228 9.20183C0.485812 9.92348 -0.607448 8.40202 0.400519 7.67925L10.3774 0.525455C10.3796 0.523862 10.3818 0.522316 10.384 0.520724C11.347 -0.157218 12.6424 -0.16518 13.6167 0.520724C13.6189 0.52227 13.6211 0.523862 13.6233 0.525455L23.6001 7.67925C24.6101 8.40347 23.5061 9.91729 22.5083 9.20183Z" fill="#3DB1A7"/>
<path d="M6.5674 22.1173V23.054H4.69386C3.6606 23.054 2.82031 22.2137 2.82031 21.1805V12.7781C2.82031 12.1706 3.11633 11.5987 3.61235 11.2484L10.9234 5.97059C11.5808 5.50904 12.4432 5.52365 13.078 5.97059L14.2958 6.98839L6.03719 13.1242C6.03438 13.1266 6.0311 13.1289 6.02829 13.1308C5.77911 13.306 5.63063 13.5926 5.63063 13.8971V21.1805C5.63063 21.6971 6.05077 22.1173 6.5674 22.1173Z" fill="#CEE1F2"/>
<path d="M19.3068 23.9907H13.8735C13.3561 23.9907 12.9367 23.5713 12.9367 23.0539V19.3068C12.9367 18.7903 12.5165 18.3701 11.9999 18.3701C11.4834 18.3701 11.0632 18.7903 11.0632 19.3068V23.0539C11.0632 23.5713 10.6438 23.9907 10.1264 23.9907H4.69313C3.14352 23.9907 1.88281 22.73 1.88281 21.1804V12.7779C1.88281 11.8666 2.32675 11.0092 3.07059 10.4832L10.3746 5.21071C10.3776 5.2085 10.3806 5.20635 10.3837 5.20419C11.3466 4.52644 12.6419 4.51843 13.6162 5.20419C13.6193 5.20635 13.6223 5.2085 13.6253 5.21071L20.9293 10.4833C21.6732 11.0093 22.1171 11.8666 22.1171 12.7779V21.1804C22.1171 22.73 20.8564 23.9907 19.3068 23.9907ZM14.8103 22.1171H19.3068C19.8233 22.1171 20.2435 21.6969 20.2435 21.1804V12.7779C20.2435 12.4734 20.0949 12.187 19.8459 12.0118C19.8429 12.0097 19.8398 12.0075 19.8368 12.0053L12.5341 6.73371C12.2156 6.51179 11.7868 6.51005 11.4658 6.73371L4.1631 12.0053C4.1601 12.0075 4.15706 12.0097 4.15397 12.0118C3.90502 12.187 3.75636 12.4734 3.75636 12.7779V21.1804C3.75636 21.6969 4.17659 22.1171 4.69313 22.1171H9.18963V19.3068C9.18963 17.7572 10.4503 16.4965 11.9999 16.4965C13.5496 16.4965 14.8103 17.7572 14.8103 19.3068V22.1171Z" fill="#064D47"/>
</g>
<defs>
<clipPath id="clip0_1831_3217">
<rect width="24" height="24" fill="white"/>
</clipPath>
</defs>
</svg>
