<svg width="60" height="60" viewBox="0 0 60 60" fill="none" xmlns="http://www.w3.org/2000/svg">
<path d="M48.6328 26.7169C47.5527 27.0234 46.4127 27.1875 45.2344 27.1875C38.374 27.1875 32.8125 21.626 32.8125 14.7656C32.8125 7.90523 38.374 2.34375 45.2344 2.34375C46.4127 2.34375 47.5527 2.50781 48.6328 2.81438C43.4244 4.29258 39.6094 9.08355 39.6094 14.7656C39.6094 20.4477 43.4244 25.2387 48.6328 26.7169ZM9.375 45.9375V26.1328C9.375 19.6607 14.6216 14.4141 21.0938 14.4141H14.0625C7.59035 14.4141 2.34375 19.6607 2.34375 26.1328V45.9375C2.34375 52.4095 7.59035 57.6562 14.0625 57.6562H21.0938C14.6216 57.6562 9.375 52.4095 9.375 45.9375Z" fill="#CEE1F2"/>
<path d="M45.9375 60H14.0625C6.30844 60 0 53.6916 0 45.9375V26.1328C0 18.3787 6.30844 12.0703 14.0625 12.0703H23.4375C24.732 12.0703 25.7812 13.1196 25.7812 14.4141C25.7812 15.7085 24.732 16.7578 23.4375 16.7578H14.0625C8.89313 16.7578 4.6875 20.9634 4.6875 26.1328V45.9375C4.6875 51.1069 8.89313 55.3125 14.0625 55.3125H45.9375C51.1069 55.3125 55.3125 51.1069 55.3125 45.9375V32.4609C55.3125 31.1665 56.3618 30.1172 57.6562 30.1172C58.9507 30.1172 60 31.1665 60 32.4609V45.9375C60 53.6916 53.6916 60 45.9375 60ZM60 14.7656C60 6.62379 53.3762 0 45.2344 0C37.0925 0 30.4688 6.62379 30.4688 14.7656C30.4688 22.9075 37.0925 29.5312 45.2344 29.5312C53.3762 29.5312 60 22.9075 60 14.7656ZM55.3125 14.7656C55.3125 20.3227 50.7914 24.8438 45.2344 24.8438C39.6773 24.8438 35.1562 20.3227 35.1562 14.7656C35.1562 9.20859 39.6773 4.6875 45.2344 4.6875C50.7914 4.6875 55.3125 9.20859 55.3125 14.7656Z" fill="#194D3E"/>
<path d="M29.9993 43.5847C26.9905 43.5847 23.9822 42.6273 21.4719 40.7127L10.3002 32.2172C9.26989 31.4337 9.06973 29.9632 9.85325 28.9329C10.6369 27.9025 12.1072 27.7023 13.1375 28.4859L24.312 36.9834C27.6621 39.5387 32.3381 39.5386 35.6856 36.9855L39.5918 33.9977C40.62 33.2114 42.0911 33.4073 42.8774 34.4354C43.6638 35.4635 43.4679 36.9346 42.4397 37.7209L38.5309 40.7106C36.0186 42.6268 33.0088 43.5847 29.9993 43.5847ZM47.5783 18.3984V11.1328C47.5783 9.83836 46.529 8.78906 45.2345 8.78906H42.8908C41.5963 8.78906 40.547 9.83836 40.547 11.1328C40.547 12.4273 41.5963 13.4766 42.8908 13.4766V18.3984C42.8908 19.6929 43.94 20.7422 45.2345 20.7422C46.529 20.7422 47.5783 19.6929 47.5783 18.3984Z" fill="#18A57B"/>
</svg>
