<svg width="24" height="24" viewBox="0 0 24 24" fill="none" xmlns="http://www.w3.org/2000/svg">
<path d="M12 0C5.3832 0 0 5.38327 0 12.0001C0 18.6169 5.3832 24 12 24C18.6168 24 24 18.6169 24 12.0001C24 5.38327 18.6168 0 12 0ZM12 21.8182C6.58618 21.8182 2.18182 17.4138 2.18182 12.0001C2.18182 6.58633 6.58618 2.18182 12 2.18182C17.4138 2.18182 21.8182 6.58633 21.8182 12.0001C21.8182 17.4138 17.4137 21.8182 12 21.8182Z" fill="#1784E6"/>
<path d="M12.2399 4.80078C11.2474 4.80078 10.4399 5.60862 10.4399 6.60159C10.4399 7.59366 11.2474 8.40078 12.2399 8.40078C13.2325 8.40078 14.0399 7.59366 14.0399 6.60159C14.0399 5.60862 13.2325 4.80078 12.2399 4.80078Z" fill="#1784E6"/>
<path d="M12.2399 9.60156C11.0399 9.60156 10.4399 10.1388 10.4399 10.8016V18.0016C10.4399 18.6643 11.0399 19.2016 12.2399 19.2016C13.4399 19.2016 14.0399 18.6643 14.0399 18.0016V10.8016C14.0399 10.1388 13.4399 9.60156 12.2399 9.60156Z" fill="#1784E6"/>
</g>
<defs>
<clipPath id="clip0_2704_3542">
<rect width="24" height="24" fill="white"/>
</clipPath>
</defs>
</svg>
