<svg width="100" height="100" viewBox="0 0 100 100" fill="none" xmlns="http://www.w3.org/2000/svg">
<path d="M22.6562 80.4688V19.5312C22.6562 10.9018 29.6518 3.90625 38.2812 3.90625H26.5625C17.933 3.90625 10.9375 10.9018 10.9375 19.5312V80.4688C10.9375 89.0982 17.933 96.0938 26.5625 96.0938H38.2812C29.6518 96.0938 22.6562 89.0982 22.6562 80.4688Z" fill="#CEE1F2"/>
<path d="M42.1875 15.625H26.5625C24.4051 15.625 22.6562 17.3738 22.6562 19.5312C22.6562 21.6887 24.4051 23.4375 26.5625 23.4375H42.1875C44.3449 23.4375 46.0938 21.6887 46.0938 19.5312C46.0938 17.3738 44.3449 15.625 42.1875 15.625Z" fill="#0D9E91"/>
<path d="M26.5625 100H73.4375C84.2072 100 92.9688 91.2383 92.9688 80.4688V19.5312C92.9688 8.76172 84.2072 0 73.4375 0H26.5625C15.7928 0 7.03125 8.76172 7.03125 19.5312V80.4688C7.03125 91.2383 15.7928 100 26.5625 100ZM14.8438 19.5312C14.8438 13.0695 20.1008 7.8125 26.5625 7.8125H73.4375C79.8992 7.8125 85.1562 13.0695 85.1562 19.5312V80.4688C85.1562 86.9305 79.8992 92.1875 73.4375 92.1875H26.5625C20.1008 92.1875 14.8438 86.9305 14.8438 80.4688V19.5312Z" fill="#064D47"/>
<path d="M34.375 85.1562H65.625C72.0867 85.1562 77.3438 79.8992 77.3438 73.4375V42.1875C77.3438 35.7258 72.0867 30.4688 65.625 30.4688H34.375C27.9133 30.4688 22.6562 35.7258 22.6562 42.1875V73.4375C22.6562 79.8992 27.9133 85.1562 34.375 85.1562ZM69.5312 61.7188H46.0938V53.9062H69.5312V61.7188ZM38.2812 61.7188H30.4688V53.9062H38.2812V61.7188ZM30.4688 73.4375V69.5312H38.2812V77.3438H34.375C32.2211 77.3438 30.4688 75.5914 30.4688 73.4375ZM65.625 77.3438H46.0938V69.5312H69.5312V73.4375C69.5312 75.5914 67.7789 77.3438 65.625 77.3438ZM69.5312 42.1875V46.0938H46.0938V38.2812H65.625C67.7789 38.2812 69.5312 40.0336 69.5312 42.1875ZM34.375 38.2812H38.2812V46.0938H30.4688V42.1875C30.4688 40.0336 32.2211 38.2812 34.375 38.2812Z" fill="#064D47"/>
</svg>
