<svg width="100%" height="100%" viewBox="0 0 40 40" fill="none" xmlns="http://www.w3.org/2000/svg">
<g clip-path="url(#clip0_1479_2535)">
<path d="M12.1936 18.7668C12.1936 13.1546 18.7253 5.7917 22.3418 2.58806C22.2413 2.49906 22.1427 2.41273 22.047 2.33029C20.8647 1.31227 19.1352 1.31227 17.9528 2.33029C14.4098 5.38077 7.50977 12.9988 7.50977 18.7668C7.50977 26.5271 13.1018 29.6956 19.9999 29.6956C20.8004 29.6956 21.5831 29.6524 22.3418 29.5648C16.5632 28.8977 12.1936 25.6265 12.1936 18.7668Z" fill="#CEE1F2"/>
<path d="M34.0511 18.7668C34.0511 15.8856 32.6422 12.4705 29.8633 8.61638C27.5977 5.47386 24.8662 2.69754 23.0654 1.14712C21.289 -0.382374 18.7104 -0.382374 16.9339 1.14712C15.1332 2.69754 12.4017 5.47386 10.136 8.61638C7.35721 12.4705 5.94824 15.8856 5.94824 18.7668C5.94824 27.0857 11.8344 31.2569 19.9996 31.2569C28.1602 31.2569 34.0511 27.0896 34.0511 18.7668ZM19.9997 28.1344C15.9182 28.1344 9.07086 26.9174 9.07086 18.7668C9.07086 16.5858 10.315 13.7074 12.6689 10.4425C14.7754 7.52076 17.3058 4.9474 18.9713 3.51338C19.2692 3.25686 19.6345 3.1286 19.9997 3.1286C20.365 3.1286 20.7302 3.25686 21.0281 3.51338C22.6937 4.9474 25.224 7.52068 27.3306 10.4425C29.6843 13.7073 30.9286 16.5858 30.9286 18.7668C30.9286 26.9174 24.0813 28.1344 19.9997 28.1344Z" fill="#064D47"/>
<path d="M25.5471 18.9317L21.5615 20.9245V16.6092L23.821 15.4795C24.5922 15.0939 24.9048 14.1561 24.5192 13.3848C24.1336 12.6136 23.196 12.301 22.4245 12.6866L21.5614 13.1182V10.9606C21.5614 10.0983 20.8624 9.39929 20.0001 9.39929C19.1378 9.39929 18.4389 10.0983 18.4389 10.9606V13.1182L17.5758 12.6866C16.8045 12.301 15.8667 12.6136 15.4811 13.3848C15.0956 14.1561 15.4081 15.0939 16.1793 15.4795L18.4388 16.6092V20.9245L14.4532 18.9317C13.682 18.5461 12.7441 18.8587 12.3585 19.6299C11.973 20.4011 12.2854 21.3389 13.0567 21.7246L19.3018 24.8471C19.7311 25.0617 20.2521 25.0702 20.6983 24.8471L26.9433 21.7246C27.7146 21.3389 28.0272 20.4012 27.6415 19.6299C27.2561 18.8587 26.3185 18.5461 25.5471 18.9317Z" fill="#064D47"/>
<path d="M19.9997 40.0001C20.862 40.0001 21.561 39.3011 21.561 38.4388V35.3163C21.561 34.454 20.862 33.755 19.9997 33.755C19.1375 33.755 18.4385 34.454 18.4385 35.3163V38.4388C18.4385 39.3011 19.1375 40.0001 19.9997 40.0001Z" fill="#0D9E91"/>
</g>
</svg>
