<svg width="24" height="24" viewBox="0 0 24 24" fill="none" xmlns="http://www.w3.org/2000/svg">
<path d="M8.27709 18.5339C6.56691 16.8237 5.625 14.5027 5.625 11.9985C5.625 9.49438 6.56691 7.17341 8.27709 5.46318C9.66202 4.0783 11.4474 3.19743 13.4062 2.91233C12.9461 2.84535 12.4764 2.81104 12 2.81104C9.49584 2.81104 7.17483 3.75289 5.46459 5.46318C3.75441 7.17341 2.8125 9.49438 2.8125 11.9985C2.8125 14.5027 3.75441 16.8237 5.46459 18.5339C7.17483 20.2442 9.49584 21.1861 12 21.1861C12.4764 21.1861 12.9461 21.1518 13.4062 21.0848C11.4474 20.7997 9.66202 19.9188 8.27709 18.5339Z" fill="#CEE1F2"/>
<path d="M22.125 11.9985C22.125 6.30304 17.6955 1.87354 12 1.87354C6.3045 1.87354 1.875 6.30304 1.875 11.9985C1.875 17.694 6.3045 22.1235 12 22.1235C17.6955 22.1235 22.125 17.6941 22.125 11.9985ZM18.4961 17.1688L15.9093 14.582C16.4008 13.8408 16.6875 12.9526 16.6875 11.9985C16.6875 11.0445 16.4008 10.1563 15.9093 9.41507L18.496 6.82832C19.6327 8.26907 20.25 10.0722 20.25 11.9985C20.25 13.9249 19.6327 15.7281 18.4961 17.1688ZM13.9875 13.986C13.986 13.9875 13.9848 13.9891 13.9833 13.9906C13.4744 14.4973 12.7732 14.811 12 14.811C11.2267 14.811 10.5255 14.4973 10.0166 13.9906C10.0151 13.9891 10.0139 13.9875 10.0125 13.986C10.011 13.9846 10.0094 13.9834 10.0079 13.9819C9.50123 13.473 9.1875 12.7718 9.1875 11.9985C9.1875 11.2253 9.50123 10.5241 10.008 10.0152C10.0095 10.0137 10.011 10.0125 10.0125 10.011C10.014 10.0096 10.0152 10.0079 10.0167 10.0065C10.5256 9.49977 11.2268 9.18604 12 9.18604C12.7733 9.18604 13.4745 9.49977 13.9834 10.0065C13.9849 10.0079 13.9861 10.0096 13.9875 10.011C13.989 10.0125 13.9906 10.0137 13.9921 10.0152C14.4988 10.5241 14.8125 11.2253 14.8125 11.9985C14.8125 12.7717 14.4988 13.473 13.992 13.9819C13.9905 13.9834 13.989 13.9846 13.9875 13.986ZM17.1702 5.5025L14.5834 8.08925C13.8422 7.59777 12.954 7.31104 12 7.31104C11.046 7.31104 10.1578 7.59777 9.41658 8.08925L6.82978 5.5025C8.27048 4.36588 10.0736 3.74853 12 3.74853C13.9264 3.74853 15.7295 4.36588 17.1702 5.5025ZM5.50392 6.82836L8.09067 9.41511C7.59923 10.1563 7.3125 11.0445 7.3125 11.9985C7.3125 12.9525 7.59923 13.8408 8.09072 14.582L5.50397 17.1688C4.36734 15.7281 3.75 13.9249 3.75 11.9985C3.75 10.0722 4.36734 8.26907 5.50392 6.82836ZM6.82978 18.4946L9.41658 15.9079C10.1578 16.3993 11.046 16.6861 12 16.6861C12.954 16.6861 13.8422 16.3993 14.5834 15.9079L17.1702 18.4946C15.7296 19.6312 13.9264 20.2486 12 20.2486C10.0736 20.2486 8.27048 19.6312 6.82978 18.4946Z" fill="#064D47"/>
<path d="M0.9375 6.1875C1.45528 6.1875 1.875 5.76778 1.875 5.25C1.875 3.38902 3.38902 1.875 5.25 1.875C5.76778 1.875 6.1875 1.45528 6.1875 0.9375C6.1875 0.419719 5.76778 0 5.25 0C2.35514 0 0 2.35514 0 5.25C0 5.76778 0.419719 6.1875 0.9375 6.1875Z" fill="#0D9E91"/>
<path d="M23.0625 17.8125C22.5447 17.8125 22.125 18.2322 22.125 18.75C22.125 20.611 20.611 22.125 18.75 22.125C18.2322 22.125 17.8125 22.5447 17.8125 23.0625C17.8125 23.5803 18.2322 24 18.75 24C21.6449 24 24 21.6449 24 18.75C24 18.2322 23.5803 17.8125 23.0625 17.8125Z" fill="#0D9E91"/>
<path d="M5.25 22.125C3.38902 22.125 1.875 20.611 1.875 18.75C1.875 18.2322 1.45528 17.8125 0.9375 17.8125C0.419719 17.8125 0 18.2322 0 18.75C0 21.6449 2.35514 24 5.25 24C5.76778 24 6.1875 23.5803 6.1875 23.0625C6.1875 22.5447 5.76778 22.125 5.25 22.125Z" fill="#0D9E91"/>
<path d="M18.75 1.875C20.611 1.875 22.125 3.38902 22.125 5.25C22.125 5.76778 22.5447 6.1875 23.0625 6.1875C23.5803 6.1875 24 5.76778 24 5.25C24 2.35514 21.6449 0 18.75 0C18.2322 0 17.8125 0.419719 17.8125 0.9375C17.8125 1.45528 18.2322 1.875 18.75 1.875Z" fill="#0D9E91"/>
</svg>
