<svg width="200" height="200" viewBox="0 0 200 200" fill="none" xmlns="http://www.w3.org/2000/svg">
<path d="M83.2377 116.749C80.1875 113.699 80.1875 108.754 83.2377 105.704C86.2874 102.654 91.2322 102.654 94.2824 105.704C103.438 114.86 118.259 114.862 127.417 105.704L177.509 55.612C186.665 46.4561 186.667 31.6349 177.509 22.4774C168.374 13.3422 153.51 13.3422 144.374 22.4774L105.327 61.5248C102.277 64.575 97.3318 64.575 94.282 61.5248C91.2319 58.4751 91.2319 53.5299 94.282 50.4801L133.329 11.4327C148.555 -3.79267 173.329 -3.79267 188.553 11.4327C203.814 26.6936 203.816 51.3943 188.553 66.6571L138.462 116.749C123.201 132.009 98.5001 132.012 83.2377 116.749V116.749Z" fill="white"/>
<path d="M11.4462 188.54C-3.81427 173.28 -3.81622 148.579 11.4462 133.316L61.1479 83.6141C76.4084 68.3536 101.109 68.3516 116.372 83.6141C119.422 86.6642 119.422 91.609 116.372 94.6588C113.323 97.709 108.378 97.709 105.327 94.6588C96.1709 85.5025 81.3501 85.5013 72.1926 94.6588L22.491 144.361C13.3347 153.517 13.3335 168.338 22.491 177.495C31.6473 186.652 46.4681 186.653 55.6255 177.495L94.2825 138.838C97.3326 135.788 102.277 135.788 105.327 138.838C108.377 141.888 108.377 146.833 105.327 149.883L66.6703 188.54C51.4101 203.801 26.7083 203.803 11.4462 188.54V188.54Z" fill="white"/>
<path d="M39.8788 80.8557L25.7226 74.2544C21.8134 72.4316 20.1221 67.7847 21.945 63.8755C23.7674 59.9662 28.4147 58.275 32.3235 60.0978L46.4797 66.6991C50.3889 68.5219 52.0802 73.1688 50.2573 77.0781C48.4298 80.9978 43.7779 82.6738 39.8788 80.8557Z" fill="#0D9E91"/>
<path d="M167.286 140.266L153.129 133.665C149.22 131.842 147.529 127.195 149.351 123.286C151.174 119.377 155.822 117.686 159.73 119.508L173.887 126.109C177.796 127.932 179.487 132.579 177.664 136.488C175.836 140.41 171.183 142.083 167.286 140.266V140.266Z" fill="#0D9E91"/>
<path d="M66.3215 46.8572L59.7206 32.701C57.8977 28.7917 59.589 24.1453 63.4982 22.3224C67.4074 20.4996 72.0543 22.1908 73.8771 26.1001L80.478 40.2563C82.3009 44.1655 80.6096 48.812 76.7004 50.6348C72.808 52.4502 68.1525 50.7832 66.3215 46.8572Z" fill="#0D9E91"/>
<path d="M125.732 174.264L119.131 160.108C117.309 156.199 119 151.552 122.909 149.729C126.818 147.907 131.465 149.598 133.288 153.507L139.889 167.663C141.711 171.573 140.02 176.219 136.111 178.042C132.219 179.857 127.563 178.191 125.732 174.264Z" fill="#0D9E91"/>
</g>
<defs>
<clipPath id="clip0_2924_6398">
<rect width="200" height="200" fill="white"/>
</clipPath>
</defs>
</svg>
