<svg width="512" height="512" viewBox="0 0 512 512" fill="none" xmlns="http://www.w3.org/2000/svg">
<path d="M283.926 246.12C283.926 232.656 276.479 220.29 264.574 213.999C234.37 198.039 196.095 202.77 170.676 228.189L43.4393 355.427C12.2077 386.658 12.2077 437.294 43.4393 468.526C50.9407 476.027 59.5688 481.707 68.7717 485.606C56.4419 456.495 62.122 421.569 85.851 397.839L213.088 270.603C231.757 251.934 257.355 244.438 281.601 248.094C282.822 248.277 283.926 247.355 283.926 246.12V246.12Z" fill="#CEE1F2"/>
<path d="M213.088 298.877C205.28 291.068 205.28 278.409 213.088 270.602C220.896 262.794 233.554 262.794 241.363 270.602C264.802 294.041 302.743 294.046 326.186 270.602L454.422 142.366C477.863 118.927 477.866 80.9848 454.422 57.5417C431.037 34.1555 392.985 34.1555 369.598 57.5417L269.636 157.503C261.828 165.311 249.169 165.311 241.362 157.503C233.553 149.696 233.553 137.036 241.362 129.229L341.323 29.2672C380.3 -9.70974 443.722 -9.70974 482.697 29.2672C521.765 68.335 521.769 131.569 482.697 170.642L354.462 298.877C315.395 337.943 252.16 337.949 213.088 298.877V298.877Z" fill="#064D47"/>
<path d="M29.302 482.663C-9.76485 443.597 -9.76984 380.361 29.302 341.288L156.538 214.052C195.605 174.985 258.84 174.98 297.913 214.052C305.72 221.86 305.72 234.519 297.912 242.327C290.105 250.135 277.447 250.135 269.637 242.327C246.197 218.886 208.256 218.883 184.813 242.327L57.5765 369.564C34.1364 393.004 34.1334 430.945 57.5765 454.388C81.0167 477.828 118.958 477.83 142.401 454.388L241.363 355.427C249.171 347.618 261.83 347.618 269.637 355.427C277.445 363.234 277.445 375.894 269.637 383.701L170.676 482.663C131.61 521.73 68.3729 521.735 29.302 482.663V482.663Z" fill="#064D47"/>
<path d="M102.09 206.989L65.8497 190.09C55.8421 185.424 51.5125 173.528 56.179 163.52C60.8444 153.512 72.7414 149.183 82.748 153.849L118.988 170.749C128.995 175.415 133.325 187.311 128.659 197.319C123.98 207.353 112.071 211.644 102.09 206.989Z" fill="#0D9E91"/>
<path d="M428.251 359.08L392.01 342.181C382.002 337.515 377.673 325.619 382.339 315.611C387.006 305.603 398.904 301.276 408.908 305.94L445.149 322.84C455.157 327.506 459.486 339.402 454.82 349.41C450.14 359.449 438.229 363.733 428.251 359.08V359.08Z" fill="#0D9E91"/>
<path d="M169.783 119.954L152.885 83.7139C148.218 73.7062 152.548 61.8112 162.555 57.1448C172.563 52.4784 184.459 56.8079 189.125 66.8155L206.024 103.055C210.69 113.063 206.361 124.958 196.353 129.624C186.388 134.272 174.47 130.004 169.783 119.954Z" fill="#0D9E91"/>
<path d="M321.875 446.115L304.976 409.875C300.31 399.868 304.639 387.973 314.647 383.306C324.653 378.641 336.551 382.969 341.216 392.977L358.114 429.217C362.781 439.224 358.451 451.119 348.444 455.786C338.48 460.432 326.561 456.167 321.875 446.115Z" fill="#0D9E91"/>
</svg>
