<svg width="512" height="512" viewBox="0 0 512 512" fill="none" xmlns="http://www.w3.org/2000/svg">
<path d="M141.629 370.34C145.713 374.425 151.069 376.467 156.423 376.467C161.776 376.467 167.133 374.425 171.217 370.34L370.301 171.256C378.473 163.082 378.473 149.836 370.301 141.665C362.127 133.496 348.881 133.496 340.71 141.665L141.629 340.749C133.457 348.921 133.457 362.166 141.629 370.34Z" fill="#0D9E91"/>
<path d="M469.844 42.1229C442.682 14.9588 406.571 0 368.156 0C329.744 0.00278978 293.633 14.9616 266.471 42.1229L197.723 110.869C189.552 119.043 189.552 132.289 197.723 140.463C205.891 148.628 219.14 148.634 227.311 140.463L296.063 71.7113C315.321 52.4562 340.922 41.8467 368.159 41.8467C395.393 41.8467 420.995 52.4535 440.252 71.7113C459.51 90.9664 470.117 116.574 470.117 143.808C470.117 171.041 459.51 196.643 440.252 215.901L371.504 284.65C363.333 292.824 363.333 306.07 371.504 314.241C375.591 318.325 380.947 320.367 386.301 320.367C391.655 320.367 397.011 318.325 401.098 314.241L469.844 245.492C497.005 218.331 511.967 182.217 511.967 143.808C511.964 105.395 497.008 69.2814 469.844 42.1229Z" fill="#0D9E91"/>
<path d="M284.619 371.54L215.87 440.294C196.612 459.549 171.008 470.156 143.777 470.156C116.543 470.156 90.9412 459.552 71.6833 440.294C31.929 400.543 31.929 335.856 71.6833 296.102L140.432 227.353C148.603 219.179 148.603 205.933 140.432 197.762C132.261 189.593 119.012 189.593 110.841 197.762L42.0894 266.51C-13.9797 322.582 -13.9797 413.814 42.0894 469.883C69.2507 497.041 105.362 512.003 143.774 512C182.187 512 218.297 497.041 245.459 469.88L314.213 401.128C322.384 392.954 322.384 379.709 314.213 371.537C306.039 363.374 292.793 363.369 284.619 371.54Z" fill="#0D9E91"/>
</g>
<defs>
<clipPath id="clip0_2838_2371">
<rect width="512" height="512" fill="white"/>
</clipPath>
</defs>
</svg>
