<svg width="32" height="32" viewBox="0 0 32 32" fill="none" xmlns="http://www.w3.org/2000/svg">
<path d="M5 16C5 8.35219 10.5105 2.25456 17.875 1.36275C17.2621 1.2885 16.6365 1.25 16 1.25C7.71575 1.25 1.25 7.71575 1.25 16C1.25 24.2843 7.71575 30.75 16 30.75C16.6365 30.75 17.2621 30.7115 17.875 30.6373C10.5105 29.7454 5 23.6478 5 16Z" fill="#CEE1F2"/>
<path d="M16 9.75C16.6904 9.75 17.25 9.19037 17.25 8.5V6C17.25 5.30963 16.6904 4.75 16 4.75C15.3096 4.75 14.75 5.30963 14.75 6V8.5C14.75 9.19037 15.3096 9.75 16 9.75Z" fill="#0D9E91"/>
<path d="M16 32C24.9719 32 32 24.972 32 16C32 7.028 24.9719 0 16 0C7.02806 0 0 7.02806 0 16C0 24.9719 7.02806 32 16 32ZM16 2.5C23.5701 2.5 29.5 8.42994 29.5 16C29.5 23.5701 23.5701 29.5 16 29.5C8.42987 29.5 2.5 23.5701 2.5 16C2.5 8.42994 8.42987 2.5 16 2.5Z" fill="#064D47"/>
<path d="M16 27.25C16.6904 27.25 17.25 26.6904 17.25 26V23.5C17.25 22.8096 16.6904 22.25 16 22.25C15.3096 22.25 14.75 22.8096 14.75 23.5V26C14.75 26.6904 15.3096 27.25 16 27.25Z" fill="#064D47"/>
<path d="M9.8126 11.5804C10.3007 12.0684 11.0921 12.0686 11.5804 11.5804C12.0685 11.0922 12.0685 10.3007 11.5804 9.8126L9.8126 8.04485C9.32441 7.55666 8.53298 7.55666 8.04485 8.04485C7.55666 8.53304 7.55666 9.32448 8.04485 9.8126L9.8126 11.5804Z" fill="#064D47"/>
<path d="M22.1876 23.9549C22.6757 24.4429 23.4671 24.4431 23.9554 23.9549C24.4435 23.4667 24.4435 22.6752 23.9554 22.1871L22.1876 20.4194C21.6994 19.9312 20.908 19.9312 20.4199 20.4194C19.9317 20.9075 19.9317 21.699 20.4199 22.1871L22.1876 23.9549Z" fill="#064D47"/>
<path d="M9.75 16C9.75 15.3096 9.19037 14.75 8.5 14.75H6.25C5.55963 14.75 5 15.3096 5 16C5 16.6904 5.55963 17.25 6.25 17.25H8.5C9.19037 17.25 9.75 16.6904 9.75 16Z" fill="#064D47"/>
<path d="M22.25 16C22.25 16.6904 22.8096 17.25 23.5 17.25H25.75C26.4404 17.25 27 16.6904 27 16C27 15.3096 26.4404 14.75 25.75 14.75H23.5C22.8096 14.75 22.25 15.3096 22.25 16Z" fill="#064D47"/>
<path d="M9.8126 20.4194L8.04485 22.1871C7.55666 22.6753 7.55666 23.4667 8.04485 23.9549C8.53298 24.443 9.32441 24.4431 9.8126 23.9549L11.5804 22.1871C12.0685 21.6989 12.0685 20.9075 11.5804 20.4194C11.0922 19.9312 10.3007 19.9312 9.8126 20.4194Z" fill="#064D47"/>
<path d="M22.1876 11.5808L23.9554 9.81304C24.4435 9.32486 24.4435 8.53342 23.9554 8.04529C23.4672 7.55717 22.6757 7.55717 22.1876 8.04529L20.4199 9.81304C19.9317 10.3012 19.9317 11.0927 20.4199 11.5808C20.908 12.069 21.6994 12.069 22.1876 11.5808Z" fill="#064D47"/>
</svg>
