<svg width="60" height="60" viewBox="0 0 60 60" fill="none" xmlns="http://www.w3.org/2000/svg">
<g clip-path="url(#clip0_3146_6716)">
<path d="M30.605 51.981L30.5716 51.9754C23.8616 43.4573 15.0034 32.1928 15.0034 24.582C15.0034 13.2725 22.8621 4.32682 33.6614 2.63709C32.4795 2.44761 31.2674 2.34766 30.0313 2.34766H30.0024C17.4243 2.34766 7.26953 12.5441 7.26953 25.1222C7.26953 32.733 16.5126 45.8355 23.2227 54.3537C26.4588 58.4615 32.4818 58.7333 36.0956 55.1814C34.0195 54.8659 32.0386 53.8008 30.605 51.981V51.981Z" fill="#CEE1F2"/>
<path d="M47.7612 7.36524C43.0351 2.61876 36.7387 0.00472445 30.0319 0.00472445H30.0028C16.4972 -0.271702 4.64861 11.6223 4.92667 25.1231C5.28032 34.6562 14.4511 46.7631 21.593 56.0642C23.6904 58.57 26.7463 60.0001 30.0296 60C33.4278 60 36.5829 58.4688 38.686 55.799C41.6798 51.9983 45.9554 46.2747 49.3229 40.5901C53.1964 34.0513 55.0794 28.992 55.0794 25.123C55.0793 18.4112 52.4803 12.1047 47.7612 7.36524V7.36524ZM35.004 52.8986C33.7954 54.4328 31.9822 55.3129 30.0294 55.3129C28.0799 55.3129 26.2701 54.4349 25.0641 52.9041C15.3801 40.5732 9.61362 30.3038 9.61362 25.1228C9.61362 13.8572 18.7602 4.6919 30.0028 4.6919H30.0319C41.2586 4.6919 50.3921 13.8572 50.3921 25.1228C50.3921 30.3598 44.7833 40.4838 35.004 52.8986V52.8986Z" fill="#064D47"/>
<path d="M35.9098 36.0958H24.5651C20.9731 36.0958 18.0508 33.1735 18.0508 29.5814V22.5632C18.0508 20.5442 19.0092 18.6078 20.6146 17.3834L26.2867 13.0571C28.6129 11.283 31.862 11.283 34.188 13.0571L39.8709 17.3712C39.8723 17.3723 39.8737 17.3733 39.8751 17.3744C41.4712 18.5916 42.4241 20.5313 42.4241 22.5632V29.5814C42.4241 33.1735 39.5018 36.0958 35.9098 36.0958V36.0958ZM30.236 16.4113C29.8452 16.4113 29.455 16.5357 29.1293 16.7841L23.457 21.1104C23.0067 21.4539 22.7378 21.9969 22.7378 22.5632V29.5814C22.7378 30.5889 23.5575 31.4086 24.565 31.4086H35.9095C36.917 31.4086 37.7367 30.5889 37.7367 29.5814V22.5632C37.7367 21.9846 37.4738 21.4383 37.0333 21.102L31.3496 16.7872C31.0209 16.5364 30.6282 16.4113 30.236 16.4113V16.4113ZM27.1908 25.0809C27.1908 26.6988 28.5024 28.0104 30.1203 28.0104C31.7382 28.0104 33.0498 26.6988 33.0498 25.0809C33.0498 23.463 31.7382 22.1514 30.1203 22.1514C28.5024 22.1514 27.1908 23.463 27.1908 25.0809Z" fill="#0D9E91"/>
</g>
<defs>
<clipPath id="clip0_3146_6716">
<rect width="60" height="60" fill="white"/>
</clipPath>
</defs>
</svg>
