<svg width="402" height="402" viewBox="0 0 402 402" fill="none" xmlns="http://www.w3.org/2000/svg">
<path d="M357.45 190.721C352.119 185.391 345.65 182.728 338.033 182.728H328.902V127.907C328.902 92.885 316.343 62.814 291.217 37.689C266.093 12.563 236.025 0 200.998 0C165.972 0 135.898 12.563 110.776 37.688C85.6498 62.814 73.0909 92.884 73.0909 127.907V182.728H63.9559C56.3449 182.728 49.8719 185.391 44.5419 190.721C39.2119 196.047 36.5479 202.52 36.5479 210.138V374.59C36.5479 382.201 39.2129 388.676 44.5419 394.007C49.8719 399.332 56.3449 401.998 63.9559 401.998H338.04C345.657 401.998 352.125 399.335 357.457 394.007C362.782 388.676 365.451 382.201 365.451 374.59V210.135C365.455 202.523 362.782 196.051 357.45 190.721ZM274.087 182.728H127.909V127.907C127.909 107.732 135.048 90.505 149.323 76.232C163.6 61.957 180.824 54.821 201.001 54.821C221.18 54.821 238.4 61.956 252.678 76.232C266.949 90.504 274.087 107.732 274.087 127.907V182.728Z" fill="#0D9E91"/>
</g>
<defs>
<clipPath id="clip0_2882_6389">
<rect width="401.998" height="401.998" fill="white"/>
</clipPath>
</defs>
</svg>
