<svg width="32" height="28" viewBox="0 0 32 28" fill="none" xmlns="http://www.w3.org/2000/svg">
<path d="M24.0454 6.542C23.784 6.51444 23.5187 6.5 23.25 6.5H20.75C19.3693 6.5 18.25 7.61931 18.25 9V16.5H22V9C22 7.77462 22.8819 6.75587 24.0454 6.542Z" fill="#CEE1F2"/>
<path d="M11.25 0.25H6.25C4.18225 0.25 2.5 1.93225 2.5 4V9C2.5 11.0677 4.18225 12.75 6.25 12.75H11.25C13.3177 12.75 15 11.0677 15 9V4C15 1.93225 13.3177 0.25 11.25 0.25ZM12.5 9C12.5 9.68925 11.9392 10.25 11.25 10.25H6.25C5.56075 10.25 5 9.68925 5 9V4C5 3.31075 5.56075 2.75 6.25 2.75H7.5V4C7.5 4.69037 8.05963 5.25 8.75 5.25C9.44037 5.25 10 4.69037 10 4V2.75H11.25C11.9392 2.75 12.5 3.31075 12.5 4V9Z" fill="#0D9E91"/>
<path d="M23.25 5.25H20.75C18.6823 5.25 17 6.93225 17 9V15.25H3.75C1.68225 15.25 0 16.9323 0 19V21.5C0 23.5677 1.68225 25.25 3.75 25.25H5.215C5.731 26.7049 7.12044 27.75 8.75 27.75C10.3796 27.75 11.7689 26.7049 12.285 25.25H15.75C16.4404 25.25 17 24.6904 17 24C17 23.3096 16.4404 22.75 15.75 22.75H12.285C11.769 21.2951 10.3796 20.25 8.75 20.25C7.12044 20.25 5.73106 21.2951 5.215 22.75H3.75C3.06075 22.75 2.5 22.1893 2.5 21.5V19C2.5 18.3108 3.06075 17.75 3.75 17.75H29.5V21.5C29.5 22.1893 28.9393 22.75 28.25 22.75H26.785C26.269 21.2951 24.8796 20.25 23.25 20.25C21.1823 20.25 19.5 21.9323 19.5 24C19.5 26.0677 21.1823 27.75 23.25 27.75C24.8796 27.75 26.2689 26.7049 26.785 25.25H28.25C30.3177 25.25 32 23.5677 32 21.5V14C32 9.17525 28.0747 5.25 23.25 5.25ZM8.75 22.75C9.43906 22.75 9.99963 23.3104 10 23.9994V24C10 24 10 24.0004 10 24.0006C9.99969 24.6896 9.43913 25.25 8.75 25.25C8.06075 25.25 7.5 24.6893 7.5 24C7.5 23.3107 8.06075 22.75 8.75 22.75ZM23.25 25.25C22.5607 25.25 22 24.6893 22 24C22 23.3107 22.5607 22.75 23.25 22.75C23.9393 22.75 24.5 23.3107 24.5 24C24.5 24.6893 23.9393 25.25 23.25 25.25ZM19.5 15.25V9C19.5 8.31075 20.0607 7.75 20.75 7.75H23.25C26.6963 7.75 29.5 10.5538 29.5 14V15.25H19.5Z" fill="#064D47"/>
</svg>
