<svg width="24" height="24" viewBox="0 0 24 24" fill="none" xmlns="http://www.w3.org/2000/svg">
<path d="M3.7515 11.9991C3.7515 6.36722 7.96108 1.71852 13.4054 1.02784C6.86288 0.150648 0.889717 5.38842 0.939768 11.9992C0.88953 18.6091 6.86325 23.8487 13.4055 22.9704C7.96113 22.2797 3.7515 17.631 3.7515 11.9991V11.9991Z" fill="#CEE1F2"/>
<path d="M11.9993 23.996C5.55069 24.1289 -0.131118 18.4478 0.00230353 11.9988C-0.0270332 1.69682 12.3165 -3.8242 19.9846 3.04617C20.3708 3.39085 20.4045 3.98335 20.0598 4.36955C19.7152 4.75576 19.1227 4.78941 18.7365 4.44472C12.3333 -1.36043 1.81541 3.34797 1.87685 11.999C1.81537 20.6493 12.3347 25.3589 18.7364 19.5531C19.1225 19.2084 19.7152 19.242 20.0598 19.6283C20.4044 20.0144 20.3708 20.607 19.9846 20.9516C17.785 22.9148 14.9491 23.996 11.9993 23.996Z" fill="#064D47"/>
<path d="M19.3606 17.435C19.1181 17.435 18.8757 17.3415 18.6922 17.1548C18.3293 16.7857 18.3343 16.1923 18.7034 15.8294L21.854 12.7314C22.0291 12.5559 22.1255 12.3232 22.1255 12.076C22.1255 11.8295 22.0297 11.5976 21.8555 11.4222L18.7069 8.35913C18.3359 7.99818 18.3277 7.40479 18.6886 7.03373C19.0496 6.66271 19.6429 6.65446 20.014 7.0155L23.1674 10.0832C23.1702 10.0859 23.1729 10.0886 23.1756 10.0913C23.7072 10.6212 24 11.3261 24 12.0759C24 12.8259 23.7072 13.5307 23.1756 14.0607C23.1741 14.0622 23.1726 14.0637 23.171 14.0653L20.0176 17.166C19.8352 17.3455 19.5978 17.435 19.3606 17.435V17.435ZM19.3605 12.9361H6.65691C5.4147 12.89 5.41559 11.1071 6.65691 11.0615H19.3605C20.6028 11.1076 20.6019 12.8904 19.3605 12.9361Z" fill="#0D9E91"/>
</svg>
