<svg width="100%" height="100%" viewBox="0 0 60 60" fill="none" xmlns="http://www.w3.org/2000/svg">
<path d="M30 18.2812H34.6875C35.982 18.2812 37.0312 17.232 37.0312 15.9375C37.0312 14.643 35.982 13.5938 34.6875 13.5938H32.3438V11.25C32.3438 9.95555 31.2945 8.90625 30 8.90625C28.7055 8.90625 27.6562 9.95555 27.6562 11.25V13.9969C24.9284 14.9644 22.9688 17.5696 22.9688 20.625C22.9688 24.502 26.123 27.6562 30 27.6562C31.2923 27.6562 32.3438 28.7077 32.3438 30C32.3438 31.2923 31.2923 32.3438 30 32.3438H25.3125C24.018 32.3438 22.9688 33.393 22.9688 34.6875C22.9688 35.982 24.018 37.0312 25.3125 37.0312H27.6562V39.375C27.6562 40.6695 28.7055 41.7188 30 41.7188C31.2945 41.7188 32.3438 40.6695 32.3438 39.375V36.6281C35.0716 35.6606 37.0312 33.0554 37.0312 30C37.0312 26.123 33.877 22.9688 30 22.9688C28.7077 22.9688 27.6562 21.9173 27.6562 20.625C27.6562 19.3327 28.7077 18.2812 30 18.2812Z" fill="#0D9E91"/>
<path d="M34.6875 55.3125H27.6562C27.0305 55.3125 26.4422 55.0688 25.9992 54.6258L11.9367 40.5633C11.4938 40.1203 11.25 39.532 11.25 38.9062C11.25 38.0332 11.7316 37.2363 12.5051 36.8297C14.6227 35.7152 15.9375 33.409 15.9375 30.8098V7.03125C15.9375 5.73867 16.9887 4.6875 18.2812 4.6875H25.3125C24.0199 4.6875 22.9688 5.73867 22.9688 7.03125V30.8098C22.9688 33.409 21.6539 35.7152 19.5363 36.8297C18.7629 37.2363 18.2812 38.0332 18.2812 38.9062C18.2812 39.532 18.525 40.1203 18.968 40.5633L31.1719 52.7672L33.0305 54.6258C33.4734 55.0688 34.0617 55.3125 34.6875 55.3125Z" fill="#CEE1F2"/>
<path d="M47.3333 32.681C46.7789 32.3892 46.4062 31.6375 46.4062 30.8101V7.03125C46.4062 3.15422 43.252 0 39.375 0H20.625C16.748 0 13.5938 3.15422 13.5938 7.03125V30.8101C13.5938 31.6375 13.2212 32.3892 12.6666 32.681C10.3471 33.9014 8.90625 36.2868 8.90625 38.9062C8.90625 40.7843 9.63762 42.55 10.9657 43.878L25.0282 57.9405C26.3563 59.2686 28.122 60 30 60C31.878 60 33.6438 59.2686 34.9718 57.9405L49.0342 43.878C50.3624 42.5501 51.0938 40.7843 51.0938 38.9062C51.0938 36.2868 49.6528 33.9014 47.3333 32.681ZM45.7198 40.5634C45.7198 40.5634 45.7198 40.5635 45.7198 40.5634L31.6571 54.626C31.2144 55.0686 30.6259 55.3125 30 55.3125C29.3741 55.3125 28.7855 55.0686 28.3427 54.626L14.2802 40.5635C13.8375 40.1208 13.5938 39.5323 13.5938 38.9062C13.5938 38.0326 14.0748 37.2368 14.8493 36.8293C16.9662 35.7155 18.2812 33.4091 18.2812 30.8101V7.03125C18.2812 5.73891 19.3327 4.6875 20.625 4.6875H39.375C40.6673 4.6875 41.7188 5.73891 41.7188 7.03125V30.8101C41.7188 33.4091 43.0338 35.7156 45.1507 36.8293C45.9252 37.2368 46.4062 38.0326 46.4062 38.9062C46.4062 39.5322 46.1625 40.1207 45.7198 40.5634Z" fill="#064D47"/>
</svg>
