<svg width="32" height="32" viewBox="0 0 32 32" fill="none" xmlns="http://www.w3.org/2000/svg">
<path d="M11 22.074C10.3096 22.074 9.75 21.5143 9.75 20.824V13.6133C9.75 12.9229 10.3096 12.3633 11 12.3633C11.6904 12.3633 12.25 12.9229 12.25 13.6133V20.824C12.25 21.5143 11.6904 22.074 11 22.074Z" fill="#0D9E91"/>
<path d="M27.3875 13.7953C26.0228 11.6737 24.5 8.84294 24.5 6.77344C24.5 4.67531 25.7929 2.88019 27.625 2.13825C27.0458 1.90375 26.4133 1.77344 25.75 1.77344C22.9886 1.77344 20.75 4.012 20.75 6.77344C20.75 8.84288 22.2727 11.6737 23.6375 13.7953C24.5583 15.2268 26.5479 15.3304 27.625 14.1082C27.5401 14.0118 27.4601 13.9082 27.3875 13.7953Z" fill="#CEE1F2"/>
<path d="M30.75 16.7973C30.0596 16.7973 29.5 17.3569 29.5 18.0473V23.9785C29.5 24.455 29.2353 24.8834 28.809 25.0965C28.8039 25.0991 28.7988 25.1017 28.7938 25.1043L21.5527 28.8497C21.2039 29.0216 20.7888 29.0205 20.441 28.8466L12.6771 24.9646C11.6269 24.4396 10.3731 24.4396 9.32294 24.9646C9.31563 24.9683 9.30825 24.9721 9.30094 24.9759L4.29969 27.6012C3.74112 27.8754 3.27 27.6514 3.09275 27.5419C2.91463 27.4316 2.5 27.1075 2.5 26.4785V14.5687C2.5 14.0922 2.76475 13.6637 3.191 13.4507C3.19613 13.4481 3.20119 13.4455 3.20625 13.4429L10.4473 9.69749C10.7961 9.52561 11.2112 9.52668 11.559 9.70061L16.2518 12.047C16.8691 12.3557 17.6201 12.1054 17.9288 11.488C18.2375 10.8705 17.9873 10.1197 17.3698 9.81093L12.6771 7.46455C11.6269 6.93955 10.3731 6.93955 9.32294 7.46455C9.31781 7.46711 9.31275 7.46974 9.30769 7.47236L2.06456 11.2187C0.790813 11.8595 0 13.1422 0 14.5687V26.4786C0 27.7877 0.664875 28.9802 1.7785 29.6685C2.892 30.3567 4.256 30.4181 5.42706 29.8327C5.43437 29.829 5.44175 29.8252 5.44906 29.8214L10.4501 27.1962C10.7983 27.0257 11.2121 27.0272 11.5591 27.2007L19.323 31.0827C19.8481 31.3452 20.4241 31.4765 21.0001 31.4765C21.5761 31.4765 22.1521 31.3452 22.6771 31.0827C22.6823 31.0801 22.6873 31.0775 22.6924 31.0749L29.9355 27.3284C31.2092 26.6876 32 25.4049 32 23.9785V18.0473C32 17.3569 31.4404 16.7973 30.75 16.7973Z" fill="#064D47"/>
<path d="M22.25 24.9341V18.0474C22.25 17.357 21.6904 16.7974 21 16.7974C20.3096 16.7974 19.75 17.357 19.75 18.0474V24.9341C19.75 25.6244 20.3096 26.1841 21 26.1841C21.6904 26.1841 22.25 25.6244 22.25 24.9341Z" fill="#064D47"/>
<path d="M25.75 8.02344C26.4404 8.02344 27 7.46379 27 6.77344C27 6.08308 26.4404 5.52344 25.75 5.52344C25.0596 5.52344 24.5 6.08308 24.5 6.77344C24.5 7.46379 25.0596 8.02344 25.75 8.02344Z" fill="#064D47"/>
<path d="M25.75 0.523438C22.3037 0.523438 19.5 3.32719 19.5 6.77344C19.5 8.69806 20.5383 11.2881 22.5863 14.4715C23.2839 15.5561 24.4666 16.2035 25.75 16.2035C27.0334 16.2035 28.2161 15.556 28.9137 14.4715C30.9617 11.288 32 8.698 32 6.77338C32 3.32719 29.1963 0.523438 25.75 0.523438ZM26.8112 13.1191C26.5723 13.4905 26.1854 13.7036 25.75 13.7036C25.3146 13.7036 24.9277 13.4905 24.6888 13.119C22.9549 10.4237 22 8.17013 22 6.77344C22 4.70569 23.6823 3.02344 25.75 3.02344C27.8177 3.02344 29.5 4.70569 29.5 6.77344C29.5 8.17013 28.5451 10.4237 26.8112 13.1191Z" fill="#064D47"/>
</svg>
