<svg width="512" height="513" viewBox="0 0 512 513" fill="none" xmlns="http://www.w3.org/2000/svg">
<path d="M513.444 246.121C511.914 179.01 484.376 116.47 435.914 70.0234C387.519 23.6476 323.965 -1.19384 256.975 0.046863C189.961 -1.2095 126.431 23.6476 78.0391 70.0234C29.5734 116.47 2.03914 179.01 0.50489 246.117L0.500977 246.329V246.54C0.853227 314.931 30.137 379.957 80.9785 425.53V487.538C80.9785 499.573 89.3816 510.055 100.955 512.466C102.669 512.822 104.395 513.002 106.114 513.002C110.771 513.002 115.35 511.699 119.382 509.182L169.217 478.047C197.323 487.89 226.65 492.877 256.466 492.877H256.841C258.493 492.908 260.125 492.924 261.773 492.924C327.006 492.92 388.677 468.164 435.914 422.9C484.376 376.454 511.914 313.914 513.444 246.806L513.452 246.462L513.444 246.121ZM415.096 401.178C372.419 442.078 316.368 463.961 257.272 462.794L257.108 462.791H256.943C229.213 462.853 201.922 458.027 175.867 448.474C169.425 446.113 162.407 446.834 156.611 450.454L111.065 478.904V421.867C111.065 415.503 108.297 409.448 103.472 405.256C57.5186 365.307 30.9628 307.483 30.591 246.595C31.9922 187.581 56.227 132.599 98.8571 91.7455C141.53 50.8492 197.597 28.9745 256.677 30.133L256.975 30.1369L257.272 30.133C316.356 28.9862 372.419 50.8492 415.096 91.7455C457.687 132.564 481.922 187.503 483.358 246.462C481.922 305.425 457.687 360.36 415.096 401.178V401.178Z" fill="#0D9E91"/>
<path d="M367.194 174.615H146.755C138.45 174.615 131.714 181.346 131.714 189.656C131.714 197.965 138.45 204.701 146.755 204.701H367.194C375.503 204.701 382.239 197.965 382.239 189.656C382.239 181.346 375.503 174.615 367.194 174.615Z" fill="#0D9E91"/>
<path d="M367.194 241.158H146.755C138.45 241.158 131.714 247.894 131.714 256.2C131.714 264.509 138.45 271.245 146.755 271.245H367.194C375.503 271.245 382.239 264.509 382.239 256.2C382.239 247.894 375.503 241.158 367.194 241.158V241.158Z" fill="#0D9E91"/>
<path d="M367.194 307.703H258.81C250.505 307.703 243.769 314.438 243.769 322.748C243.769 331.053 250.505 337.789 258.81 337.789H367.194C375.503 337.789 382.239 331.053 382.239 322.748C382.239 314.438 375.503 307.703 367.194 307.703Z" fill="#0D9E91"/>
</g>
<defs>
<clipPath id="clip0_2838_2347">
<rect width="512" height="513" fill="white"/>
</clipPath>
</defs>
</svg>
