<svg width="100" height="100" viewBox="0 0 100 100" fill="none" xmlns="http://www.w3.org/2000/svg">
<path d="M15.8457 41.2109C15.8457 22.5338 29.5715 7.0625 47.4863 4.33379C45.6395 4.05234 43.7479 3.90625 41.8223 3.90625C21.2195 3.90625 4.51758 20.6082 4.51758 41.2109C4.51758 61.8137 21.2195 78.5156 41.8223 78.5156C43.7479 78.5156 45.6395 78.3695 47.4863 78.0883C29.5717 75.3594 15.8457 59.8883 15.8457 41.2109Z" fill="#C6E1F2"/>
<path d="M41.2109 82.4219C18.4871 82.4219 0 63.9348 0 41.2109C0 18.4871 18.4871 0 41.2109 0C63.9348 0 82.4219 18.4871 82.4219 41.2109C82.4219 63.9348 63.9348 82.4219 41.2109 82.4219ZM41.2109 7.8125C22.7949 7.8125 7.8125 22.7949 7.8125 41.2109C7.8125 59.627 22.7949 74.6094 41.2109 74.6094C59.627 74.6094 74.6094 59.627 74.6094 41.2109C74.6094 22.7949 59.627 7.8125 41.2109 7.8125ZM41.5857 42.9688C34.801 42.9688 29.2811 37.4488 29.2811 30.6641C29.2811 23.8793 34.801 18.3594 41.5857 18.3594C48.3705 18.3594 53.8904 23.8793 53.8904 30.6641C53.8904 37.4488 48.3707 42.9688 41.5857 42.9688ZM41.5857 26.1719C39.1088 26.1719 37.0936 28.1871 37.0936 30.6641C37.0936 33.141 39.1088 35.1562 41.5857 35.1562C44.0627 35.1562 46.0779 33.141 46.0779 30.6641C46.0779 28.1871 44.0629 26.1719 41.5857 26.1719Z" fill="#064D47"/>
<path d="M53.5132 63.868C51.7784 63.868 50.1944 62.7037 49.736 60.9467C48.8349 57.4912 45.6917 55.0779 42.0927 55.0779H39.9077C36.3087 55.0779 33.1655 57.4912 32.2642 60.9467C31.7194 63.0342 29.5858 64.2846 27.4983 63.7406C25.4108 63.1961 24.1601 61.0623 24.7046 58.975C26.503 52.0807 32.7548 47.2656 39.9077 47.2656H42.0927C49.2456 47.2656 55.4974 52.0807 57.2958 58.975C57.8403 61.0625 56.5895 63.1961 54.502 63.7406C54.1714 63.8268 53.8395 63.868 53.5132 63.868ZM98.864 98.848C100.385 97.3184 100.378 94.8451 98.8485 93.3238L81.2704 75.8434C79.7407 74.3221 77.2675 74.3293 75.7462 75.8588C74.2249 77.3885 74.2319 79.8617 75.7616 81.383L93.3397 98.8635C94.1017 99.6215 95.0977 99.9998 96.094 99.9998C97.0972 99.9998 98.1005 99.6154 98.864 98.848Z" fill="#0D9E91"/>
</g>
<defs>
<clipPath id="clip0_2233_2411">
<rect width="100" height="100" fill="white"/>
</clipPath>
</defs>
</svg>
