<svg width="24" height="22" viewBox="0 0 24 22" fill="none" xmlns="http://www.w3.org/2000/svg">
<path d="M8.25 21.3125H2.8125C1.26169 21.3125 0 20.0508 0 18.5V3.5C0 1.94919 1.26169 0.6875 2.8125 0.6875H8.25C9.80081 0.6875 11.0625 1.94919 11.0625 3.5V18.5C11.0625 20.0508 9.80081 21.3125 8.25 21.3125ZM2.8125 2.5625C2.29556 2.5625 1.875 2.98306 1.875 3.5V18.5C1.875 19.0169 2.29556 19.4375 2.8125 19.4375H8.25C8.76694 19.4375 9.1875 19.0169 9.1875 18.5V3.5C9.1875 2.98306 8.76694 2.5625 8.25 2.5625H2.8125Z" fill="white"/>
<path d="M21.1875 10.0625H15.75C14.1992 10.0625 12.9375 8.80081 12.9375 7.25V3.5C12.9375 1.94919 14.1992 0.6875 15.75 0.6875H21.1875C22.7383 0.6875 24 1.94919 24 3.5V7.25C24 8.80081 22.7383 10.0625 21.1875 10.0625ZM15.75 2.5625C15.2331 2.5625 14.8125 2.98306 14.8125 3.5V7.25C14.8125 7.76694 15.2331 8.1875 15.75 8.1875H21.1875C21.7044 8.1875 22.125 7.76694 22.125 7.25V3.5C22.125 2.98306 21.7044 2.5625 21.1875 2.5625H15.75Z" fill="white"/>
<path d="M21.1875 21.3125H15.75C14.1992 21.3125 12.9375 20.0508 12.9375 18.5V14.75C12.9375 13.1992 14.1992 11.9375 15.75 11.9375H21.1875C22.7383 11.9375 24 13.1992 24 14.75V18.5C24 20.0508 22.7383 21.3125 21.1875 21.3125ZM15.75 13.8125C15.2331 13.8125 14.8125 14.2331 14.8125 14.75V18.5C14.8125 19.0169 15.2331 19.4375 15.75 19.4375H21.1875C21.7044 19.4375 22.125 19.0169 22.125 18.5V14.75C22.125 14.2331 21.7044 13.8125 21.1875 13.8125H15.75Z" fill="#0D9E91"/>
</svg>
