<svg width="100%" height="100%" viewBox="0 0 60 60" fill="none" xmlns="http://www.w3.org/2000/svg">
<g clip-path="url(#clip0_1398_3514)">
<path d="M14.3025 28.8371C14.3025 25.3671 16.3703 22.382 19.34 21.0411C18.2676 20.5568 17.0786 20.2852 15.8254 20.2852C11.1023 20.2852 7.27344 24.114 7.27344 28.8371C7.27344 33.5603 11.1023 37.3891 15.8254 37.3891C17.0786 37.3891 18.2676 37.1174 19.34 36.6332C16.3703 35.2923 14.3025 32.3071 14.3025 28.8371Z" fill="#CEE1F2"/>
<path d="M15.8247 17.9429C9.81721 17.9429 4.92969 22.8304 4.92969 28.8379C5.52821 43.2916 26.1234 43.2874 26.7197 28.8378C26.7197 22.8304 21.8322 17.9429 15.8247 17.9429ZM15.8247 35.0469C12.401 35.0469 9.61571 32.2616 9.61571 28.8379C9.95674 20.6008 21.6938 20.6033 22.0337 28.8379C22.0337 32.2616 19.2483 35.0469 15.8247 35.0469ZM58.0679 21.9184C55.4595 26.4757 50.5662 29.3062 45.2975 29.3065C45.2929 29.3065 45.2893 29.3065 45.2849 29.3065C43.1528 29.3065 40.9623 28.7546 38.7759 27.6661C37.5526 27.057 35.8785 27.1528 35.0331 28.2048C34.4798 29.0969 33.3865 29.5031 32.4001 29.2158C31.3952 28.9278 30.7028 28.0088 30.7028 26.9634L30.7034 14.7942C30.5535 4.27342 41.5826 -3.0082 51.1988 1.22399C52.3861 1.73863 52.9313 3.1182 52.4167 4.30552C51.9019 5.49284 50.5223 6.03829 49.3351 5.52342C45.6534 3.89526 41.0998 4.74413 38.2813 7.66528C36.3907 9.57413 35.3637 12.0942 35.3892 14.761C35.3893 14.7685 35.3893 14.7761 35.3893 14.7836L35.389 22.853C37.1876 22.4176 39.1251 22.6053 40.8644 23.4711C42.3994 24.2352 43.8879 24.6217 45.2951 24.6205C48.8902 24.6205 52.2248 22.6935 54.0008 19.5906C54.6435 18.4675 56.0752 18.0782 57.1981 18.721C58.3214 19.3638 58.7107 20.7954 58.0679 21.9184Z" fill="#064D47"/>
<path d="M48.2797 18.5293C46.6773 18.5293 45.1728 17.8977 44.0431 16.7511L40.7421 13.3717C39.838 12.446 39.8554 10.9627 40.7811 10.0584C41.707 9.15432 43.1902 9.17178 44.0944 10.0974L47.3882 13.4696C47.6231 13.7081 47.9422 13.8433 48.2796 13.8433C48.617 13.8433 48.9361 13.7081 49.1781 13.4624L55.9806 6.57372C56.8897 5.65292 58.3732 5.64355 59.294 6.55287C60.2147 7.46208 60.224 8.94556 59.3148 9.86636L52.5142 16.7531C51.3867 17.8979 49.8821 18.5293 48.2797 18.5293ZM31.6404 57.6576C31.6404 49.583 25.058 43.0138 16.9669 43.0138H14.6834C6.59234 43.0138 0.00976562 49.583 0.00976562 57.6576C0.00976562 58.9517 1.05873 60.0007 2.35278 60.0007C3.64683 60.0007 4.69579 58.9517 4.69579 57.6576C4.69579 52.1669 9.17622 47.6998 14.6834 47.6998H16.9669C22.474 47.6998 26.9544 52.1669 26.9544 57.6576C26.9544 58.9517 28.0034 60.0007 29.2974 60.0007C30.5915 60.0007 31.6404 58.9517 31.6404 57.6576Z" fill="#0D9E91"/>
</g>
</svg>
