<svg width="512" height="512" viewBox="0 0 512 512" fill="none" xmlns="http://www.w3.org/2000/svg">
<path d="M80 392V120C80 64.771 124.771 20 180 20H120C64.771 20 20 64.771 20 120V392C20 447.228 64.771 492 120 492H172.058C120.543 487.952 80 444.555 80 392V392Z" fill="#CEE1F2"/>
<path d="M392 512H120C53.832 512 0 458.168 0 392V120C0 53.832 53.832 0 120 0H392C458.168 0 512 53.832 512 120V392C512 458.168 458.168 512 392 512ZM120 40C75.888 40 40 75.888 40 120V392C40 436.112 75.888 472 120 472H392C436.112 472 472 436.112 472 392V120C472 75.888 436.112 40 392 40H120Z" fill="#064D47"/>
<path d="M197.981 377.003C182.964 377.277 172.822 359.912 180.709 346.949L298.709 143.949C312.806 121.579 345.774 140.58 333.291 164.051L215.291 367.051C211.578 373.438 204.873 377.003 197.981 377.003V377.003ZM227 175C227 141.916 200.084 115 167 115C87.511 118.017 87.533 231.995 167.001 235C200.084 235 227 208.084 227 175ZM187 175C187 186.028 178.028 195 167 195C140.504 193.994 140.511 156.002 167 155C178.028 155 187 163.972 187 175ZM406 336C406 302.916 379.084 276 346 276C266.511 279.017 266.533 392.995 346.001 396C379.084 396 406 369.084 406 336ZM366 336C366 347.028 357.028 356 346 356C319.504 354.995 319.511 317.001 346 316C357.028 316 366 324.972 366 336Z" fill="#0D9E91"/>
</svg>
