<svg width="512" height="512" viewBox="0 0 512 512" fill="none" xmlns="http://www.w3.org/2000/svg">
<g id="Group">
<path id="Vector" d="M312.085 426.12L85.8109 199.868C57.3849 171.442 54.8319 126.952 78.1329 95.629C75.8459 97.121 73.6759 98.866 71.6679 100.873L43.3839 129.157C12.1419 160.399 12.1419 211.052 43.3839 242.294L269.658 468.546C300.9 499.788 351.553 499.788 382.795 468.546C410.718 440.253 412.396 439.819 416.323 433.797C385.001 457.098 340.511 454.545 312.085 426.12V426.12Z" fill="#CEE1F2"/>
<g id="Group_2">
<path id="Vector_2" d="M170.664 115.015L142.38 86.731C118.985 63.337 80.921 63.337 57.526 86.731L29.242 115.015C-9.74701 154.005 -9.74701 217.447 29.242 256.436L255.516 482.687C294.596 521.767 357.853 521.772 396.938 482.687L425.222 454.403C448.616 431.009 448.616 392.945 425.222 369.55L396.938 341.266C373.49 317.819 335.537 317.814 312.085 341.266C304.286 349.064 291.599 349.064 283.8 341.266H283.801L170.664 228.152C162.865 220.354 162.865 207.666 170.663 199.868C194.111 176.421 194.115 138.467 170.664 115.015V115.015ZM255.516 369.551C255.517 369.551 255.517 369.551 255.516 369.551C278.91 392.945 316.975 392.945 340.37 369.551C348.186 361.735 360.837 361.734 368.653 369.551L396.937 397.835C404.736 405.633 404.736 418.321 396.937 426.119L368.653 454.403C345.206 477.851 307.252 477.854 283.801 454.403L57.527 228.152C34.132 204.758 34.132 166.693 57.527 143.299L85.811 115.015C93.608 107.217 106.297 107.217 114.094 115.015L142.378 143.299C150.193 151.113 150.197 163.766 142.378 171.583C118.984 194.977 118.984 233.042 142.378 256.436L255.516 369.551Z" fill="#064D47"/>
<path id="Vector_3" d="M492 280C503.046 280 512 271.046 512 260C512 116.636 395.364 0 252 0C240.954 0 232 8.954 232 20C232 31.046 240.954 40 252 40C373.309 40 472 138.691 472 260C472 271.046 480.954 280 492 280Z" fill="#064D47"/>
<path id="Vector_4" d="M312 260C312 271.046 320.954 280 332 280C343.046 280 352 271.046 352 260C352 204.86 307.141 160 252 160C240.954 160 232 168.954 232 180C232 191.046 240.954 200 252 200C285.084 200 312 226.916 312 260Z" fill="#064D47"/>
</g>
<path id="Vector_5" d="M412 280C423.046 280 432 271.046 432 260C432 160.748 351.252 80 252 80C240.954 80 232 88.954 232 100C232 111.046 240.954 120 252 120C329.196 120 392 182.804 392 260C392 271.046 400.954 280 412 280Z" fill="#0D9E91"/>
</g>
</g>
<defs>
<clipPath id="clip0_2224_2174">
<rect width="512" height="512" fill="white"/>
</clipPath>
</defs>
</svg>
