<svg width="24" height="24" viewBox="0 0 24 24" fill="none" xmlns="http://www.w3.org/2000/svg">
<path d="M10.1262 23.9065C9.93418 23.9065 9.74078 23.8869 9.54846 23.8469C0.280353 21.9597 -3.24525 10.2563 3.51194 3.59384C7.99041 -1.07442 16.0213 -1.07226 20.4969 3.5884C26.7783 9.75675 24.2256 20.6581 15.9231 23.4827C14.732 23.8479 14.1494 22.1573 15.3073 21.7093C25.9899 17.8457 23.407 2.10474 12.0013 1.94663C-0.181114 2.32076 -1.91313 19.1439 9.92991 22.0089C10.2094 22.0669 10.4963 21.9971 10.7171 21.8173C10.8462 21.7122 11.0629 21.4781 11.0629 21.0902V19.0293C11.109 17.7852 12.8944 17.7862 12.9401 19.0293V21.0902C12.9749 22.6022 11.6292 23.9377 10.1262 23.9065Z" fill="white"/>
<path d="M12.0426 16.7766C9.6134 16.7766 7.63716 14.8223 7.63716 12.4202L7.64115 10.3002H7.30865C6.06462 10.2541 6.06556 8.46869 7.30865 8.42298H9.04508V5.46636C9.09121 4.22233 10.8766 4.22327 10.9223 5.46636V8.42298H13.0811V5.46636C13.1272 4.22233 14.9126 4.22327 14.9583 5.46636V8.42298H16.6947C17.9388 8.46911 17.9378 10.2545 16.6947 10.3002H16.4132V12.4202C16.4132 14.8224 14.4525 16.7766 12.0426 16.7766ZM9.51837 10.3002L9.51438 12.422C9.64194 15.6877 14.4119 15.7197 14.5359 12.4202V10.3002H9.51837Z" fill="#0D9E91"/>
</g>
<defs>
<clipPath id="clip0_1831_3366">
<rect width="24" height="24" fill="white"/>
</clipPath>
</defs>
</svg>
