<svg width="60" height="60" viewBox="0 0 60 60" fill="none" xmlns="http://www.w3.org/2000/svg">
<path d="M30.0757 57.0116C0.852058 49.011 3.41505 7.02588 33.5239 2.74195C17.1441 0.545837 2.19005 13.6589 2.31523 30.2093C2.31512 45.0688 14.0204 57.1945 28.7135 57.8686C29.1413 57.8883 30.0946 57.3067 30.0757 57.0116Z" fill="#CEE1F2"/>
<path d="M25.3155 59.7664C24.8354 59.7664 24.3519 59.7174 23.8711 59.6175C0.700883 54.8994 -8.11312 25.6411 8.77984 8.98486C19.976 -2.68581 40.0532 -2.68041 51.2421 8.97125C66.9458 24.3921 60.5639 51.6455 39.8077 58.707C36.83 59.62 35.3736 55.3936 38.2682 54.2736C64.9748 44.6145 58.5175 5.2621 30.0033 4.86683C-0.452786 5.80215 -4.78282 47.8601 24.8248 55.0226C25.5236 55.1675 26.2407 54.9929 26.7928 54.5435C27.1156 54.2808 27.6571 53.6954 27.6571 52.7258V47.5734C27.7725 44.4633 32.2359 44.4657 32.3502 47.5734V52.7258C32.4374 56.5058 29.0729 59.8446 25.3155 59.7664Z" fill="#064D47"/>
<path d="M30.1059 41.9418C24.033 41.9418 19.0924 37.0561 19.0924 31.0508L19.1024 25.7507H18.2711C15.1611 25.6354 15.1634 21.172 18.2711 21.0577H22.6122V13.6662C22.7275 10.5561 27.191 10.5584 27.3052 13.6662V21.0577H32.7022V13.6662C32.8176 10.5561 37.281 10.5584 37.3953 13.6662V21.0577H41.7364C44.8464 21.173 44.8441 25.6365 41.7364 25.7507H41.0324V31.0508C41.0324 37.0562 36.1309 41.9418 30.1059 41.9418ZM23.7954 25.7507L23.7855 31.0553C24.1044 39.2195 36.0293 39.2994 36.3394 31.0508V25.7507H23.7954Z" fill="#0D9E91"/>
</g>
<defs>
<clipPath id="clip0_1479_2089">
<rect width="60" height="60" fill="white"/>
</clipPath>
</defs>
</svg>
