<svg width="512" height="512" viewBox="0 0 512 512" fill="none" xmlns="http://www.w3.org/2000/svg">
<path d="M125.123 175.973C116.572 181.676 106.283 184.999 95.209 184.999C65.536 184.999 40.937 161.167 40.937 131.494L41.026 84.135H101.026L100.937 131.494C100.936 150.093 110.603 166.394 125.123 175.973V175.973ZM446.749 336.024C438.103 330.32 427.738 326.998 416.664 326.998C386.991 326.998 362.937 350.83 362.937 380.503V427.862H422.937V380.503C422.936 361.904 432.388 345.603 446.749 336.024V336.024Z" fill="#CEE1F2"/>
<path d="M237.938 360.999C232.716 360.999 227.5 358.967 223.578 354.922C215.889 346.992 216.084 334.33 224.014 326.641L275.202 277.007H230.429C197.036 277.178 180.276 235.756 204.348 212.642L262.045 156.647C269.972 148.956 282.633 149.145 290.326 157.071C298.019 164.998 297.829 177.659 289.903 185.352L236.677 237.007H281.454C296.749 237.007 310.364 246.162 316.138 260.331C321.915 274.508 318.576 290.581 307.629 301.279L251.859 355.357C247.974 359.124 242.953 360.999 237.938 360.999V360.999Z" fill="#0D9E91"/>
<path d="M199.18 25.994C197.461 15.083 204.914 4.84501 215.825 3.12601C230.377 0.834011 245.351 -0.202989 260.136 0.0330113C307.655 0.799011 352.169 20.079 385.484 54.32C418.661 88.421 436.929 133.412 436.921 181.007L436.91 251.002C436.908 262.047 427.954 270.999 416.91 270.999H416.907C405.862 270.997 396.908 262.041 396.91 250.996L396.921 181.001C396.933 104.49 335.285 41.25 259.496 40.027C246.972 39.823 234.332 40.704 222.048 42.639C211.132 44.361 200.898 36.904 199.18 25.994V25.994ZM95.209 204.999C54.255 204.999 20.936 172.025 20.936 131.494L20.991 101.999H19.936C-6.572 101.016 -6.552 62.973 19.936 61.999H36.936V19.999C37.919 -6.50899 75.962 -6.48899 76.936 19.999V61.999H111.936V19.999C112.919 -6.50899 150.962 -6.48899 151.936 19.999V61.999H168.936C195.444 62.982 195.424 101.025 168.936 101.999V131.494C168.936 172.025 135.862 204.999 95.209 204.999ZM95.208 164.999C113.806 164.999 128.936 149.969 128.936 131.494V101.999H60.991L60.936 131.531C60.936 149.968 76.311 164.999 95.208 164.999V164.999ZM289.825 469.358C278.7 471.11 265.299 471.999 253.936 471.999C178.147 470.776 114.939 407.508 114.952 330.997L114.963 261.002C114.965 249.957 106.012 241.001 94.966 240.999H94.963C83.919 240.999 74.965 249.951 74.963 260.996L74.952 330.991C74.944 378.586 93.212 423.577 126.389 457.678C159.704 491.919 207.418 511.234 254.936 511.999C268.375 511.999 282.871 510.947 296.047 508.872C306.958 507.153 314.411 496.915 312.692 486.004C310.974 475.092 300.741 467.638 289.825 469.358V469.358ZM511.936 429.999C511.936 441.045 502.982 449.999 491.936 449.999H474.936V491.999C473.953 518.507 435.91 518.487 434.936 491.999V449.999H399.936V491.999C398.953 518.507 360.91 518.487 359.936 491.999V449.999H342.936C316.428 449.016 316.448 410.973 342.936 409.999V380.504C346.649 282.83 487.237 283.448 490.936 380.504L490.881 409.999H491.936C502.982 409.999 511.936 418.953 511.936 429.999ZM450.936 380.466C449.203 336.383 384.611 335.879 382.936 380.503V409.998H450.881L450.936 380.466Z" fill="#064D47"/>
</svg>
