<svg width="512" height="512" viewBox="0 0 512 512" fill="none" xmlns="http://www.w3.org/2000/svg">
<path d="M256 212V201.044C256 187.378 249.524 173.785 237.439 167.403C224.72 160.687 216 147.312 216 132C216 110 234 92 256 92H196C174 92 156 110 156 132C156 147.312 164.72 160.687 177.439 167.403C189.524 173.785 196 187.378 196 201.044V212C196 256 232 292 276 292H316C319.387 292 322.72 291.762 326 291.348C286.677 286.385 256 252.613 256 212Z" fill="#CEE1F2"/>
<path d="M316 192H276C264.954 192 256 183.046 256 172C256 160.954 264.954 152 276 152H316C327.046 152 336 160.954 336 172C336 183.046 327.046 192 316 192Z" fill="#0D9E91"/>
<path d="M296 352C284.954 352 276 360.954 276 372V442C276 458.542 262.542 472 246 472C229.458 472 216 458.542 216 442V412C216 378.916 189.084 352 156 352H76C64.954 352 56 360.954 56 372C56 383.046 64.954 392 76 392H156C167.028 392 176 400.972 176 412V442C176 480.598 207.402 512 246 512C284.598 512 316 480.598 316 442V372C316 360.954 307.046 352 296 352Z" fill="#064D47"/>
<path d="M396 72H376V20C376 8.954 367.046 0 356 0C344.954 0 336 8.954 336 20V72H256V20C256 8.954 247.046 0 236 0C224.954 0 216 8.954 216 20V72H196C162.916 72 136 98.916 136 132C136 154.291 148.3 174.634 168.1 185.089C172.825 187.584 176 193.996 176 201.044V212C176 267.14 220.86 312 276 312H316C371.14 312 416 267.14 416 212V201.044C416 193.996 419.175 187.584 423.9 185.089C443.7 174.633 456 154.291 456 132C456 98.916 429.084 72 396 72ZM405.221 149.718C387.197 159.236 376 178.903 376 201.044V212C376 245.084 349.084 272 316 272H276C242.916 272 216 245.084 216 212V201.044C216 178.903 204.803 159.236 186.778 149.718C180.13 146.207 176 139.418 176 132C176 120.972 184.972 112 196 112H396C407.028 112 416 120.972 416 132C416 139.418 411.87 146.207 405.221 149.718Z" fill="#064D47"/>
</svg>
