<svg width="200" height="200" viewBox="0 0 200 200" fill="none" xmlns="http://www.w3.org/2000/svg">
<path d="M123.438 75H107.812C103.498 75 100 71.5023 100 67.1875C100 62.8727 103.498 59.375 107.812 59.375H123.438C127.752 59.375 131.25 62.8727 131.25 67.1875C131.25 71.5023 127.752 75 123.438 75Z" fill="#0D9E91"/>
<path d="M115.625 137.5C111.31 137.5 107.812 140.998 107.812 145.312V172.656C107.812 179.118 102.555 184.375 96.0938 184.375C89.632 184.375 84.375 179.118 84.375 172.656V160.938C84.375 148.014 73.8609 137.5 60.9375 137.5H29.6875C25.3727 137.5 21.875 140.998 21.875 145.312C21.875 149.627 25.3727 153.125 29.6875 153.125H60.9375C65.2453 153.125 68.75 156.63 68.75 160.938V172.656C68.75 187.734 81.0164 200 96.0938 200C111.171 200 123.438 187.734 123.438 172.656V145.312C123.438 140.998 119.94 137.5 115.625 137.5Z" fill="white"/>
<path d="M154.688 28.125H146.875V7.8125C146.875 3.49766 143.377 0 139.062 0C134.748 0 131.25 3.49766 131.25 7.8125V28.125H100V7.8125C100 3.49766 96.5023 0 92.1875 0C87.8727 0 84.375 3.49766 84.375 7.8125V28.125H76.5625C63.6391 28.125 53.125 38.6391 53.125 51.5625C53.125 60.2699 57.9297 68.2164 65.6641 72.3004C67.5098 73.275 68.75 75.7797 68.75 78.5328V82.8125C68.75 104.352 86.2734 121.875 107.812 121.875H123.438C144.977 121.875 162.5 104.352 162.5 82.8125V78.5328C162.5 75.7797 163.74 73.275 165.586 72.3004C173.32 68.216 178.125 60.2699 178.125 51.5625C178.125 38.6391 167.611 28.125 154.688 28.125ZM158.289 58.4836C151.249 62.2016 146.875 69.884 146.875 78.5328V82.8125C146.875 95.7359 136.361 106.25 123.438 106.25H107.812C94.8891 106.25 84.375 95.7359 84.375 82.8125V78.5328C84.375 69.884 80.0012 62.2016 72.9602 58.4836C70.3633 57.1121 68.75 54.4602 68.75 51.5625C68.75 47.2547 72.2547 43.75 76.5625 43.75H154.688C158.995 43.75 162.5 47.2547 162.5 51.5625C162.5 54.4602 160.887 57.1121 158.289 58.4836Z" fill="white"/>
</svg>
