<svg width="512" height="512" viewBox="0 0 512 512" fill="none" xmlns="http://www.w3.org/2000/svg">
<path d="M165.044 19.9902V144.929M348.955 19.9902V144.929M421.919 146.945H90.081C68.0008 146.945 50.1005 164.846 50.1005 186.926C50.1005 209.006 68.0008 226.906 90.081 226.906H100.076V336.526C100.076 422.755 171.563 492.01 257.791 492.01C344.02 492.01 413.922 422.755 413.922 336.526V226.906H421.918C443.998 226.906 461.898 209.006 461.898 186.926C461.899 164.846 443.999 146.945 421.919 146.945Z" stroke="white" stroke-width="39.9805" stroke-miterlimit="10" stroke-linecap="round" stroke-linejoin="round"/>
<path d="M237.85 400.804L290.936 345.537C301.606 334.341 294.228 314.877 279.315 314.877H230.694C215.753 314.877 208.389 295.351 219.116 284.173L274.092 226.889" stroke="#0D9E91" stroke-width="39.9805" stroke-miterlimit="10" stroke-linecap="round" stroke-linejoin="round"/>
</svg>
