<svg width="100%" height="100%" viewBox="0 0 80 80" fill="none" xmlns="http://www.w3.org/2000/svg">
<g clip-path="url(#clip0_1392_2153)">
<path d="M36.9128 38.1877C25.6134 42.0437 13.1811 33.0924 13.3973 21.0927C13.1805 9.09569 25.6148 0.138822 36.9128 3.99804C20.4465 9.40132 20.457 32.7908 36.9128 38.1877ZM54.1409 67.4993V63.2805C54.1409 58.1029 58.3383 53.9055 63.5159 53.9055H54.1409C48.9633 53.9055 44.7659 58.1029 44.7659 63.2805V67.4993C44.7659 72.6769 48.9633 76.8743 54.1409 76.8743H63.5159C58.3383 76.8743 54.1409 72.6769 54.1409 67.4993Z" fill="#CEE1F2"/>
<path d="M68.9833 51.4627V47.3438C68.5105 34.9206 50.7018 34.9299 50.2333 47.3438V51.4097C45.2487 53.0541 41.6396 57.7529 41.6396 63.2813V67.5C41.6396 74.3925 47.2471 80 54.1396 80H64.9208C71.8133 80 77.4208 74.3925 77.4208 67.5V63.2813C77.4208 57.8108 73.8871 53.1532 68.9833 51.4627ZM59.6083 44.2188C61.3314 44.2188 62.7333 45.6207 62.7333 47.3438V50.7813H56.4833V47.3438C56.4833 45.6207 57.8854 44.2188 59.6083 44.2188ZM71.1708 67.5C71.1708 70.9463 68.3671 73.75 64.9208 73.75H54.1396C50.6933 73.75 47.8896 70.9463 47.8896 67.5V63.2813C47.8896 59.835 50.6933 57.0313 54.1396 57.0313H64.9208C68.3671 57.0313 71.1708 59.835 71.1708 63.2813V67.5ZM54.1396 21.0937C54.1396 9.46264 44.677 0 33.0459 0C5.10062 1.06047 5.10828 41.1313 33.0462 42.1874C44.6771 42.1874 54.1396 32.7248 54.1396 21.0937ZM33.0459 35.9374C24.8611 35.9374 18.2022 29.2785 18.2022 21.0937C18.9484 1.42859 47.1463 1.43391 47.8896 21.0939C47.8896 29.2785 41.2309 35.9374 33.0459 35.9374Z" fill="#064D47"/>
<path d="M5.70313 80.0001C3.97719 80.0001 2.57812 78.601 2.57812 76.8751V73.5938C2.57812 62.2484 9.26125 51.9866 19.6044 47.4509C23.4597 45.9288 25.8434 51.3731 22.1144 53.1748C14.0433 56.7141 8.82813 64.7291 8.82813 73.5938V76.8751C8.82813 78.601 7.42906 80.0001 5.70313 80.0001ZM59.4531 61.5627C57.2958 61.5627 55.5469 63.3116 55.5469 65.469C55.7384 70.6449 63.1686 70.6435 63.3594 65.469C63.3594 63.3116 61.6106 61.5627 59.4531 61.5627Z" fill="#0D9E91"/>
</g>
</svg>
