<svg width="512" height="512" viewBox="0 0 512 512" fill="none" xmlns="http://www.w3.org/2000/svg">
<g clip-path="url(#clip0_3052_9589)">
<path d="M287.101 366.845C215.55 387.955 140.042 331.021 141.243 256.141C140.038 181.276 215.558 124.309 287.101 145.438C175.911 177.419 175.983 334.907 287.101 366.845ZM80.2648 256.141C80.2648 136.009 170.058 36.8499 286.189 22.1163C146.631 3.40622 19.2214 115.131 20.288 256.142C19.2164 397.135 146.639 508.899 286.189 490.166C170.058 475.432 80.2648 376.274 80.2648 256.141V256.141Z" fill="#CEE1F2"/>
<path d="M421.385 117.083C414.27 108.64 415.346 96.0269 423.789 88.9115C432.231 81.7961 444.845 82.8717 451.96 91.3146C472.859 116.112 488.656 144.208 498.909 174.822C502.415 185.292 496.77 196.622 486.3 200.128C476.111 203.625 464.479 198.09 460.994 187.52C452.348 161.708 439.023 138.008 421.385 117.083V117.083ZM486.547 311.128C476.057 307.669 464.756 313.366 461.297 323.851C380.912 554.677 44.5805 500.607 40.2811 256.139C38.6317 120.057 170.565 14.557 302.88 45.2766C313.67 47.6508 324.329 40.8353 326.706 30.0532C329.081 19.2702 322.266 8.60317 311.483 6.22804C61.0804 -46.1756 -103.67 254.339 75.2492 437.096C208.293 571.75 440.953 516.171 499.269 336.379C502.728 325.893 497.032 314.588 486.547 311.128V311.128ZM121.25 256.142C121.293 381.281 279.074 438.734 359.46 343.029C366.573 334.585 365.492 321.972 357.046 314.86C348.601 307.749 335.989 308.828 328.875 317.274C272.289 384.647 161.252 344.184 161.234 256.141C161.237 168.607 271.227 127.863 328.198 194.215C335.427 202.61 348.063 203.499 356.392 196.319C364.76 189.114 365.702 176.49 358.497 168.123C277.515 73.8361 121.244 131.788 121.25 256.142Z" fill="#064D47"/>
<path d="M492.113 276.135H255.201C228.674 275.079 228.694 237.196 255.201 236.15H492.113C518.639 237.206 518.619 275.089 492.113 276.135ZM353.164 53.2173C353.164 67.0192 364.353 78.2081 378.155 78.2081C411.305 76.8916 411.296 29.5381 378.155 28.2266C364.353 28.2266 353.164 39.4154 353.164 53.2173Z" fill="#0D9E91"/>
</g>
<defs>
<clipPath id="clip0_3052_9589">
<rect width="512" height="512" fill="white"/>
</clipPath>
</defs>
</svg>
