<svg width="50" height="50" viewBox="0 0 50 50" fill="none" xmlns="http://www.w3.org/2000/svg">
<g clip-path="url(#clip0_3146_6790)">
<path d="M14.2751 39.3206L11.7893 17.4904C11.5374 15.1788 13.348 13.1602 15.6733 13.1602H9.75509C7.42977 13.1602 5.6192 15.1788 5.8711 17.4904L8.41472 39.3206C8.95485 44.276 13.1398 48.0297 18.1246 48.0297H23.985C19.0002 48.0297 14.8153 44.276 14.2751 39.3206Z" fill="#CEE1F2"/>
<path d="M41.792 13.1602C41.792 14.2391 40.9175 15.1137 39.8386 15.1137H38.4249L36.6944 27.5913C36.5511 28.6647 35.5376 29.4101 34.4911 29.2579C33.4225 29.1096 32.6762 28.1232 32.8245 27.0546L34.4806 15.1138H7.57133L10.3555 39.0954C10.3561 39.1 10.3566 39.1045 10.3571 39.1091C10.7901 43.0811 14.1294 46.0764 18.125 46.0764H24.3084C26.8976 46.1724 26.8956 49.8882 24.3084 49.9833H18.125C12.1347 49.9833 7.12731 45.4944 6.47406 39.5407L3.6382 15.1137H1.94112C-0.648017 15.0177 -0.646063 11.3018 1.94112 11.2067H39.8386C40.9175 11.2067 41.792 12.0813 41.792 13.1602V13.1602ZM15.9072 19.0232C14.8298 19.0779 14.0005 19.9957 14.0552 21.0731L15.032 40.3149C15.0839 41.394 16.0147 42.2245 17.0819 42.1668C18.1594 42.1121 18.9886 41.1942 18.9339 40.1168L17.9572 20.8751C17.9024 19.7976 16.9851 18.9689 15.9072 19.0232ZM25.8726 19.0232C24.7948 18.968 23.8773 19.7976 23.8226 20.8751L22.8459 40.1168C22.7912 41.1943 23.6204 42.1122 24.6978 42.1668C25.7649 42.2244 26.6959 41.394 26.7478 40.3149L27.7246 21.0731C27.7793 19.9956 26.95 19.0778 25.8726 19.0232V19.0232ZM16.2015 8.56952C17.2804 8.56952 18.155 7.69495 18.155 6.61604C18.155 5.10806 19.3819 3.88118 20.8898 3.88118C22.3978 3.88118 23.6247 5.10806 23.6247 6.61604C23.7191 9.20293 27.4363 9.20489 27.5317 6.61604C27.1975 -2.18359 14.5805 -2.18027 14.248 6.61614C14.248 7.69495 15.1226 8.56952 16.2015 8.56952Z" fill="#064D47"/>
<path d="M37.8842 48.0303C37.8842 49.1092 37.0096 49.9838 35.9307 49.9838H34.0373C30.5807 50.0436 28.3078 46.116 30.1145 43.1624C30.1343 43.1288 31.185 41.567 31.185 41.567C31.7877 40.6722 33.0018 40.4354 33.8966 41.0382C34.7914 41.6409 35.0281 42.8549 34.4254 43.7497L33.4601 45.1826C33.3379 45.4183 33.3993 45.623 33.4751 45.7556C33.5436 45.8756 33.7078 46.0769 34.0373 46.0769H35.9307C37.0096 46.0769 37.8842 46.9514 37.8842 48.0303V48.0303ZM49.3692 43.1684C49.3642 43.1599 49.359 43.1514 49.354 43.143L48.4415 41.643C47.8806 40.7212 46.6787 40.4289 45.7573 40.9894C44.8356 41.5502 44.5429 42.7518 45.1037 43.6736L46.0062 45.1571C46.1467 45.4038 46.0833 45.6187 46.0047 45.756C45.9362 45.8758 45.772 46.0769 45.4427 46.0769H43.5493C40.9602 46.1729 40.9621 49.8887 43.5493 49.9838H45.4427C47.0985 49.9838 48.5763 49.1287 49.3959 47.6964C50.2097 46.2741 50.1997 44.5814 49.3692 43.1684V43.1684ZM43.0628 38.3609C43.4067 38.3609 43.755 38.2701 44.0707 38.0794C44.9943 37.5218 45.2908 36.321 44.7332 35.3974L43.6815 33.6559C42.8561 32.2605 41.3931 31.4271 39.7654 31.4258H39.7617C38.1417 31.4258 36.6837 32.2506 35.8551 33.6343L34.7654 35.3673C34.1911 36.2807 34.4659 37.4865 35.3792 38.0609C36.2925 38.6352 37.4985 38.3605 38.0727 37.4471L39.1753 35.6937C39.1851 35.678 39.1947 35.6623 39.2042 35.6464C39.3649 35.3737 39.6224 35.3328 39.7619 35.3328H39.7624C39.9018 35.3329 40.1594 35.374 40.3201 35.6471C40.324 35.6538 40.3279 35.6604 40.3319 35.6671L41.3886 37.417C41.7557 38.0246 42.401 38.3609 43.0628 38.3609Z" fill="#0D9E91"/>
</g>
<defs>
<clipPath id="clip0_3146_6790">
<rect width="50" height="50" fill="white"/>
</clipPath>
</defs>
</svg>
