<svg width="32" height="32" viewBox="0 0 32 32" fill="none" xmlns="http://www.w3.org/2000/svg">
<rect width="32" height="32" fill="#F2F2F2"/>
<g id="Artboard Copy 294">
<rect x="-1352" y="-26" width="1440" height="1024" fill="#FBFCF7"/>
<g id="Group 738">
<g id="Group 737">
<path id="Vector" d="M28.7955 6.5458C25.8323 2.67508 21.3265 0.455078 16.4336 0.455078C12.9936 0.455078 9.73161 1.56023 6.99998 3.65122C6.01161 4.40791 5.11747 5.28286 4.33907 6.24857L3.64499 2.31713C3.569 1.88719 3.15856 1.59965 2.72904 1.67607L0.65312 2.04245C0.446636 2.07892 0.263129 2.19592 0.142863 2.36762C0.0225984 2.53943 -0.0244115 2.75181 0.012058 2.9583L1.6612 12.3001C1.72897 12.6835 2.06247 12.9534 2.43876 12.9534C2.4844 12.9534 2.53067 12.9494 2.57715 12.9411L11.919 11.292C12.349 11.2161 12.636 10.8061 12.5601 10.3762L12.1936 8.30024C12.1571 8.09376 12.0403 7.91025 11.8684 7.78998C11.6966 7.66972 11.4843 7.62281 11.2778 7.65918L7.38491 8.34641C7.93248 7.69923 8.55225 7.10887 9.24253 6.58048C11.3255 4.98605 13.8129 4.14335 16.436 4.14335C20.1693 4.14335 23.6064 5.83644 25.8663 8.78836C27.7916 11.3033 28.6222 14.4175 28.2052 17.5573C27.7881 20.6971 26.1734 23.4866 23.6583 25.4118C21.5694 27.0109 19.0859 27.8561 16.4763 27.8561C15.9497 27.8561 15.4157 27.8207 14.8892 27.7508C11.7494 27.3338 8.95995 25.7192 7.03465 23.204C5.86278 21.6733 5.07521 19.8671 4.757 17.9807C4.72211 17.774 4.60648 17.5895 4.43562 17.468C4.26487 17.3465 4.05259 17.298 3.84589 17.3327L1.76723 17.6833C1.33677 17.756 1.0467 18.1639 1.11921 18.5943C1.53693 21.0708 2.56946 23.4403 4.10529 25.4465C6.62948 28.7439 10.2869 30.8611 14.4034 31.4078C15.0921 31.4993 15.791 31.5457 16.4807 31.5457C19.9048 31.5457 23.1622 30.4374 25.9005 28.3412C29.198 25.817 31.3151 22.1596 31.8619 18.043C32.4089 13.9263 31.3199 9.84324 28.7955 6.5458Z" fill="#064D47"/>
</g>
</g>
</g>
</g>
<defs>
<clipPath id="clip0_1479_2087">
<rect width="32" height="32" fill="white"/>
</clipPath>
</defs>
</svg>
