<svg width="512" height="512" viewBox="0 0 512 512" fill="none" xmlns="http://www.w3.org/2000/svg">
<path d="M80 256C80 135.824 169.826 36.628 286 21.89C276.176 20.643 266.163 20 256 20C125.661 20 20 125.661 20 256C20 386.339 125.661 492 256 492C266.163 492 276.176 491.357 286 490.11C169.826 475.372 80 376.176 80 256Z" fill="#CEE1F2"/>
<path d="M256 512C187.62 512 123.333 485.371 74.98 437.02C26.629 388.667 0 324.38 0 256C0 187.62 26.629 123.333 74.98 74.98C123.333 26.629 187.62 0 256 0C324.38 0 388.667 26.629 437.02 74.98C485.371 123.333 512 187.62 512 256C512 324.38 485.371 388.667 437.02 437.02C388.667 485.371 324.38 512 256 512V512ZM256 40C136.897 40 40 136.897 40 256C40 375.103 136.897 472 256 472C375.103 472 472 375.103 472 256C472 136.897 375.103 40 256 40ZM355.875 354.263C354.388 351.924 318.704 297 255.002 297C191.3 297 155.617 351.924 154.129 354.263C148.199 363.582 150.946 375.943 160.265 381.873C169.584 387.804 181.946 385.057 187.875 375.737C188.122 375.35 213.013 337 255.002 337C296.991 337 321.882 375.35 322.129 375.737C328.059 385.056 340.42 387.803 349.739 381.873C359.059 375.943 361.806 363.582 355.875 354.263V354.263Z" fill="#064D47"/>
<path d="M168 165C181.807 165 193 176.193 193 190C193 203.807 181.807 215 168 215C154.193 215 143 203.807 143 190C143 176.193 154.193 165 168 165ZM318 190C318 203.807 329.193 215 343 215C356.807 215 368 203.807 368 190C368 176.193 356.807 165 343 165C329.193 165 318 176.193 318 190Z" fill="#0D9E91"/>
</svg>
