<svg width="512" height="512" viewBox="0 0 512 512" fill="none" xmlns="http://www.w3.org/2000/svg">
<path d="M152 220C152 119.74 225.776 36.716 322 22.24C312.214 20.768 302.197 20 292 20C181.543 20 92 109.543 92 220C92 330.457 181.543 420 292 420C302.197 420 312.214 419.232 322 417.76C225.776 403.284 152 320.26 152 220Z" fill="#CEE1F2"/>
<path d="M292 0C170.412 0 72 98.396 72 220C72 341.588 170.396 440 292 440C413.59 440 512 341.602 512 220C512 98.413 413.605 0 292 0ZM292 400C192.748 400 112 319.252 112 220C112 120.748 192.748 40 292 40C391.252 40 472 120.748 472 220C472 319.252 391.252 400 292 400Z" fill="#064D47"/>
<path d="M34.1423 506.142L108.244 432.04C116.055 424.229 116.055 411.566 108.244 403.756C100.433 395.946 87.7703 395.945 79.9603 403.756L5.85825 477.858C-1.95275 485.669 -1.95275 498.332 5.85825 506.142C13.6682 513.952 26.3313 513.953 34.1423 506.142V506.142Z" fill="#064D47"/>
<path d="M292 360C303.046 360 312 351.046 312 340V316.56C335.278 308.304 352 286.073 352 260C352 226.916 325.084 200 292 200C280.972 200 272 191.028 272 180C272 168.972 280.972 160 292 160C298.351 160 304.187 162.919 308.011 168.01C314.645 176.842 327.184 178.622 336.014 171.988C344.845 165.354 346.626 152.816 339.992 143.985C332.842 134.467 323.015 127.392 312.001 123.477V100C312.001 88.954 303.047 80 292.001 80C280.955 80 272.001 88.954 272.001 100V123.44C248.723 131.696 232.001 153.927 232.001 180C232.001 213.084 258.917 240 292.001 240C303.029 240 312.001 248.972 312.001 260C312.001 271.028 303.029 280 292.001 280C285.65 280 279.814 277.081 275.991 271.99C269.356 263.157 256.819 261.377 247.988 268.011C239.156 274.645 237.375 287.182 244.009 296.014C251.159 305.532 260.987 312.608 272.001 316.523V340C272 351.046 280.954 360 292 360V360Z" fill="#0D9E91"/>
</g>
<defs>
<clipPath id="clip0_2279_2166">
<rect width="512" height="512" fill="white"/>
</clipPath>
</defs>
</svg>
