<svg width="60" height="60" viewBox="0 0 60 60" fill="none" xmlns="http://www.w3.org/2000/svg">
<path d="M43.5938 31.8764C44.8882 31.8764 45.9375 30.8271 45.9375 29.5326C45.9375 28.2381 44.8882 27.1887 43.5938 27.1887C42.2993 27.1887 41.25 28.2381 41.25 29.5326C41.25 30.8271 42.2993 31.8764 43.5938 31.8764Z" fill="#0D9E91"/>
<path d="M15.3008 46.7325C11.5349 43.5736 9.375 39.013 9.375 34.2202C9.375 25.1734 16.7348 17.8132 25.7812 17.8132H23.4375H21.0938H18.75C9.70359 17.8132 2.34375 25.1734 2.34375 34.2202C2.34375 39.013 4.50363 43.5736 8.26957 46.7325C9.20086 47.5136 9.38039 48.8772 8.68324 49.8727L7.45523 51.6263C6.71414 52.6848 6.97242 54.1491 8.03109 54.8904C8.52949 55.2393 9.11719 55.3658 9.67723 55.2918C10.2853 55.2115 10.9005 55.2495 11.5116 55.3033C12.3189 55.3743 13.1414 55.0252 13.6389 54.3149L14.1472 53.5888C13.97 52.9395 14.0713 52.2192 14.4865 51.6262L15.7145 49.8726C16.4118 48.8772 16.2321 47.5136 15.3008 46.7325Z" fill="#CEE1F2"/>
<path d="M54.0681 27.2746C53.285 25.0326 52.132 22.9589 50.625 21.0844V14.8533C50.625 12.2552 49.2021 9.87972 46.9116 8.65377C44.6211 7.42781 41.8553 7.56141 39.6935 9.00253L33.5087 13.1258H21.0938C9.46266 13.1258 0 22.5889 0 34.2205C0 39.6915 2.16973 44.9178 6.01664 48.856L5.95934 48.9378C3.73043 52.1211 4.50258 56.5015 7.68609 58.7307C10.8544 60.9492 15.2496 60.1874 17.4785 57.0041L18.7656 55.1659C19.5809 55.266 20.351 55.3152 21.0935 55.3152H34.2185C34.961 55.3152 35.7312 55.2661 36.5464 55.1659L37.8335 57.0041C40.0573 60.18 44.4502 60.9545 47.6259 58.7307C50.8018 56.5067 51.5764 52.1137 49.3527 48.9377L49.295 48.8553C51.4391 46.6568 53.0595 44.0468 54.067 41.1663C57.4245 40.6372 60 37.7239 60 34.2203C60 30.717 57.4248 27.8039 54.0681 27.2746ZM52.9688 36.5641H52.3058C51.2378 36.5641 50.3047 37.2863 50.037 38.3203C49.1851 41.6089 47.3393 44.5179 44.6991 46.7325C43.7678 47.5137 43.5882 48.8771 44.2854 49.8728L45.5133 51.6263C46.256 52.6873 45.9988 54.1474 44.9375 54.8906C43.879 55.6319 42.4147 55.3738 41.6734 54.3151L39.5502 51.2828C39.0239 50.5313 38.1074 50.1557 37.2054 50.3222C36.0766 50.5303 35.1275 50.6273 34.2186 50.6273H21.0938C20.1848 50.6273 19.2357 50.5303 18.107 50.3222C17.2048 50.1558 16.2882 50.5312 15.7622 51.2828L13.639 54.3151C12.8977 55.3737 11.4335 55.6316 10.3748 54.8906C9.31617 54.1493 9.05789 52.6849 9.79898 51.6264L11.027 49.8729C11.7243 48.8772 11.5446 47.5138 10.6133 46.7327C6.84738 43.5737 4.6875 39.0131 4.6875 34.2203C4.6875 25.1735 12.0473 17.8133 21.0938 17.8133H34.2185C34.6812 17.8133 35.1336 17.6763 35.5186 17.4197L42.2937 12.9028C43.3479 12.1999 44.3275 12.5873 44.6996 12.7866C45.0718 12.9858 45.9375 13.5858 45.9375 14.8531V21.9362C45.9375 22.5035 46.1433 23.0516 46.5166 23.4788C48.2142 25.4208 49.3986 27.6553 50.037 30.1201C50.3047 31.1541 51.2378 31.8763 52.3058 31.8763H52.9688C54.2611 31.8763 55.3125 32.9278 55.3125 34.2202C55.3125 35.5126 54.2611 36.5641 52.9688 36.5641Z" fill="#064D47"/>
<path d="M11.7188 4.68772C14.231 4.68772 16.5698 6.04329 17.8223 8.22542C18.4668 9.34813 19.8993 9.7358 21.0218 9.09124C22.1445 8.4468 22.532 7.01423 21.8876 5.89164C19.8016 2.2576 15.9052 0 11.7188 0C5.25703 0 0 5.25728 0 11.7193C0 12.6691 0.114375 13.615 0.339844 14.5305C0.649805 15.7888 1.92047 16.5549 3.17625 16.2456C4.43309 15.9359 5.2009 14.666 4.89129 13.4091C4.75606 12.8603 4.6875 12.2917 4.6875 11.7193C4.6875 7.84208 7.84172 4.68772 11.7188 4.68772Z" fill="#064D47"/>
</svg>
