<svg width="40" height="40" viewBox="0 0 40 40" fill="none" xmlns="http://www.w3.org/2000/svg">
<path d="M15 15.625C15 8.65719 20.068 2.87398 26.7188 1.75805C25.9564 1.63008 25.1737 1.5625 24.375 1.5625C16.6085 1.5625 10.3125 7.85852 10.3125 15.625C10.3125 23.3915 16.6085 29.6875 24.375 29.6875C25.1737 29.6875 25.9564 29.6199 26.7188 29.492C20.068 28.376 15 22.5928 15 15.625Z" fill="#CEE1F2"/>
<path d="M24.375 0C15.7594 0 8.75 7.00938 8.75 15.625C8.75 24.2406 15.7594 31.25 24.375 31.25C32.9906 31.25 40 24.2406 40 15.625C40 7.00938 32.9906 0 24.375 0ZM24.375 28.125C17.4825 28.125 11.875 22.5175 11.875 15.625C11.875 8.7325 17.4825 3.125 24.375 3.125C31.2675 3.125 36.875 8.7325 36.875 15.625C36.875 22.5175 31.2675 28.125 24.375 28.125Z" fill="#064D47"/>
<path d="M8.91393 28.8766L0.457676 37.3328C-0.152559 37.9431 -0.152559 38.9324 0.457676 39.5425C1.06783 40.1527 2.05713 40.1528 2.66736 39.5425L11.1236 31.0863C11.7338 30.476 11.7338 29.4867 11.1236 28.8766C10.5134 28.2664 9.52416 28.2664 8.91393 28.8766Z" fill="#064D47"/>
<path d="M24.375 25C25.2379 25 25.9375 24.3004 25.9375 23.4375C25.9375 22.5746 25.2379 21.875 24.375 21.875C23.5121 21.875 22.8125 22.5746 22.8125 23.4375C22.8125 24.3004 23.5121 25 24.375 25Z" fill="#0D9E91"/>
<path d="M24.375 6.25C21.7903 6.25 19.6875 8.35281 19.6875 10.9375C19.6875 11.8005 20.387 12.5 21.25 12.5C22.113 12.5 22.8125 11.8005 22.8125 10.9375C22.8125 10.0759 23.5134 9.375 24.375 9.375C25.2366 9.375 25.9375 10.0759 25.9375 10.9375C25.9375 11.5199 25.6168 12.0505 25.1005 12.3221C23.6892 13.0647 22.8125 14.6023 22.8125 16.3349V17.1875C22.8125 18.0505 23.512 18.75 24.375 18.75C25.238 18.75 25.9375 18.0505 25.9375 17.1875V16.3349C25.9375 15.7834 26.1859 15.2821 26.5556 15.0877C28.102 14.2741 29.0625 12.6838 29.0625 10.9375C29.0625 8.35281 26.9597 6.25 24.375 6.25Z" fill="#0D9E91"/>
</svg>
