<svg width="24" height="24" viewBox="0 0 24 24" fill="none" xmlns="http://www.w3.org/2000/svg">
<g opacity="0.85">
<path d="M8.22203 4.46011L7.28453 0.710109C7.18019 0.292781 6.80519 0 6.37502 0H4.50002C4.06985 0 3.69485 0.292781 3.5905 0.710109L2.653 4.46011C2.58297 4.74019 2.64592 5.03691 2.82358 5.26444C3.00124 5.49202 3.27382 5.625 3.56252 5.625H4.50002V10.3125C4.50002 10.8303 4.91974 11.25 5.43752 11.25C5.9553 11.25 6.37502 10.8303 6.37502 10.3125V5.625H7.31252C7.60122 5.625 7.8738 5.49202 8.05146 5.26444C8.22911 5.03691 8.29202 4.74019 8.22203 4.46011ZM5.23202 1.875H5.64306L6.11181 3.75H4.76327L5.23202 1.875Z" fill="#0D9E91"/>
<path d="M9.1875 13.125H1.6875C1.16972 13.125 0.75 13.5447 0.75 14.0625C0.75 14.5803 1.16972 15 1.6875 15H2.625V21.1875C2.625 22.7383 3.88669 24 5.4375 24C6.98831 24 8.25 22.7383 8.25 21.1875V15H9.1875C9.70528 15 10.125 14.5803 10.125 14.0625C10.125 13.5447 9.70528 13.125 9.1875 13.125ZM6.375 21.1875C6.375 21.7044 5.95444 22.125 5.4375 22.125C4.92056 22.125 4.5 21.7044 4.5 21.1875V15H6.375V21.1875Z" fill="white"/>
<path d="M18.8765 0.398407C18.5895 0.296361 18.2708 0.340142 18.0219 0.515829C17.773 0.69147 17.625 0.977126 17.625 1.28177V4.68728C17.625 5.20422 17.2044 5.62478 16.6875 5.62478C16.1706 5.62478 15.75 5.20422 15.75 4.68728V1.28177C15.75 0.977126 15.602 0.691517 15.3531 0.515829C15.1042 0.340189 14.7855 0.296407 14.4985 0.398407C11.8826 1.32831 10.125 3.80542 10.125 6.56228C10.125 7.73097 10.4384 8.8772 11.0311 9.8771C11.6036 10.8426 12.4224 11.652 13.3992 12.2177C13.6972 12.3902 13.875 12.6908 13.875 13.0218V21.1873C13.875 22.7381 15.1367 23.9998 16.6875 23.9998C18.2383 23.9998 19.5 22.7381 19.5 21.1873V13.0218C19.5 12.6908 19.6778 12.3902 19.9758 12.2177C20.9525 11.652 21.7714 10.8427 22.3439 9.8771C22.9366 8.8772 23.25 7.73097 23.25 6.56228C23.25 3.80542 21.4924 1.32831 18.8765 0.398407ZM19.0361 10.5951C18.1658 11.0992 17.625 12.029 17.625 13.0218V21.1873C17.625 21.7042 17.2044 22.1248 16.6875 22.1248C16.1706 22.1248 15.75 21.7042 15.75 21.1873V13.0218C15.75 12.029 15.2092 11.0992 14.3389 10.5951C12.8743 9.74697 12 8.23938 12 6.56228C12 5.07714 12.7174 3.70525 13.875 2.83666V4.68728C13.875 6.2381 15.1367 7.49978 16.6875 7.49978C18.2383 7.49978 19.5 6.2381 19.5 4.68728V2.83666C20.6576 3.7053 21.375 5.07719 21.375 6.56228C21.375 8.23938 20.5007 9.74697 19.0361 10.5951Z" fill="white"/>
</g>
</svg>
