<svg width="512" height="512" viewBox="0 0 512 512" fill="none" xmlns="http://www.w3.org/2000/svg">
<path d="M206.05 365.976H146.063C118.436 365.976 94.3818 347.109 87.8023 320.277L21.1716 69.5671C14.9929 44.3706 34.0688 20.0508 60.0122 20.0508H119.999C94.0559 20.0508 74.98 44.3706 81.1587 69.5671L147.789 320.277C154.369 347.109 178.424 365.976 206.05 365.976V365.976ZM349.795 320.277L283.164 69.5671C276.986 44.3706 296.062 20.0508 322.005 20.0508H262.018C236.074 20.0508 216.998 44.3706 223.177 69.5671L289.808 320.277C296.387 347.109 320.442 365.976 348.068 365.976H408.055C380.429 365.976 356.376 347.109 349.795 320.277Z" fill="#CEE1F2"/>
<path d="M247.002 491.949C247.002 502.993 238.05 511.945 227.006 511.945H102.033C75.5308 510.962 75.5508 472.928 102.033 471.954H145V445.959C145.983 419.457 184.017 419.477 184.991 445.959V471.954H227.006C238.05 471.954 247.002 480.906 247.002 491.949V491.949ZM499.188 363.008C487.74 377.602 470.537 385.972 451.989 385.972H348.068C327.845 385.972 309.131 378.45 294.88 365.766C283.494 378.65 267.327 385.972 249.981 385.972H146.063C109.191 385.972 77.2964 361.007 68.4303 325.235L1.84662 74.7031C1.81363 74.5792 1.78263 74.4542 1.75164 74.3292C-2.66641 56.3151 1.36572 37.6131 12.8123 23.0192C24.2598 8.42538 41.4631 0.0551758 60.0121 0.0551758H163.932C184.154 0.0551758 202.869 7.57756 217.119 20.2618C228.506 7.3776 244.672 0.0551758 262.018 0.0551758H365.937C402.809 0.0551758 434.704 25.0208 443.57 60.7921C443.57 60.7921 510.218 311.573 510.248 311.698C514.666 329.712 510.634 348.413 499.188 363.008ZM269.44 321.379C269.44 321.379 202.802 70.638 202.771 70.513C198.372 52.5749 182.401 40.0466 163.931 40.0466H60.0121C53.8295 40.0466 48.0947 42.837 44.2795 47.7009C40.4963 52.5239 39.1426 58.6926 40.5543 64.6483C40.5543 64.6483 107.192 315.389 107.223 315.514C111.622 333.453 127.594 345.981 146.064 345.981H249.983C256.166 345.981 261.901 343.19 265.716 338.326C269.498 333.504 270.852 327.335 269.44 321.379ZM471.446 321.379C471.446 321.379 404.808 70.638 404.777 70.513C400.378 52.5749 384.406 40.0466 365.936 40.0466H262.018C255.835 40.0466 250.1 42.837 246.285 47.7009C242.605 52.3919 241.232 58.3557 242.459 64.1604C242.459 64.1604 309.066 314.852 309.229 315.515C313.628 333.454 329.599 345.982 348.069 345.982H451.989C458.172 345.982 463.906 343.191 467.722 338.327C471.504 333.504 472.857 327.335 471.446 321.379V321.379ZM429.963 471.954H386.996V445.959C386.013 419.457 347.978 419.477 347.004 445.959V471.954H304.989C278.487 472.937 278.507 510.971 304.989 511.945H429.963C456.465 510.962 456.445 472.928 429.963 471.954Z" fill="#064D47"/>
<path d="M354.979 130.027H315.046C288.544 129.044 288.564 91.0094 315.046 90.0356H354.979C381.481 91.0184 381.461 129.053 354.979 130.027V130.027ZM419.906 279.995C419.906 268.951 410.954 259.999 399.91 259.999H359.978C333.475 260.982 333.495 299.017 359.978 299.991H399.91C410.954 299.991 419.906 291.038 419.906 279.995ZM396.911 196.013C396.911 184.969 387.959 176.017 376.915 176.017H336.983C310.48 177 310.5 215.035 336.983 216.009H376.915C387.959 216.009 396.911 207.056 396.911 196.013ZM173.018 110.031C173.018 98.9877 164.066 90.0356 153.022 90.0356H113.09C86.5874 91.0184 86.6074 129.053 113.09 130.027H153.022C164.066 130.027 173.018 121.075 173.018 110.031ZM217.949 279.995C217.949 268.951 208.997 259.999 197.953 259.999H158.021C131.519 260.982 131.539 299.017 158.021 299.991H197.953C208.997 299.991 217.949 291.038 217.949 279.995ZM194.954 196.013C194.954 184.969 186.002 176.017 174.958 176.017H135.026C108.524 177 108.544 215.035 135.026 216.009H174.958C186.002 216.009 194.954 207.056 194.954 196.013Z" fill="#0D9E91"/>
</g>
<defs>
<clipPath id="clip0_2712_2416">
<rect width="512" height="512" fill="white"/>
</clipPath>
</defs>
</svg>
