<svg width="24" height="24" viewBox="0 0 24 24" fill="none" xmlns="http://www.w3.org/2000/svg">
<path d="M3.75028 14.8122C3.75028 14.5224 3.67477 15.1615 5.65088 3.25197C5.79887 2.36422 6.57051 1.6875 7.50021 1.6875H4.68776C3.75806 1.6875 2.98642 2.36422 2.83844 3.25197C0.865788 15.1408 0.937834 14.5221 0.937834 14.8122C0.937834 15.8478 1.7773 16.6872 2.8128 16.6872H5.62524C4.58975 16.6872 3.75028 15.8478 3.75028 14.8122Z" fill="#CEE1F2"/>
<path d="M22.0866 3.09783C21.8598 1.7374 20.6932 0.75 19.3126 0.75H4.68785C3.30722 0.75 2.14057 1.7374 1.9138 3.09783C-0.0766169 15.1223 0.000397323 14.3628 0.000397323 14.8122C0.000397323 16.363 1.26206 17.6247 2.81284 17.6247H11.0627V21.3746H8.25023C7.73246 21.3746 7.31275 21.7943 7.31275 22.3121C7.31275 22.8298 7.73246 23.2496 8.25023 23.2496H15.7501C16.2679 23.2496 16.6876 22.8298 16.6876 22.3121C16.6876 21.7943 16.2679 21.3746 15.7501 21.3746H12.9376V17.6247H21.1875C22.7383 17.6247 23.9999 16.363 23.9999 14.8122C23.9999 14.3879 24.0453 14.931 22.0866 3.09783ZM21.1875 15.7497H2.81284C2.29591 15.7497 1.87536 15.3291 1.87536 14.8122C1.87536 14.6624 1.77041 15.391 3.76321 3.40607C3.83863 2.95346 4.2275 2.62496 4.6878 2.62496H19.3125C19.7728 2.62496 20.1617 2.95346 20.2371 3.40607C22.2292 15.3867 22.125 14.6623 22.125 14.8122C22.125 15.3291 21.7044 15.7497 21.1875 15.7497Z" fill="#064D47"/>
<path d="M11.9992 13.875C11.8583 13.875 11.7153 13.8431 11.5806 13.7758C11.1176 13.5442 10.9298 12.9811 11.1614 12.518L12.358 10.1248H10.125C9.80004 10.1248 9.49831 9.95659 9.3275 9.68022C9.15669 9.40385 9.14117 9.05872 9.28648 8.7681L11.1614 5.01818C11.393 4.55511 11.9561 4.36738 12.4192 4.59894C12.8823 4.83049 13.07 5.39359 12.8385 5.85671L11.6419 8.24991H13.8749C14.1998 8.24991 14.5016 8.41814 14.6724 8.69451C14.8432 8.97088 14.8587 9.31601 14.7134 9.60663L12.8384 13.3566C12.6742 13.6851 12.3431 13.8749 11.9992 13.875Z" fill="#0D9E91"/>
</svg>
