<svg width="100%" height="100%" viewBox="0 0 40 40" fill="none" xmlns="http://www.w3.org/2000/svg">
<g clip-path="url(#clip0_1479_2541)">
<path d="M6.25047 24.6874C6.25047 24.2044 6.12461 25.2695 9.41814 5.42031C9.66478 3.94073 10.9508 2.81287 12.5003 2.81287H7.81294C6.26344 2.81287 4.97737 3.94073 4.73073 5.42031C1.44298 25.2351 1.56306 24.2039 1.56306 24.6874C1.56306 26.4133 2.96217 27.8124 4.688 27.8124H9.37541C7.64958 27.8124 6.25047 26.4133 6.25047 24.6874Z" fill="#CEE1F2"/>
<path d="M36.811 5.16341C36.4331 2.89604 34.4887 1.25037 32.1876 1.25037H7.81309C5.51204 1.25037 3.56762 2.89604 3.18966 5.16341C-0.127695 25.2042 0.000662205 23.9384 0.000662205 24.6874C0.000662205 27.272 2.10343 29.3748 4.68807 29.3748H18.4378V35.6247H13.7504C12.8874 35.6247 12.1879 36.3242 12.1879 37.1872C12.1879 38.0501 12.8874 38.7496 13.7504 38.7496H26.2501C27.1131 38.7496 27.8126 38.0501 27.8126 37.1872C27.8126 36.3242 27.1131 35.6247 26.2501 35.6247H21.5627V29.3748H35.3125C37.8971 29.3748 39.9999 27.272 39.9999 24.6874C39.9999 23.9802 40.0756 24.8854 36.811 5.16341ZM35.3125 26.2499H4.68807C3.82652 26.2499 3.1256 25.5489 3.1256 24.6874C3.1256 24.4377 2.95068 25.6521 6.27202 5.67715C6.39772 4.92279 7.04584 4.3753 7.81301 4.3753H32.1875C32.9547 4.3753 33.6028 4.92279 33.7285 5.67715C37.0487 25.6449 36.8749 24.4375 36.8749 24.6874C36.8749 25.5489 36.174 26.2499 35.3125 26.2499Z" fill="#064D47"/>
<path d="M19.9986 23.1254C19.7638 23.1254 19.5254 23.0723 19.3011 22.9601C18.5293 22.5741 18.2164 21.6356 18.6023 20.8638L20.5967 16.8751H16.8749C16.3334 16.8751 15.8305 16.5947 15.5458 16.1341C15.2612 15.6735 15.2353 15.0983 15.4775 14.6139L18.6024 8.36404C18.9883 7.59225 19.9268 7.27937 20.6987 7.6653C21.4705 8.05123 21.7834 8.98973 21.3974 9.76159L19.4031 13.7503H23.1248C23.6664 13.7503 24.1693 14.0306 24.4539 14.4913C24.7386 14.9519 24.7645 15.5271 24.5223 16.0115L21.3974 22.2613C21.1236 22.8088 20.5718 23.1253 19.9986 23.1254Z" fill="#0D9E91"/>
</g>
</svg>
