<svg width="500" height="500" viewBox="0 0 500 500" fill="none" xmlns="http://www.w3.org/2000/svg">
<g clip-path="url(#clip0_3068_9785)">
<path d="M421.697 249.814C421.697 260.595 412.958 269.334 402.177 269.334H185.057C187.698 318.733 199.709 362.499 209.015 392.363C212.222 402.656 206.478 413.6 196.185 416.808C186.171 420.011 174.921 414.365 171.741 403.978C161.655 371.607 148.603 323.889 145.966 269.334H97.6555C71.7829 268.375 71.8024 231.244 97.6555 230.293H145.969C148.623 175.745 161.754 128.007 171.902 95.6207C175.126 85.3314 186.08 79.607 196.366 82.8299C206.655 86.0537 212.381 97.0067 209.157 107.294C199.799 137.162 187.719 180.928 185.061 230.293H314.82C312.932 191.013 305.363 150.575 291.802 107.294C284.978 82.335 320.412 71.2239 329.057 95.6207C343.843 142.811 352.02 187.071 353.913 230.293H402.176C412.957 230.293 421.697 239.033 421.697 249.814V249.814ZM426.596 73.133C270.324 -83.6466 -0.330069 28.4992 0.0535107 249.816C-2.97023 388.122 122.611 508.381 260.652 499.45C271.424 498.993 279.786 489.892 279.33 479.12C278.873 468.349 269.773 460.006 259.001 460.443C-26.4564 460.695 -35.2983 51.0318 249.918 38.9905C366.163 38.9905 460.739 133.566 460.739 249.813C460.739 260.594 469.478 269.334 480.259 269.334C491.04 269.334 499.78 260.594 499.78 249.813C499.78 183.073 473.789 120.326 426.596 73.133V73.133Z" fill="#0D9E91"/>
<path d="M499.647 338.646C499.11 327.022 492.181 316.658 481.566 311.598C470.7 306.421 457.963 307.618 448.325 314.721C437.314 322.836 427.678 328.966 419.177 334.372C381.57 356.325 366.238 377.682 362.559 425.215C329.338 417.644 302.407 393.36 300.932 353.546C303.669 355.28 306.34 356.908 308.864 358.447C311.387 359.985 313.772 361.437 315.78 362.734C324.841 368.577 336.922 365.97 342.765 356.91C348.608 347.851 346.001 335.769 336.941 329.925C334.513 328.36 331.923 326.781 329.181 325.109C323.788 321.822 318.21 318.423 313.19 314.723C303.553 307.619 290.816 306.421 279.948 311.599C269.333 316.659 262.404 327.023 261.867 338.647C256.971 408.517 303.49 455.156 361.2 464.89V480.197C362.159 506.069 399.29 506.05 400.241 480.197V464.904C458.032 455.174 504.537 408.524 499.647 338.646V338.646ZM441.214 402.223C429.307 414.691 413.94 421.154 401.761 424.49C404.535 379.428 429.22 376.644 460.559 353.931C459.291 373.874 452.809 390.078 441.214 402.223V402.223Z" fill="#0D9E91"/>
</g>
<defs>
<clipPath id="clip0_3068_9785">
<rect width="500" height="500" fill="white"/>
</clipPath>
</defs>
</svg>
