<svg width="512" height="512" viewBox="0 0 512 512" fill="none" xmlns="http://www.w3.org/2000/svg">
<path d="M119.432 216.569C114.313 216.569 109.195 214.616 105.29 210.711C97.4789 202.9 97.4789 190.237 105.29 182.427L218.427 69.2899C226.238 61.4789 238.901 61.4789 246.711 69.2899C254.521 77.1009 254.522 89.7639 246.711 97.5739L133.574 210.711C129.668 214.616 124.55 216.569 119.432 216.569V216.569Z" fill="#0D9E91"/>
<path d="M119.432 103.432C130.478 103.432 139.432 94.4778 139.432 83.4321C139.432 72.3864 130.478 63.4321 119.432 63.4321C108.386 63.4321 99.4321 72.3864 99.4321 83.4321C99.4321 94.4778 108.386 103.432 119.432 103.432Z" fill="#0D9E91"/>
<path d="M232.569 216.569C243.615 216.569 252.569 207.615 252.569 196.569C252.569 185.523 243.615 176.569 232.569 176.569C221.523 176.569 212.569 185.523 212.569 196.569C212.569 207.615 221.523 216.569 232.569 216.569Z" fill="#0D9E91"/>
<path d="M412 0H100C44.86 0 0 44.86 0 100V180C0 235.14 44.86 280 100 280H171.051L232.425 381.892L225.81 392.994C212.102 368.559 185.955 352 156 352C111.888 352 76 387.888 76 432C76 476.112 111.888 512 156 512C184.333 512 210.77 496.815 225.085 472.35C225.101 472.324 225.119 472.3 225.134 472.273L255.832 420.752L286.914 472.355C286.929 472.38 286.946 472.403 286.962 472.429C301.287 496.846 327.697 512 356 512C400.112 512 436 476.112 436 432C436 387.888 400.112 352 356 352C325.911 352 299.661 368.704 286.004 393.319L279.054 381.78L393.182 190.238C398.836 180.749 395.727 168.473 386.238 162.82C376.749 157.165 364.473 160.275 358.82 169.764L255.646 342.919L217.747 280H232.569C243.615 280 252.569 271.046 252.569 260C252.569 248.954 243.615 240 232.569 240H100C66.916 240 40 213.084 40 180V100C40 66.916 66.916 40 100 40H412C445.084 40 472 66.916 472 100V180C472 213.084 445.084 240 412 240C400.954 240 392 248.954 392 260C392 271.046 400.954 280 412 280C467.14 280 512 235.14 512 180V100C512 44.86 467.14 0 412 0ZM156 472C133.944 472 116 454.056 116 432C116 409.944 133.944 392 156 392C178.056 392 196 409.944 196 432C196 439.046 194.149 445.966 190.648 452.009C183.503 464.34 170.227 472 156 472ZM356 392C378.056 392 396 409.944 396 432C396 454.056 378.056 472 356 472C341.773 472 328.497 464.34 321.353 452.011C317.851 445.966 316 439.046 316 432C316 409.944 333.944 392 356 392Z" fill="#0D9E91"/>
</g>
<defs>
<clipPath id="clip0_2828_2314">
<rect width="512" height="512" fill="white"/>
</clipPath>
</defs>
</svg>
