<svg width="32" height="32" viewBox="0 0 32 32" fill="none" xmlns="http://www.w3.org/2000/svg">
<path d="M14.625 30.7802C13.5264 30.7868 12.9525 29.4276 13.7426 28.6448L16.0107 26.3845C16.4919 25.924 16.4934 25.0976 16.0141 24.6353L13.7514 22.4243C13.2577 21.9418 13.2485 21.1503 13.731 20.6566C14.2136 20.1628 15.0049 20.1537 15.4986 20.6362L17.7667 22.8525C17.7697 22.8555 17.7727 22.8584 17.7757 22.8614C19.2318 24.2543 19.2318 26.7623 17.7756 28.1551L15.5074 30.4156C15.2634 30.6587 14.9441 30.7802 14.625 30.7802ZM12.6875 26.6552H4.375C1.96262 26.6552 0 24.6926 0 22.2802V18.4677C0.0614375 16.811 2.43913 16.8122 2.5 18.4677V22.2802C2.5 23.3141 3.34113 24.1552 4.375 24.1552H12.6875C14.3442 24.2167 14.343 26.5943 12.6875 26.6552ZM30.75 14.8427C30.0596 14.8427 29.5 14.2831 29.5 13.5927V9.78021C29.5 8.74633 28.6589 7.90521 27.625 7.90521H19.3125C17.6558 7.84377 17.657 5.46608 19.3125 5.40521H27.625C30.0374 5.40521 32 7.36783 32 9.78021V13.5927C32 14.2831 31.4404 14.8427 30.75 14.8427ZM17.3749 11.7802C17.0598 11.7802 16.7446 11.6618 16.5014 11.4243L14.2333 9.20796C14.2303 9.20508 14.2273 9.20208 14.2243 9.19914C12.7682 7.80621 12.7682 5.29821 14.2244 3.90539L16.4926 1.64489C16.9816 1.15758 17.773 1.15889 18.2603 1.64789C18.7476 2.13689 18.7463 2.92833 18.2573 3.41564L15.9893 5.67602C15.5081 6.13646 15.5066 6.96283 15.9858 7.42514L18.2485 9.63621C18.7423 10.1187 18.7514 10.9101 18.2689 11.4039C18.0242 11.6544 17.6996 11.7802 17.3749 11.7802Z" fill="#064D47"/>
<path d="M4.20048 15.25C3.8975 15.25 3.59177 15.1573 3.32811 14.9647C2.66577 14.481 2.51992 13.5504 3.00236 12.8862L5.66241 9.22441H2.42125C1.86544 9.22441 1.3563 8.91294 1.10198 8.41737C0.847595 7.92186 0.890847 7.32533 1.21393 6.87186L5.66515 0.623172C6.14151 -0.0455116 7.06818 -0.20039 7.7349 0.277337C8.40169 0.754915 8.55615 1.68411 8.07979 2.35272L5.30446 6.24885H8.57877C9.13703 6.24885 9.64803 6.56307 9.90116 7.062C10.1544 7.56092 10.1067 8.16013 9.77808 8.61264L5.40105 14.6382C5.11068 15.0378 4.65866 15.25 4.20048 15.25Z" fill="#0D9E91"/>
<path d="M24.763 32C24.46 32 24.1543 31.9073 23.8906 31.7147C23.2283 31.231 23.0824 30.3004 23.5649 29.6362L26.2249 25.9744H22.9838C22.4279 25.9744 21.9188 25.6629 21.6645 25.1674C21.4101 24.6719 21.4533 24.0753 21.7764 23.6219L26.2277 17.3732C26.704 16.7045 27.6307 16.5496 28.2974 17.0273C28.9642 17.5049 29.1186 18.4341 28.6423 19.1027L25.867 22.9988H29.1413C29.6995 22.9988 30.2105 23.3131 30.4637 23.812C30.7169 24.3109 30.6692 24.9101 30.3406 25.3626L25.9635 31.3881C25.6732 31.7878 25.2212 32 24.763 32Z" fill="#0D9E91"/>
</svg>
