<svg width="60" height="60" viewBox="0 0 60 60" fill="none" xmlns="http://www.w3.org/2000/svg">
<path d="M18.1037 26.8346C22.4986 26.8346 26.7149 25.0524 29.7443 21.869C31.6051 19.9135 33.5847 17.5066 35.058 14.8827C36.285 12.6972 37.7685 8.04249 37.7685 8.04249C38.376 6.55483 39.3852 5.48619 40.6184 4.99358C40.0989 4.00661 39.2448 3.23818 38.0405 2.74651C35.284 1.62092 32.7815 2.94278 31.6558 5.6991C31.6558 5.6991 30.1723 10.3538 28.9452 12.5393C27.4721 15.1632 25.4924 17.5701 23.6316 19.5256C20.6022 22.7091 16.3857 24.4912 11.991 24.4912L11.8242 26.8347H18.1037V26.8346Z" fill="#CEE1F2"/>
<path d="M60 35.5687C60 33.373 58.9437 31.4197 57.3129 30.1888C59.9639 25.8032 56.6573 19.9922 51.5046 20.043L39.7337 20.0395C43.0811 12.7945 46.7148 4.16207 38.9268 0.576847C35.0479 -1.06338 31.0049 0.932592 29.4861 4.81297C29.4628 4.87004 27.8104 9.77337 26.9016 11.3919C25.7227 13.4917 24.0512 15.6846 21.9338 17.9098C19.371 20.6028 15.747 22.1474 11.991 22.1474H8.67188C3.89016 22.1474 0 26.0372 0 30.8184V41.4814C0.12375 44.5908 4.56481 44.5884 4.6875 41.4814V30.8184C4.6875 28.6216 6.47484 26.8345 8.67188 26.8345H11.9911C17.0245 26.8345 21.8863 24.7592 25.3297 21.1407C30.129 16.1786 32.1663 11.9924 33.8575 6.50921C34.1916 5.72917 34.685 5.15196 35.2528 4.87883C35.8045 4.61343 36.4445 4.62596 37.1546 4.91585C41.2591 6.36192 37.149 14.6813 33.8803 21.3337C33.096 22.8668 34.2543 24.7407 35.976 24.7252L51.504 24.7298C54.2254 24.8427 54.2232 28.7189 51.504 28.8309H45.7032C42.5936 28.9546 42.5959 33.3952 45.7032 33.5179H53.2618C55.9832 33.6309 55.9811 37.507 53.2618 37.6191H45.7032C42.5936 37.7428 42.5959 42.1834 45.7032 42.3061H52.9103C55.6316 42.419 55.6295 46.2952 52.9103 46.4072H45.7032C42.5936 46.531 42.5959 50.9716 45.7032 51.0942H49.7086C50.7674 51.1422 51.6798 52.1331 51.6798 53.262C51.6798 54.3926 50.7598 55.3126 49.6295 55.3126L26.0162 55.308H26.0157C22.9063 55.4317 22.9083 59.8719 26.0153 59.995L49.629 59.9996C54.4777 60.0538 57.8051 54.8325 55.7681 50.4563C59.6351 48.709 60.9157 43.4993 58.1809 40.1662C59.308 38.9615 60 37.3448 60 35.5687Z" fill="#064D47"/>
<path d="M11.3641 59.9952C9.2416 59.9952 7.2473 59.1627 5.74835 57.651L0.674012 52.5001C-0.234308 51.578 -0.223176 50.0942 0.698973 49.186C1.62112 48.2778 3.10507 48.2888 4.01351 49.211L9.08257 54.3565C9.68925 54.9684 10.5014 55.3083 11.3642 55.3083C12.2098 55.3083 13.0071 54.9816 13.6146 54.3875L28.2541 38.0433C29.1178 37.0792 30.5994 36.9976 31.5637 37.8611C32.5279 38.7246 32.6095 40.2063 31.7459 41.1704L17.0614 57.5645C17.0349 57.594 17.0077 57.6229 16.98 57.651C15.481 59.1627 13.4866 59.9952 11.3641 59.9952Z" fill="#0D9E91"/>
</svg>
