<svg width="100%" height="100%" viewBox="0 0 44 44" fill="none" xmlns="http://www.w3.org/2000/svg">
<g clip-path="url(#clip0_1479_2326)">
<path d="M20.1094 42.3224C18.5989 42.3315 17.8097 40.4626 18.8961 39.3863L22.0147 36.2783C22.6763 35.6452 22.6785 34.5089 22.0194 33.8732L18.9082 30.833C18.2293 30.1696 18.2167 29.0813 18.8801 28.4025C19.5436 27.7235 20.6318 27.711 21.3106 28.3744L24.4292 31.4219C24.4333 31.4259 24.4374 31.4299 24.4416 31.4341C26.4437 33.3493 26.4437 36.7978 24.4415 38.713L21.3227 41.8212C20.9872 42.1554 20.5482 42.3224 20.1094 42.3224ZM17.4453 36.6505H6.01562C2.69861 36.6505 0 33.9519 0 30.6349V25.3927C0.0844766 23.1147 3.3538 23.1164 3.4375 25.3927V30.6349C3.4375 32.0565 4.59405 33.213 6.01562 33.213H17.4453C19.7233 33.2976 19.7216 36.5668 17.4453 36.6505ZM42.2812 20.4084C41.332 20.4084 40.5625 19.6389 40.5625 18.6896V13.4474C40.5625 12.0258 39.406 10.8693 37.9844 10.8693H26.5547C24.2767 10.7848 24.2784 7.51549 26.5547 7.43179H37.9844C41.3014 7.43179 44 10.1304 44 13.4474V18.6896C44 19.6389 43.2305 20.4084 42.2812 20.4084ZM23.8905 16.1974C23.4572 16.1974 23.0238 16.0347 22.6894 15.708L19.5708 12.6606C19.5667 12.6566 19.5626 12.6525 19.5584 12.6485C17.5563 10.7332 17.5563 7.28467 19.5585 5.36955L22.6773 2.26136C23.3496 1.59131 24.4379 1.59311 25.1079 2.26549C25.778 2.93786 25.7761 4.02609 25.1038 4.69614L21.9852 7.80416C21.3236 8.43726 21.3215 9.57353 21.9805 10.2092L25.0917 13.2494C25.7706 13.9129 25.7832 15.0011 25.1198 15.68C24.7833 16.0244 24.337 16.1974 23.8905 16.1974Z" fill="#064D47"/>
<path d="M5.77566 20.9688C5.35906 20.9688 4.93869 20.8413 4.57616 20.5765C3.66544 19.9113 3.46489 18.6317 4.12824 17.7185L7.78581 12.6836H3.32922C2.56498 12.6836 1.86491 12.2553 1.51523 11.5739C1.16544 10.8926 1.22491 10.0723 1.66916 9.4488L7.78959 0.856861C8.44458 -0.0625784 9.71874 -0.275536 10.6355 0.381338C11.5523 1.03801 11.7647 2.31565 11.1097 3.23499L7.29363 8.59216H11.7958C12.5634 8.59216 13.266 9.02422 13.6141 9.71024C13.9622 10.3963 13.8968 11.2202 13.4449 11.8424L7.42644 20.1275C7.02718 20.677 6.40565 20.9688 5.77566 20.9688Z" fill="#0D9E91"/>
<path d="M34.0491 44C33.6325 44 33.2121 43.8725 32.8496 43.6077C31.9389 42.9426 31.7383 41.663 32.4017 40.7498L36.0592 35.7148H31.6027C30.8384 35.7148 30.1383 35.2865 29.7887 34.6051C29.4389 33.9238 29.4984 33.1036 29.9426 32.48L36.063 23.8881C36.718 22.9687 37.9922 22.7557 38.9089 23.4126C39.8258 24.0693 40.0381 25.3469 39.3831 26.2662L35.5671 31.6234H40.0693C40.8369 31.6234 41.5395 32.0555 41.8875 32.7415C42.2357 33.4275 42.1702 34.2514 41.7183 34.8736L35.6999 43.1587C35.3006 43.7083 34.6791 44 34.0491 44Z" fill="#0D9E91"/>
</g>
</svg>
