<svg width="100%" height="100%" viewBox="0 0 40 41" fill="none" xmlns="http://www.w3.org/2000/svg">
<path d="M8.69368 8.05663C8.69368 8.14772 8.69603 8.23818 8.69978 8.32832C5.6045 8.43785 3.12877 10.9811 3.12877 14.1031C3.12877 15.1139 3.38914 16.0635 3.84519 16.89C2.50125 17.5017 1.56641 18.8552 1.56641 20.4281C1.56641 21.3153 1.86427 22.1326 2.3647 22.7868C1.85755 23.6463 1.56648 24.6485 1.56648 25.7188C1.56648 28.5948 3.66755 30.9797 6.41833 31.4234C6.38537 31.6889 6.37435 31.9612 6.38802 32.2387C6.51153 34.7489 8.64095 36.7345 11.1538 36.6873C11.7205 36.6767 12.2624 36.5652 12.7627 36.3704C13.1915 37.1896 13.9042 37.8366 14.7701 38.1808L14.7685 36.6571C14.0127 36.1666 13.5968 32.2044 11.0753 31.9974C11.0737 31.996 11.0722 31.9946 11.0707 31.9932C11.3772 29.4931 9.65235 27.1972 7.16475 26.7961C6.72307 26.7249 6.25366 26.3231 6.25366 25.7188C6.25366 25.5201 6.3035 25.335 6.40161 25.1687C7.21639 23.7879 7.25935 22.108 6.56558 20.7071C7.37005 20.1338 7.9796 19.3157 8.29497 18.3634C8.7054 17.1237 8.5801 15.7691 7.94929 14.6258C7.86086 14.4656 7.8161 14.2898 7.8161 14.1032C7.8161 13.5125 8.27716 13.0334 8.86578 13.0126C10.1123 12.9685 11.2899 12.4294 12.1378 11.5145C12.9857 10.5997 13.3626 9.39401 13.3626 8.066C13.3626 7.12858 13.5969 3.06643 16.0186 3.06643V1.6389C15.7404 1.60172 15.4568 1.58203 15.1685 1.58203C11.5925 1.58211 8.69368 4.48084 8.69368 8.05663Z" fill="#CEE1F2"/>
<path d="M24.8358 0.01981C21.1713 -0.0137027 18.4572 2.9794 18.4394 6.43746V34.6385C18.4394 35.3213 18.1583 35.9475 17.6683 36.3565C16.6407 37.2634 14.8315 36.9951 14.1462 35.6459C13.777 34.9406 12.9367 34.6256 12.195 34.9145C11.8538 35.0474 11.4357 35.1188 11.066 35.1258C9.42177 35.1257 8.02877 33.8079 7.94784 32.162C7.93886 31.9803 7.94573 31.7965 7.96815 31.6159C8.07174 30.7816 7.49647 30.0149 6.66647 29.8811C3.7714 29.4624 2.19951 26.074 3.70977 23.5808C4.03318 23.0327 3.99177 22.3431 3.60509 21.8376C2.6954 20.69 3.1513 18.8979 4.49189 18.3121C5.30721 17.9587 5.65593 16.9054 5.21261 16.1353C3.69407 13.4272 5.63898 9.96489 8.75449 9.88974C9.17024 9.87505 9.56294 9.69515 9.84565 9.38994C10.1283 9.08473 10.2776 8.6793 10.2603 8.26371C10.2603 5.37794 12.4591 3.14454 15.1678 3.14454C16.0307 3.14454 16.7301 2.44507 16.7301 1.58218C16.7301 0.719281 16.0307 0.01981 15.1678 0.01981C11.1081 0.01981 7.74176 3.04557 7.20533 6.96023C3.11841 7.88976 0.604255 12.2995 1.90164 16.2972C0.048365 17.8334 -0.551896 20.7138 0.578554 22.8682C-1.06865 26.6764 0.939773 31.2529 4.84959 32.6238C5.09941 35.7622 8.03182 38.371 11.1823 38.2494C11.4946 38.2435 11.804 38.2147 12.1087 38.1632C13.9433 40.3471 17.4932 40.6444 19.6706 38.7554C20.8738 37.7509 21.5639 36.2504 21.5639 34.6385V6.43746C21.5277 4.65324 23.0129 3.10907 24.8357 3.14454C27.5544 3.14454 29.7663 5.3481 29.7663 8.05669C29.7663 8.91951 30.4658 9.61906 31.3287 9.61906C32.1916 9.61906 32.8911 8.91951 32.8911 8.05669C32.8912 3.62512 29.2776 0.01981 24.8358 0.01981Z" fill="#064D47"/>
<path d="M38.4382 17.5195H36.7977V13.6913C36.7977 12.8284 36.0982 12.1289 35.2353 12.1289C34.3724 12.1289 33.673 12.8284 33.673 13.6913V17.5195H30.6264V13.6913C30.6264 12.8284 29.9269 12.1289 29.064 12.1289C28.2011 12.1289 27.5016 12.8284 27.5016 13.6913V17.5195H25.8611C24.9983 17.5195 24.2988 18.219 24.2988 19.0819C24.2988 19.9448 24.9983 20.6443 25.8611 20.6443H26.0182L26.0174 23.3784C26.0174 26.2416 27.9776 28.6552 30.6264 29.3489V32.9865C30.6264 35.1402 28.8742 36.8924 26.7204 36.8924H25.3143C24.4514 36.8924 23.752 37.5919 23.752 38.4548C23.752 39.3177 24.4514 40.0171 25.3143 40.0171H26.7204C30.5971 40.0171 33.7511 36.8632 33.7511 32.9865V29.3488C36.3998 28.6551 38.3601 26.2407 38.3601 23.3727L38.3502 20.6443H38.4382C39.3011 20.6443 40.0006 19.9448 40.0006 19.0819C40.0006 18.219 39.3011 17.5195 38.4382 17.5195ZM35.2353 23.3783C35.2353 25.0583 33.8687 26.4249 32.1887 26.4249C30.5088 26.4249 29.1421 25.0583 29.1421 23.3788L29.143 20.6443H35.2254L35.2353 23.3783Z" fill="#0D9E91"/>
</svg>
