<svg width="50" height="51" viewBox="0 0 50 51" fill="none" xmlns="http://www.w3.org/2000/svg">
<g clip-path="url(#clip0_1479_3200)">
<path d="M22.8516 48.4784C21.1351 48.4888 20.2383 46.3649 21.4729 45.1419L25.0167 41.6101C25.7686 40.8906 25.771 39.5994 25.0221 38.877L21.4866 35.4223C20.7151 34.6684 20.7008 33.4317 21.4547 32.6604C22.2087 31.8888 23.4452 31.8745 24.2166 32.6284L27.7604 36.0914C27.7651 36.096 27.7698 36.1006 27.7745 36.1053C30.0497 38.2816 30.0497 42.2005 27.7744 44.3768L24.2304 47.9088C23.8491 48.2886 23.3502 48.4784 22.8516 48.4784ZM19.8242 42.0331H6.83594C3.0666 42.0331 0 38.9665 0 35.1972V29.2401C0.0959961 26.6515 3.81113 26.6534 3.90625 29.2401V35.1972C3.90625 36.8126 5.22051 38.1269 6.83594 38.1269H19.8242C22.4129 38.2229 22.4109 41.938 19.8242 42.0331ZM48.0469 23.5761C46.9682 23.5761 46.0938 22.7017 46.0938 21.6229V15.6659C46.0938 14.0505 44.7795 12.7362 43.1641 12.7362H30.1758C27.5871 12.6402 27.5891 8.92509 30.1758 8.82997H43.1641C46.9334 8.82997 50 11.8966 50 15.6659V21.6229C50 22.7017 49.1256 23.5761 48.0469 23.5761ZM27.1483 18.7909C26.656 18.7909 26.1634 18.606 25.7834 18.2348L22.2396 14.7718C22.2349 14.7673 22.2302 14.7626 22.2255 14.758C19.9503 12.5815 19.9503 8.66279 22.2256 6.48652L25.7696 2.95448C26.5337 2.19306 27.7703 2.19511 28.5317 2.95917C29.2932 3.72323 29.291 4.95985 28.5271 5.72128L24.9832 9.25312C24.2313 9.97255 24.229 11.2638 24.9778 11.9861L28.5133 15.4409C29.2848 16.1948 29.2991 17.4314 28.5452 18.2029C28.1628 18.5943 27.6557 18.7909 27.1483 18.7909Z" fill="#064D47"/>
<path d="M6.56325 24.2129C6.08984 24.2129 5.61215 24.0681 5.20018 23.7671C4.16527 23.0113 3.93737 21.5572 4.69118 20.5195L8.84751 14.7979H3.78321C2.91475 14.7979 2.11921 14.3112 1.72185 13.5369C1.32437 12.7627 1.39195 11.8306 1.89677 11.122L8.8518 1.35847C9.59611 0.313654 11.044 0.0716563 12.0858 0.818104C13.1276 1.56432 13.369 3.01619 12.6247 4.06089L8.28821 10.1486H13.4043C14.2766 10.1486 15.0751 10.6396 15.4706 11.4191C15.8662 12.1987 15.7918 13.135 15.2783 13.842L8.43914 23.2569C7.98544 23.8814 7.27915 24.2129 6.56325 24.2129Z" fill="#0D9E91"/>
<path d="M38.6922 50.3848C38.2187 50.3848 37.7411 50.2399 37.3291 49.939C36.2942 49.1831 36.0663 47.7291 36.8201 46.6913L40.9764 40.9698H35.9121C35.0437 40.9698 34.2481 40.4831 33.8508 39.7088C33.4533 38.9345 33.5209 38.0025 34.0257 37.2939L40.9807 27.5303C41.725 26.4855 43.1729 26.2435 44.2147 26.99C45.2565 27.7362 45.4979 29.1881 44.7536 30.2328L40.4171 36.3205H45.5332C46.4055 36.3205 47.204 36.8114 47.5995 37.591C47.9951 38.3706 47.9207 39.3068 47.4072 40.0139L40.568 49.4287C40.1143 50.0533 39.4081 50.3848 38.6922 50.3848Z" fill="#0D9E91"/>
</g>
</svg>
