<svg width="16" height="14" viewBox="0 0 16 14" fill="none" xmlns="http://www.w3.org/2000/svg">
<path d="M8 8C7.4477 8 7 7.5523 7 7V5C7 4.4477 7.4477 4 8 4C8.5523 4 9 4.4477 9 5V7C9 7.5523 8.5523 8 8 8Z" fill="#E11D48"/>
<path d="M8 11C8.55228 11 9 10.5523 9 10C9 9.44772 8.55228 9 8 9C7.44772 9 7 9.44772 7 10C7 10.5523 7.44772 11 8 11Z" fill="#E11D48"/>
<path d="M13 14H3C1.3458 14 0 12.6542 0 11C0 10.4367 0.15725 9.88745 0.45475 9.41145L5.45475 1.41145C6.00725 0.5276 6.95875 0 8 0C9.04135 0 9.99285 0.52765 10.5453 1.41145L15.5453 9.41145C15.8428 9.88745 16 10.4367 16 11C16 12.6542 14.6542 14 13 14ZM8 2C7.65275 2 7.33525 2.17625 7.1507 2.47155L2.15075 10.4715C2.0521 10.6292 2 10.812 2 11C2 11.5514 2.4486 12 3 12H13C13.5514 12 14 11.5514 14 11C14 10.812 13.9479 10.6292 13.8492 10.4715L8.84925 2.47145C8.66475 2.17625 8.34725 2 8 2V2Z" fill="#E11D48"/>
</svg>
