<svg width="32" height="30" viewBox="0 0 32 30" fill="none" xmlns="http://www.w3.org/2000/svg">
<path d="M5 20C5 16.1571 7.47744 12.8928 10.9222 11.717C11.5328 11.5086 12.1736 11.3659 12.8365 11.2971C12.7292 11.2672 12.6167 11.25 12.5 11.25H10C9.01044 11.25 8.05925 11.4143 7.17225 11.717C3.72744 12.8928 1.25 16.1571 1.25 20C1.25 24.8324 5.16756 28.75 10 28.75C10.0968 28.75 10.8284 28.7542 11.8308 28.5383C7.92156 27.6634 5 24.1731 5 20Z" fill="#CEE1F2"/>
<path d="M16 5C16.6904 5 17.25 4.44037 17.25 3.75V1.25C17.25 0.559625 16.6904 0 16 0C15.3096 0 14.75 0.559625 14.75 1.25V3.75C14.75 4.44037 15.3096 5 16 5Z" fill="#0D9E91"/>
<path d="M11.5802 7.13404C12.0683 7.62216 12.8598 7.62223 13.348 7.13404C13.8362 6.64585 13.8362 5.85441 13.348 5.36629L11.5802 3.59854C11.092 3.11035 10.3005 3.11041 9.81241 3.59854C9.32428 4.08666 9.32422 4.87816 9.81241 5.36629L11.5802 7.13404Z" fill="#0D9E91"/>
<path d="M20.4191 7.13402L22.1868 5.36627C22.6749 4.87808 22.6749 4.08664 22.1867 3.59852C21.6987 3.11039 20.9071 3.11039 20.419 3.59852L18.6513 5.36627C18.1631 5.85439 18.1631 6.64589 18.6513 7.13402C19.1394 7.62214 19.9309 7.6222 20.4191 7.13402Z" fill="#0D9E91"/>
<path d="M10.0048 30H10.0086C10.4941 30 12.2031 29.9364 14.0793 29.13C16.7425 27.9852 18.5994 25.8445 19.4493 22.9392C19.9636 21.1812 21.4343 20.0001 23.1089 20.0001H28.25C30.3177 20.0001 32 18.3178 32 16.2501V13.7501C32 11.6823 30.3177 10.0001 28.25 10.0001H20C19.3046 10.0001 18.6318 10.2865 18.154 10.7859C17.7042 11.2561 17.4719 11.8643 17.5 12.5H15C15 11.1215 13.8785 10 12.5 10H10C8.89394 10 7.80669 10.1797 6.7685 10.534C2.72006 11.9158 0 15.7199 0 20C0 25.514 4.486 30 10.0048 30ZM7.576 12.9C8.35369 12.6346 9.16925 12.5 10 12.5H12.5C12.5 13.8785 13.6215 15 15 15H17.5C18.1787 15 18.8372 14.7187 19.3065 14.2281C19.7567 13.7576 20.0006 13.1476 20 12.5H28.25C28.9393 12.5 29.5 13.0608 29.5 13.75V16.25C29.5 16.9392 28.9393 17.5 28.25 17.5H23.1089C20.3136 17.5 17.8787 19.4037 17.0499 22.2372C16.4071 24.4343 15.0756 25.9806 13.092 26.8332C11.6171 27.4671 10.2698 27.5 10.0087 27.5C10.0079 27.5 10.0003 27.5 10 27.5C5.8645 27.5 2.5 24.1355 2.5 20C2.5 16.7895 4.53988 13.9362 7.576 12.9Z" fill="#064D47"/>
<path d="M10 23.75C12.0677 23.75 13.75 22.0677 13.75 20C13.75 17.9323 12.0677 16.25 10 16.25C7.93225 16.25 6.25 17.9323 6.25 20C6.25 22.0677 7.93225 23.75 10 23.75ZM10 18.75C10.6892 18.75 11.25 19.3108 11.25 20C11.25 20.6892 10.6892 21.25 10 21.25C9.31075 21.25 8.75 20.6892 8.75 20C8.75 19.3108 9.31075 18.75 10 18.75Z" fill="#064D47"/>
</svg>
