<svg width="512" height="512" viewBox="0 0 512 512" fill="none" xmlns="http://www.w3.org/2000/svg">
<g clip-path="url(#clip0_2828_2289)">
<path d="M423.976 496.966C382.627 496.966 348.987 463.326 348.987 421.977C348.987 380.628 382.627 346.988 423.976 346.988C465.326 346.988 498.966 380.628 498.966 421.977C498.966 463.326 465.326 496.966 423.976 496.966ZM423.976 386.982C404.68 386.982 388.981 402.681 388.981 421.977C388.981 441.273 404.68 456.972 423.976 456.972C443.273 456.972 458.971 441.273 458.971 421.977C458.971 402.681 443.273 386.982 423.976 386.982ZM91.0239 165.014C49.6748 165.014 16.0346 131.373 16.0346 90.0243C16.0346 48.6752 49.6748 15.035 91.0239 15.035C132.373 15.035 166.013 48.6752 166.013 90.0243C166.013 131.373 132.373 165.014 91.0239 165.014ZM91.0239 55.0293C71.7277 55.0293 56.0289 70.7281 56.0289 90.0243C56.0289 109.321 71.7277 125.019 91.0239 125.019C110.32 125.019 126.019 109.321 126.019 90.0243C126.019 70.7281 110.32 55.0293 91.0239 55.0293ZM422.977 165.014C381.627 165.014 347.987 131.373 347.987 90.0243C347.987 48.6752 381.627 15.035 422.977 15.035C464.326 15.035 497.966 48.6752 497.966 90.0243C497.966 131.373 464.326 165.014 422.977 165.014ZM422.977 55.0293C403.68 55.0293 387.982 70.7281 387.982 90.0243C387.982 109.321 403.68 125.019 422.977 125.019C442.273 125.019 457.972 109.321 457.972 90.0243C457.972 70.7281 442.273 55.0293 422.977 55.0293ZM92.0238 495.966C50.6747 495.966 17.0345 462.326 17.0345 420.977C17.0345 379.628 50.6747 345.988 92.0238 345.988C133.373 345.988 167.013 379.628 167.013 420.977C167.013 462.326 133.373 495.966 92.0238 495.966ZM92.0238 385.982C72.7276 385.982 57.0288 401.681 57.0288 420.977C57.0288 440.273 72.7276 455.972 92.0238 455.972C111.32 455.972 127.019 440.273 127.019 420.977C127.019 401.681 111.32 385.982 92.0238 385.982ZM506.663 308.243C513.832 273.595 513.779 238.47 506.505 203.845C504.234 193.036 493.631 186.115 482.823 188.385C472.015 190.656 465.094 201.258 467.364 212.067C473.5 241.279 473.545 270.911 467.498 300.141C465.261 310.956 472.214 321.537 483.029 323.775C484.397 324.058 485.758 324.194 487.101 324.194C496.385 324.193 504.709 317.691 506.663 308.243ZM308.242 506.664C319.057 504.427 326.01 493.847 323.774 483.03C321.537 472.216 310.954 465.256 300.14 467.499C270.908 473.546 241.275 473.501 212.066 467.365C201.257 465.099 190.655 472.016 188.385 482.824C186.114 493.633 193.036 504.234 203.844 506.506C221.285 510.169 238.848 512 256.418 512C273.73 512 291.047 510.22 308.242 506.664V506.664ZM323.615 29.176C325.885 18.3675 318.963 7.76605 308.156 5.49437C273.531 -1.77759 238.407 -1.83059 203.758 5.33639C192.942 7.57307 185.989 18.1536 188.226 28.97C190.464 39.7845 201.047 46.7425 211.86 44.5008C241.092 38.4557 270.725 38.4997 299.934 44.6358C301.321 44.9267 302.703 45.0667 304.065 45.0667C313.324 45.0657 321.636 38.5976 323.615 29.176V29.176ZM29.1768 323.616C39.9852 321.345 46.9062 310.743 44.6356 299.934C38.4994 270.723 38.4544 241.091 44.5016 211.86C46.7393 201.045 39.7862 190.464 28.9708 188.226C18.1483 185.984 7.57384 192.943 5.33716 203.757C-1.83182 238.406 -1.77883 273.531 5.49514 308.156C7.47385 317.579 15.7857 324.047 25.0453 324.047C26.4072 324.046 27.791 323.907 29.1768 323.616V323.616Z" fill="white"/>
<path d="M316.992 291.745C316.992 276.905 310.656 263.117 299.151 252.919C288.299 243.3 273.951 238.003 258.75 238.003C246.353 238.003 237.003 232.093 237.003 224.255C237.003 216.674 243.226 210.507 250.876 210.507C257.833 210.507 268.198 211.432 286.747 218.646C297.042 222.649 308.629 217.549 312.632 207.256C316.635 196.963 311.536 185.374 301.243 181.371C293.27 178.271 285.947 175.89 278.997 174.15V163.013C278.997 151.968 270.045 143.016 259 143.016C247.956 143.016 239.003 151.968 239.003 163.013V171.844C214.996 177.255 197.009 198.692 197.009 224.254C197.009 254.893 223.552 277.996 258.75 277.996C268.812 277.996 276.998 284.164 276.998 291.744C276.998 299.196 270.444 305.492 262.687 305.492C256.331 305.492 240.043 303.026 223.392 296.408C213.129 292.329 201.502 297.342 197.423 307.605C193.343 317.868 198.357 329.495 208.62 333.574C218.642 337.557 228.809 340.466 238.003 342.417V351.986C238.003 363.03 246.956 371.983 258 371.983C269.045 371.983 277.997 363.03 277.997 351.986V343.298C300.507 336.739 316.992 316.118 316.992 291.745V291.745Z" fill="white"/>
</g>
<defs>
<clipPath id="clip0_2828_2289">
<rect width="512" height="512" fill="white"/>
</clipPath>
</defs>
</svg>
