<svg width="512" height="512" viewBox="0 0 512 512" fill="none" xmlns="http://www.w3.org/2000/svg">
<g clip-path="url(#clip0_2828_2294)">
<path d="M268.154 243.847C275.964 251.657 288.627 251.658 296.438 243.847L381.291 158.994C389.102 151.184 389.102 138.52 381.291 130.71C373.48 122.9 360.817 122.899 353.007 130.71L268.154 215.563C260.343 223.373 260.343 236.036 268.154 243.847V243.847Z" fill="white"/>
<path d="M41.879 158.994C18.485 182.388 18.485 220.453 41.879 243.846C49.324 251.292 58.614 256.661 68.743 259.373L202.658 295.242C209.511 297.077 214.923 302.489 216.758 309.344L252.626 443.253C255.338 453.384 260.708 462.675 268.153 470.12C291.6 493.567 329.554 493.573 353.005 470.121C358.992 464.135 363.56 457.114 366.581 449.257L508.002 81.5612C516.511 59.4432 511.182 34.3272 494.427 17.5722C477.672 0.817221 452.554 -4.51178 430.438 3.99722L62.742 145.418C54.884 148.441 47.864 153.008 41.879 158.994V158.994ZM70.163 187.278C72.165 185.276 74.5 183.753 77.101 182.753L444.799 41.3312C452.282 38.4522 460.635 40.3492 466.143 45.8572C471.731 51.4452 473.507 59.8232 470.669 67.2012V67.2022L329.246 434.9C328.246 437.5 326.724 439.833 324.721 441.836C316.906 449.652 304.256 449.653 296.437 441.836C293.916 439.315 292.176 436.313 291.265 432.907L255.396 298.996C249.874 278.37 233.661 262.135 213.005 256.604L79.09 220.735C75.687 219.824 72.684 218.084 70.163 215.562C62.365 207.764 62.365 195.076 70.163 187.278V187.278Z" fill="white"/>
<path d="M5.85799 506.142C13.668 513.952 26.331 513.953 34.142 506.142L118.995 421.289C126.806 413.478 126.806 400.815 118.995 393.005C111.184 385.195 98.521 385.194 90.711 393.005L5.85799 477.858C-1.95201 485.668 -1.95201 498.331 5.85799 506.142V506.142Z" fill="white"/>
<path d="M147.279 506.142L203.847 449.574C211.658 441.763 211.658 429.1 203.847 421.29C196.036 413.48 183.373 413.479 175.563 421.29L118.995 477.858C111.184 485.669 111.184 498.332 118.995 506.142C126.806 513.952 139.469 513.953 147.279 506.142Z" fill="white"/>
<path d="M5.85799 393.005C13.668 400.815 26.331 400.816 34.142 393.005L90.71 336.437C98.521 328.626 98.521 315.963 90.71 308.153C82.899 300.343 70.236 300.342 62.426 308.153L5.85799 364.721C-1.95201 372.531 -1.95201 385.194 5.85799 393.005V393.005Z" fill="white"/>
</g>
<defs>
<clipPath id="clip0_2828_2294">
<rect width="512" height="512" fill="white"/>
</clipPath>
</defs>
</svg>
