<svg width="20" height="24" viewBox="0 0 20 24" fill="none" xmlns="http://www.w3.org/2000/svg">
<path d="M10 10.3125C10 9.27164 10.5658 8.36358 11.4062 7.8772C10.9925 7.63777 10.5124 7.5 10 7.5C8.4467 7.5 7.1875 8.7592 7.1875 10.3125C7.1875 11.8658 8.4467 13.125 10 13.125C10.5124 13.125 10.9925 12.9873 11.4062 12.7478C10.5658 12.2614 10 11.3534 10 10.3125Z" fill="#CEE1F2"/>
<path d="M17.5002 11.25C16.9824 11.25 16.5627 10.8303 16.5627 10.3125C16.5627 7.9768 15.3051 5.79837 13.2807 4.62734C12.8325 4.36808 12.6794 3.79461 12.9387 3.34639C13.1979 2.89817 13.7714 2.74508 14.2196 3.00434C15.4787 3.73269 16.5347 4.78011 17.2735 6.03336C18.0351 7.32547 18.4377 8.80517 18.4377 10.3125C18.4377 10.8303 18.0179 11.25 17.5002 11.25Z" fill="#0D9E91"/>
<path d="M9.99969 18.75C8.51586 18.75 7.05621 18.3592 5.77859 17.6197C5.33046 17.3603 5.17746 16.7868 5.43678 16.3387C5.69618 15.8905 6.26974 15.7375 6.71782 15.9969C7.71036 16.5713 8.84525 16.875 9.99969 16.875C11.1541 16.875 12.289 16.5713 13.2815 15.9969C13.7297 15.7375 14.3032 15.8905 14.5626 16.3387C14.822 16.7868 14.669 17.3603 14.2208 17.6197C12.9431 18.3592 11.4835 18.75 9.99969 18.75Z" fill="#0D9E91"/>
<path d="M9.06249 22.125H6.24999C5.73221 22.125 5.31249 22.5447 5.31249 23.0625C5.31249 23.5803 5.73221 24 6.24999 24H13.75C14.2678 24 14.6875 23.5803 14.6875 23.0625C14.6875 22.5447 14.2678 22.125 13.75 22.125H10.9375V13.9438C11.6066 13.771 12.2034 13.4172 12.6736 12.9386L17.6502 15.8119C18.0971 16.0699 18.6711 15.9187 18.9308 15.4688C19.1897 15.0203 19.0361 14.447 18.5877 14.1881L13.6126 11.3157C13.7015 10.9962 13.75 10.66 13.75 10.3125C13.75 8.56833 12.5531 7.09852 10.9375 6.68114V0.9375C10.9375 0.419719 10.5178 0 9.99999 0C9.48221 0 9.06249 0.419719 9.06249 0.9375V6.68114C7.44689 7.09852 6.24999 8.56833 6.24999 10.3125C6.24999 10.66 6.2985 10.9962 6.38738 11.3157L1.41225 14.1881C0.963847 14.447 0.810237 15.0203 1.06913 15.4688C1.32877 15.9185 1.90257 16.0701 2.34975 15.8119L7.32643 12.9386C7.79663 13.4172 8.39344 13.771 9.06249 13.9438V22.125ZM9.99999 12.1875C8.96611 12.1875 8.12499 11.3464 8.12499 10.3125C8.12499 9.27863 8.96611 8.4375 9.99999 8.4375C11.0339 8.4375 11.875 9.27863 11.875 10.3125C11.875 11.3464 11.0339 12.1875 9.99999 12.1875Z" fill="#064D47"/>
<path d="M2.5 11.25C1.98222 11.25 1.5625 10.8303 1.5625 10.3125C1.5625 8.80511 1.96506 7.32546 2.72669 6.03335C3.46544 4.7801 4.52144 3.73268 5.78055 3.00433C6.22872 2.74507 6.80224 2.89821 7.0615 3.34638C7.32077 3.79455 7.16763 4.36807 6.71946 4.62733C4.69507 5.79836 3.4375 7.97679 3.4375 10.3125C3.4375 10.8303 3.01778 11.25 2.5 11.25Z" fill="#0D9E91"/>
</svg>
